<svg xmlns="http://www.w3.org/2000/svg" xmlns:xlink="http://www.w3.org/1999/xlink" width="181.851" height="53.549" viewBox="0 0 181.851 53.549"><defs><style>.a{fill:#670f5f;}.b{fill:url(#a);}.c{opacity:0.32;fill:url(#b);}</style><linearGradient id="a" x1="0.304" y1="-0.268" x2="0.558" y2="0.851" gradientUnits="objectBoundingBox"><stop offset="0" stop-color="#ee502c"/><stop offset="1" stop-color="#53284f"/></linearGradient><linearGradient id="b" x1="0.5" y1="-1.003" x2="0.05" y2="2.093" gradientUnits="objectBoundingBox"><stop offset="0" stop-color="#c919b9"/><stop offset="1" stop-color="#53284f"/></linearGradient></defs><rect class="a" width="180" height="48" rx="24" transform="translate(0.609)"/><path class="b" d="M26.659,3.9c145.255,0,142.6,48,129.341,48L24.922,51.818C8.3,51.214,0,40.207,0,25.779S13.4,3.9,26.659,3.9Z" transform="translate(0.609 -3.904)"/><path class="c" d="M184.825,3.9C106.775,3.9,48.2,4.532,28.8,11.877,24.419,27.651,37.321,40.3,49.409,42.46l131.3,4.157c18.077,0,31.138-14.134,26.88-27.891S202.9,3.9,184.825,3.9Z" transform="matrix(0.999, -0.035, 0.035, 0.999, -28.045, 7.935)"/></svg>