<svg xmlns="http://www.w3.org/2000/svg" width="69.001" height="69" viewBox="0 0 69.001 69"><defs><style>.a{fill:#231f20;}.b{fill:none;stroke:#231f20;stroke-linecap:round;stroke-width:4px;}</style></defs><path class="a" d="M-5873.5-222a34.284,34.284,0,0,1-13.429-2.711,34.38,34.38,0,0,1-10.966-7.393,34.373,34.373,0,0,1-7.394-10.966A34.277,34.277,0,0,1-5908-256.5a34.275,34.275,0,0,1,2.711-13.429A34.381,34.381,0,0,1-5897.9-280.9a34.38,34.38,0,0,1,10.966-7.394A34.285,34.285,0,0,1-5873.5-291a34.279,34.279,0,0,1,13.429,2.711A34.376,34.376,0,0,1-5849.1-280.9a34.375,34.375,0,0,1,7.394,10.966A34.275,34.275,0,0,1-5839-256.5a34.277,34.277,0,0,1-2.711,13.429,34.38,34.38,0,0,1-7.394,10.966,34.377,34.377,0,0,1-10.966,7.393A34.282,34.282,0,0,1-5873.5-222Zm0-65a30.535,30.535,0,0,0-30.5,30.5,30.535,30.535,0,0,0,30.5,30.5,30.535,30.535,0,0,0,30.5-30.5A30.534,30.534,0,0,0-5873.5-287Z" transform="translate(5908 291)"/><line class="b" x2="27" y2="27" transform="translate(21.5 21.5)"/><line class="b" x1="27" y2="27" transform="translate(21.5 21.5)"/></svg>