<svg xmlns="http://www.w3.org/2000/svg" xmlns:xlink="http://www.w3.org/1999/xlink" width="47.851" height="48.763" viewBox="0 0 47.851 48.763"><defs><style>.a{fill:url(#a);}.b{fill:url(#b);}.c{fill:url(#c);}.d{fill:url(#d);}.e{fill:url(#e);}.f{fill:url(#f);}.g{fill:url(#g);}.h{fill:url(#h);}.i{fill:url(#i);}.j{fill:url(#j);}.k{fill:url(#k);}.l{fill:url(#l);}.m{fill:url(#m);}.n{fill:url(#n);}.o{fill:url(#o);}.p{fill:url(#p);}.q{fill:url(#q);}.r{fill:url(#r);}.s{fill:url(#s);}.t{fill:url(#t);}.u{fill:url(#u);}</style><linearGradient id="a" x1="2.789" y1="-1.548" x2="3.468" y2="-1.426" gradientUnits="objectBoundingBox"><stop offset="0" stop-color="#ffe548"/><stop offset="0.176" stop-color="#ffde50"/><stop offset="0.445" stop-color="#ffca65"/><stop offset="0.771" stop-color="#ffaa87"/><stop offset="1" stop-color="#ff90a4"/></linearGradient><linearGradient id="b" x1="0.499" y1="0.772" x2="0.413" y2="1.077" gradientUnits="objectBoundingBox"><stop offset="0" stop-color="#fba5c2" stop-opacity="0"/><stop offset="0.386" stop-color="#fca0ba" stop-opacity="0.384"/><stop offset="0.974" stop-color="#ff91a5" stop-opacity="0.973"/><stop offset="1" stop-color="#ff90a4"/></linearGradient><linearGradient id="c" x1="0.511" y1="0.663" x2="0.406" y2="1.043" xlink:href="#b"/><linearGradient id="d" x1="0.541" y1="0.499" x2="0.397" y2="0.973" xlink:href="#b"/><linearGradient id="e" x1="0.565" y1="0.374" x2="0.389" y2="0.772" xlink:href="#a"/><linearGradient id="f" x1="0.37" y1="0.715" x2="0.658" y2="0.272" gradientUnits="objectBoundingBox"><stop offset="0" stop-color="#ffd00d" stop-opacity="0"/><stop offset="1" stop-color="#db722b"/></linearGradient><linearGradient id="g" x1="0.535" y1="0.498" x2="0.336" y2="-0.006" xlink:href="#f"/><linearGradient id="h" x1="0.6" y1="0.575" x2="0.323" y2="0.193" gradientUnits="objectBoundingBox"><stop offset="0" stop-color="#a34a9e" stop-opacity="0"/><stop offset="1" stop-color="#343168"/></linearGradient><linearGradient id="i" x1="2.271" y1="-1.655" x2="2.183" y2="-2.645" gradientUnits="objectBoundingBox"><stop offset="0" stop-color="#a34a9e"/><stop offset="1" stop-color="#343168"/></linearGradient><linearGradient id="j" x1="-12.171" y1="4.477" x2="-11.761" y2="4.696" gradientUnits="objectBoundingBox"><stop offset="0" stop-color="#3fa9f5"/><stop offset="1" stop-color="#666ad6"/></linearGradient><linearGradient id="k" x1="-21.586" y1="-11.156" x2="-21.273" y2="-10.873" xlink:href="#i"/><linearGradient id="l" x1="0.637" y1="0.357" x2="-0.243" y2="1.099" gradientUnits="objectBoundingBox"><stop offset="0" stop-color="#ff4974"/><stop offset="0.45" stop-color="#fe4773"/><stop offset="0.629" stop-color="#fc406d"/><stop offset="0.761" stop-color="#f73464"/><stop offset="0.868" stop-color="#f12257"/><stop offset="0.961" stop-color="#e80c46"/><stop offset="1" stop-color="#e4003d"/></linearGradient><linearGradient id="m" x1="0.64" y1="0.193" x2="0.247" y2="1.873" gradientUnits="objectBoundingBox"><stop offset="0" stop-color="#c4f8b6"/><stop offset="1" stop-color="#3b8eac"/></linearGradient><radialGradient id="n" cx="0.039" cy="0.166" r="0.894" gradientTransform="matrix(1.268, 0.002, -0.003, 1, -0.014, 0)" xlink:href="#l"/><linearGradient id="o" x1="1.205" y1="1.07" x2="-0.581" y2="0.058" gradientUnits="objectBoundingBox"><stop offset="0" stop-color="#e4003d" stop-opacity="0"/><stop offset="0.343" stop-color="#cd0e2d" stop-opacity="0.341"/><stop offset="1" stop-color="#972e07"/></linearGradient><linearGradient id="p" x1="0.641" y1="0.455" x2="0.944" y2="0.774" xlink:href="#o"/><linearGradient id="q" x1="0.382" y1="0.268" x2="0.912" y2="0.969" xlink:href="#j"/><linearGradient id="r" x1="0.381" y1="0.262" x2="0.912" y2="0.963" xlink:href="#j"/><linearGradient id="s" x1="0.377" y1="0.265" x2="0.907" y2="0.966" xlink:href="#i"/><linearGradient id="t" x1="0.396" y1="0.258" x2="0.926" y2="0.959" xlink:href="#m"/><linearGradient id="u" x1="0.394" y1="0.256" x2="0.924" y2="0.958" xlink:href="#a"/></defs><path class="a" d="M40.194,159.209a1.624,1.624,0,0,1-.6.374l-.236.071S7.552,172.487,5.079,170s10.476-34.241,10.476-34.241l.072-.236a1.625,1.625,0,0,1,.377-.6c1.979-1.971,9,1.865,15.678,8.57S42.172,157.237,40.194,159.209Z" transform="translate(-4.765 -121.561)"/><path class="b" d="M55.859,183.688c-1.674.664-5.026,1.978-8.983,3.448-2.421.9-5.068,1.858-7.7,2.762-2.3.789-4.581,1.538-6.685,2.169-1.446-1.215-2.882-2.533-4.29-3.945s-2.72-2.854-3.93-4.3c.639-2.1,1.4-4.383,2.194-6.677.913-2.626,1.881-5.27,2.79-7.687,1.485-3.952,2.811-7.3,3.481-8.971a58.16,58.16,0,0,1,13.122,10.046A58.16,58.16,0,0,1,55.859,183.688Z" transform="translate(-22.41 -145.139)"/><path class="c" d="M78.587,159.208a1.623,1.623,0,0,1-.6.375l-.236.07s-.411.166-1.143.456c-1.674.664-5.026,1.978-8.983,3.448-2.421.9-5.068,1.858-7.7,2.761a65.752,65.752,0,0,1-12.711-12.757c.913-2.626,1.881-5.27,2.79-7.687,1.485-3.952,2.811-7.3,3.481-8.971.293-.731.46-1.142.46-1.142l.071-.235a1.625,1.625,0,0,1,.377-.6c1.979-1.971,9,1.865,15.678,8.569s10.491,13.738,8.512,15.71Z" transform="translate(-43.159 -121.561)"/><path class="d" d="M104.973,159.209a1.623,1.623,0,0,1-.6.375l-.236.07s-.411.166-1.143.456c-1.674.664-5.026,1.978-8.983,3.448a64.215,64.215,0,0,1-17.618-17.682c1.485-3.952,2.811-7.3,3.481-8.971.293-.731.46-1.142.46-1.142l.071-.235a1.625,1.625,0,0,1,.377-.6c1.979-1.971,9,1.865,15.678,8.569S106.952,157.238,104.973,159.209Z" transform="translate(-69.544 -121.561)"/><path class="e" d="M141.542,159.21c-1.979,1.972-9-1.865-15.679-8.569s-10.491-13.738-8.512-15.71,9,1.865,15.679,8.569S143.521,157.238,141.542,159.21Z" transform="translate(-106.114 -121.562)"/><path class="f" d="M159.2,170.948c-1.462,1.457-7.383-2.115-13.224-7.978s-9.392-11.8-7.93-13.253,7.383,2.115,13.224,7.978S160.659,169.491,159.2,170.948Z" transform="translate(-125.002 -135.107)"/><path class="g" d="M190.59,167.2c1.979-1.971-1.832-9-8.513-15.709a40.573,40.573,0,0,0-11.016-8.242,7.081,7.081,0,0,0,.4.654,5.505,5.505,0,0,0,.846.957l1.7,1.708c-.2.089-.375.159-.526.212a.575.575,0,0,0-.372.656l.6,2.982a.746.746,0,0,0,.469.551l16.285,16.345a1.484,1.484,0,0,0,.127-.113Z" transform="translate(-155.163 -129.552)"/><path class="h" d="M260.1,259.943l1.666,1.991,7.76,7.788a2,2,0,0,0,1.4-.515c1.729-1.723-.963-7.311-6.127-13.168a20.578,20.578,0,0,0-4.56,2.633.884.884,0,0,0-.141,1.27Z" transform="translate(-235.504 -231.558)"/><path class="i" d="M261.77,246.927l-1.666-1.991a.885.885,0,0,1,.141-1.27,20.572,20.572,0,0,1,22.653-1.522.884.884,0,0,1,.309,1.24l-1.386,2.2a.884.884,0,0,1-1.18.3,16.211,16.211,0,0,0-17.662,1.188A.883.883,0,0,1,261.77,246.927Z" transform="translate(-235.504 -216.552)"/><path class="j" d="M108.052,51.769l-1.512-1.556a2.5,2.5,0,0,1-.492-2.7,1.606,1.606,0,0,1,2.479-.653,2.5,2.5,0,0,1,.9,2.6l-.549,2.1A.492.492,0,0,1,108.052,51.769Z" transform="translate(-96.18 -42.067)"/><path class="k" d="M60.9,79.555l-2.148-.312A2.5,2.5,0,0,1,56.718,77.4a1.606,1.606,0,0,1,1.567-2.028,2.5,2.5,0,0,1,2.3,1.507l.844,2A.492.492,0,0,1,60.9,79.555Z" transform="translate(-51.708 -68.162)"/><path class="l" d="M397.445,378.311l2.161-.2a2.5,2.5,0,0,1,2.411,1.32,1.606,1.606,0,0,1-1.053,2.337,2.5,2.5,0,0,1-2.586-.931l-1.286-1.749A.492.492,0,0,1,397.445,378.311Z" transform="translate(-359.494 -341.954)"/><path class="m" d="M404.067,327.3l1.594-1.472a2.5,2.5,0,0,1,2.716-.423,1.606,1.606,0,0,1,.59,2.494,2.5,2.5,0,0,1-2.618.838l-2.085-.6A.493.493,0,0,1,404.067,327.3Z" transform="translate(-365.746 -294.086)"/><path class="n" d="M167.813,21.43a.745.745,0,0,1-.957-.564l-.6-2.982a.575.575,0,0,1,.372-.656,6.4,6.4,0,0,0,1.209-.574,6.2,6.2,0,0,1-3.226-2.3,5.213,5.213,0,0,1-.292-6.055,5.253,5.253,0,0,1,5.5-2.142c2.29.529,3.9,2.532,4.3,5.359q.025.177.045.351a3.742,3.742,0,0,0,1.3-1.19,4.983,4.983,0,0,0,.174-4.373,4.015,4.015,0,0,0-1.669-2.055.754.754,0,0,1-.383-.839l.688-2.836a.745.745,0,0,1,.985-.524,8,8,0,0,1,4.417,4.608,9.327,9.327,0,0,1-.516,8.331,9.242,9.242,0,0,1-5.752,3.808,8.281,8.281,0,0,1-2.469,3.007A10.55,10.55,0,0,1,167.813,21.43Zm.855-11.046a.925.925,0,0,0-.739.359c-.22.325.072.843.267,1.123a2.55,2.55,0,0,0,1.667.8q-.017-.261-.056-.535c-.139-.974-.5-1.62-.966-1.727a.769.769,0,0,0-.172-.019Z" transform="translate(-148.309 -0.001)"/><path class="o" d="M271.209,127.221l-3.126-3.137a11.628,11.628,0,0,1-.755,4.931A10.361,10.361,0,0,0,271.209,127.221Z" transform="translate(-242.224 -112.22)"/><path class="p" d="M168.2,116.188a1.737,1.737,0,0,1-.344-.829l-4.367-.008a5.915,5.915,0,0,0,1.127,3.322,6.2,6.2,0,0,0,3.226,2.3s2.238-.679,2.025-3.988A2.55,2.55,0,0,1,168.2,116.188Z" transform="translate(-148.312 -104.322)"/><path class="q" d="M254.181,196.2a8.6,8.6,0,0,0-2.534,2.549.378.378,0,0,1-.634,0,8.6,8.6,0,0,0-2.524-2.558.378.378,0,0,1,0-.629,8.6,8.6,0,0,0,2.534-2.549.378.378,0,0,1,.634,0,8.6,8.6,0,0,0,2.524,2.558A.378.378,0,0,1,254.181,196.2Z" transform="translate(-225.035 -174.402)"/><path class="r" d="M448.04,182.26a8.6,8.6,0,0,0-2.534,2.549.378.378,0,0,1-.634,0,8.6,8.6,0,0,0-2.524-2.558.378.378,0,0,1,0-.629,8.6,8.6,0,0,0,2.534-2.549.378.378,0,0,1,.634,0,8.6,8.6,0,0,0,2.524,2.558A.378.378,0,0,1,448.04,182.26Z" transform="translate(-400.358 -161.795)"/><path class="s" d="M357.254,27.425a8.6,8.6,0,0,0-2.534,2.549.378.378,0,0,1-.634,0,8.6,8.6,0,0,0-2.524-2.558.378.378,0,0,1,0-.629,8.6,8.6,0,0,0,2.534-2.549.378.378,0,0,1,.634,0,8.6,8.6,0,0,0,2.524,2.558A.378.378,0,0,1,357.254,27.425Z" transform="translate(-318.252 -21.764)"/><path class="t" d="M362.452,142.808a6.269,6.269,0,0,0-1.847,1.858.276.276,0,0,1-.462,0,6.267,6.267,0,0,0-1.84-1.865.276.276,0,0,1,0-.459,6.268,6.268,0,0,0,1.847-1.858.275.275,0,0,1,.462,0,6.269,6.269,0,0,0,1.84,1.865A.275.275,0,0,1,362.452,142.808Z" transform="translate(-324.39 -126.939)"/><path class="u" d="M393.93,82.819a6.269,6.269,0,0,0-1.847,1.858.276.276,0,0,1-.462,0,6.266,6.266,0,0,0-1.84-1.865.276.276,0,0,1,0-.459,6.269,6.269,0,0,0,1.847-1.858.275.275,0,0,1,.462,0,6.268,6.268,0,0,0,1.84,1.865A.276.276,0,0,1,393.93,82.819Z" transform="translate(-352.858 -72.685)"/></svg>