<svg xmlns="http://www.w3.org/2000/svg" xmlns:xlink="http://www.w3.org/1999/xlink" width="2431.511" height="810.494" viewBox="0 0 2431.511 810.494"><defs><style>.a{fill:none;}.b,.d,.n{fill:#fffdfd;}.c{fill:#53284f;}.d{font-size:20px;}.d,.g{font-family:NexaBold, Nexa Bold;}.e{text-decoration:underline;}.f{font-family:NexaBold, Nexa;}.g,.p{fill:#fff;}.g{font-size:22px;}.h,.i{font-size:16px;}.i{font-family:NexaLight, Nexa Light;}.j{fill:url(#a);}.k{fill:#b79c30;}.l{fill:#53294f;}.m{clip-path:url(#b);}.n{fill-rule:evenodd;}.o{clip-path:url(#c);}.q,.r{stroke:none;}.r{fill:#ba932b;}</style><radialGradient id="a" cx="0.503" cy="0.506" r="1.142" gradientTransform="matrix(0.4, 0, 0, 0.417, 0.336, 0.23)" gradientUnits="objectBoundingBox"><stop offset="0.287" stop-color="#fff"/><stop offset="0.38" stop-color="#fff" stop-opacity="0.804"/><stop offset="0.507" stop-color="#fff" stop-opacity="0.561"/><stop offset="0.628" stop-color="#fff" stop-opacity="0.361"/><stop offset="0.742" stop-color="#fff" stop-opacity="0.204"/><stop offset="0.845" stop-color="#fff" stop-opacity="0.094"/><stop offset="0.934" stop-color="#fff" stop-opacity="0.024"/><stop offset="1" stop-color="#fff" stop-opacity="0"/></radialGradient><clipPath id="b"><rect class="a" width="32.233" height="32.235"/></clipPath><clipPath id="c"><rect class="b" width="32.233" height="32.233"/></clipPath></defs><g transform="translate(0 0)"><g class="c" transform="translate(31.429 190.51)"><path class="q" d="M 2020.76708984375 617.4842529296875 L 30.12318420410156 617.4842529296875 L -28.55644989013672 177.5892944335938 C -22.84232139587402 177.8276824951172 -9.070813179016113 178.3584899902344 11.66148281097412 178.8839111328125 C 37.28719711303711 179.5335540771484 79.10541534423828 180.3074798583984 132.8007659912109 180.3074798583984 C 181.4786224365234 180.3074798583984 231.9904174804688 179.6810455322266 282.9332580566406 178.4456939697266 C 344.8857727050781 176.9431915283203 408.0650634765625 174.5224761962891 470.7164916992188 171.2503356933594 C 626.6957397460938 163.1046142578125 781.5236206054688 149.6299743652344 930.8989868164062 131.2010498046875 C 973.6547241210938 125.9260482788086 1016.555053710938 120.1664047241211 1058.408569335938 114.0817642211914 C 1102.328979492188 107.6967620849609 1146.311157226562 100.7771224975586 1189.132934570312 93.51569366455078 C 1233.92431640625 85.92033386230469 1278.6904296875 77.73961639404297 1322.1875 69.20069122314453 C 1367.55615234375 60.29426193237305 1412.808227539062 50.75069046020508 1456.6865234375 40.83426284790039 C 1502.338989257812 30.51712036132812 1547.779296875 19.5081901550293 1591.745361328125 8.11390495300293 C 1637.387939453125 -3.714666128158569 1682.718994140625 -16.29002380371094 1726.47900390625 -29.26252365112305 C 1771.81787109375 -42.70323944091797 1816.741821289062 -56.94680786132812 1860.002197265625 -71.59823608398438 C 1904.744018554688 -86.75144958496094 1948.962890625 -102.765739440918 1991.430419921875 -119.1968078613281 C 2022.030395507812 -131.0361022949219 2051.328369140625 -141.4882354736328 2078.510009765625 -150.2628784179688 C 2105.03759765625 -158.8260955810547 2130.27783203125 -166.0271606445312 2153.52978515625 -171.6653747558594 C 2176.192626953125 -177.1607360839844 2197.586181640625 -181.3221588134766 2217.116455078125 -184.0339508056641 C 2236.118896484375 -186.6725158691406 2253.8740234375 -188.0100250244141 2269.887451171875 -188.0100250244141 C 2285.563232421875 -188.0100250244141 2299.995361328125 -186.7289581298828 2312.78369140625 -184.2014465332031 C 2319.021728515625 -182.9689483642578 2324.997314453125 -181.4139556884766 2330.543701171875 -179.5803833007812 C 2335.9951171875 -177.7782440185547 2341.18359375 -175.6568145751953 2345.965087890625 -173.2750244140625 C 2350.663330078125 -170.9346618652344 2355.099609375 -168.2775268554688 2359.151123046875 -165.3771667480469 C 2363.133544921875 -162.5260925292969 2366.856201171875 -159.3600158691406 2370.214599609375 -155.9671630859375 C 2373.52001953125 -152.6275177001953 2376.56640625 -148.9739532470703 2379.269775390625 -145.1078796386719 C 2381.933349609375 -141.2975158691406 2384.338623046875 -137.1732330322266 2386.418701171875 -132.8493041992188 C 2389.076416015625 -127.3243103027344 2391.2890625 -121.2957382202148 2392.99462890625 -114.9307403564453 C 2394.669677734375 -108.678955078125 2395.902099609375 -101.9296646118164 2396.658203125 -94.87038421630859 C 2397.399658203125 -87.94430541992188 2397.70263671875 -80.52931213378906 2397.55859375 -72.83145141601562 C 2397.41748046875 -65.29002380371094 2396.843505859375 -57.27002334594727 2395.8525390625 -48.99430847167969 C 2393.93603515625 -32.98788070678711 2390.38427734375 -15.38359451293945 2385.295654296875 3.329262256622314 C 2380.45263671875 21.1389045715332 2374.091796875 40.41461944580078 2366.390380859375 60.62033462524414 C 2339.70361328125 130.6367645263672 2295.968505859375 214.7839050292969 2236.400146484375 310.7239074707031 C 2212.985107421875 348.4356994628906 2187.03857421875 388.0792541503906 2159.28173828125 428.5538940429688 C 2137.07421875 460.9364013671875 2113.6650390625 493.9196166992188 2089.70458984375 526.5874633789062 C 2052.56689453125 577.220703125 2025.528686523438 611.4826049804688 2020.76708984375 617.4842529296875 Z"/><path class="r" d="M 2019.558227539062 614.9842529296875 C 2025.940551757812 606.9179077148438 2052.22705078125 573.459228515625 2087.7421875 525.0357055664062 C 2111.688720703125 492.3860473632812 2135.08251953125 459.4224853515625 2157.274658203125 427.0603332519531 C 2185.007080078125 386.618896484375 2210.929443359375 347.0099792480469 2234.32080078125 309.3331909179688 C 2293.79248046875 213.54248046875 2337.44580078125 129.5517578125 2364.06787109375 59.69497680664062 C 2371.737548828125 39.56926345825195 2378.0703125 20.37640571594238 2382.89013671875 2.648548126220703 C 2387.944580078125 -15.9432373046875 2391.471435546875 -33.4235954284668 2393.372314453125 -49.30645370483398 C 2394.3525390625 -57.49787902832031 2394.920166015625 -65.43216705322266 2395.059326171875 -72.88895416259766 C 2395.20068359375 -80.48145294189453 2394.902099609375 -87.78966522216797 2394.17138671875 -94.61109161376953 C 2393.429443359375 -101.5407409667969 2392.220703125 -108.1607360839844 2390.5791015625 -114.2868118286133 C 2388.91357421875 -120.5007400512695 2386.755859375 -126.3818054199219 2384.165771484375 -131.7660980224609 C 2382.14404296875 -135.9689483642578 2379.80712890625 -139.9757385253906 2377.220458984375 -143.6757354736328 C 2374.598388671875 -147.4261016845703 2371.643310546875 -150.9696655273438 2368.4375 -154.2085876464844 C 2365.177978515625 -157.5014495849609 2361.563720703125 -160.5753784179688 2357.6953125 -163.3446655273438 C 2353.751953125 -166.1675262451172 2349.43017578125 -168.7557373046875 2344.85009765625 -171.0371704101562 C 2340.1748046875 -173.3660888671875 2335.09716796875 -175.4418029785156 2329.758544921875 -177.2068023681641 C 2324.31005859375 -179.0078735351562 2318.435791015625 -180.5361022949219 2312.298583984375 -181.7489471435547 C 2299.669677734375 -184.2446594238281 2285.40087890625 -185.5100250244141 2269.887451171875 -185.5100250244141 C 2253.988525390625 -185.5100250244141 2236.349365234375 -184.1803741455078 2217.46044921875 -181.5575256347656 C 2198.01220703125 -178.8571624755859 2176.701171875 -174.7114562988281 2154.118896484375 -169.2357330322266 C 2130.9267578125 -163.6121673583984 2105.746826171875 -156.4282379150391 2079.2783203125 -147.8835906982422 C 2052.14111328125 -139.1235961914062 2022.888305664062 -128.6871643066406 1992.33251953125 -116.8650207519531 C 1949.831787109375 -100.4214553833008 1905.579711914062 -84.39502716064453 1860.804321289062 -69.23037719726562 C 1817.513671875 -54.56895065307617 1772.558959960938 -40.31538009643555 1727.189697265625 -26.86573791503906 C 1683.40185546875 -13.88502311706543 1638.04296875 -1.301809072494507 1592.37255859375 10.53426265716553 C 1548.381469726562 21.93497657775879 1502.915405273438 32.94961929321289 1457.237548828125 43.27283477783203 C 1413.336181640625 53.19426345825195 1368.060791015625 62.74319076538086 1322.6689453125 71.65390777587891 C 1279.150756835938 80.19676208496094 1234.363647460938 88.38140869140625 1189.551147460938 95.98069000244141 C 1146.709716796875 103.2453308105469 1102.707885742188 110.1678314208984 1058.768310546875 116.5556945800781 C 1016.897216796875 122.6428375244141 973.9786376953125 128.4049835205078 931.205078125 133.6821136474609 C 781.771484375 152.1181945800781 626.8847045898438 165.5981903076172 470.8468322753906 173.7471160888672 C 408.1722106933594 177.0203399658203 344.9693298339844 179.4417572021484 282.9939880371094 180.9449768066406 C 232.0311279296875 182.1806945800781 181.4986267089844 182.8074798583984 132.8007659912109 182.8074798583984 C 79.07933807373047 182.8074798583984 37.2382698059082 182.0328369140625 11.59826850891113 181.3831939697266 C -6.155696392059326 180.9332427978516 -18.81408500671387 180.4790954589844 -25.68524551391602 180.2076873779297 L 32.31162261962891 614.9842529296875 L 2019.558227539062 614.9842529296875 M 2021.973266601562 619.9842529296875 L 27.93433952331543 619.9842529296875 L -31.42923164367676 174.9621124267578 C -31.42923164367676 174.9621124267578 28.90506362915039 177.8075103759766 132.8007659912109 177.8075103759766 C 476.5061950683594 177.8075103759766 1297.29833984375 146.6857147216797 1990.5283203125 -121.5282363891602 C 2115.112548828125 -169.7303771972656 2205.923828125 -190.5101928710938 2269.887451171875 -190.5101928710938 C 2669.427001953125 -190.5101928710938 2021.973266601562 619.9842529296875 2021.973266601562 619.9842529296875 Z"/></g><text class="d" transform="translate(1911.428 608.495)"><tspan class="e"><tspan x="-180.1" y="0">Terms &amp; Conditions</tspan><tspan x="0" y="25"></tspan><tspan x="-129.6" y="50">Privacy Policy</tspan><tspan x="0" y="75"></tspan><tspan x="-152.6" y="100">Judging Criteria</tspan></tspan><tspan class="f"><tspan x="0" y="125"></tspan></tspan></text><text class="g" transform="translate(221.428 552.495)"><tspan x="0" y="17">About Santoor</tspan><tspan class="h"><tspan x="0" y="42"></tspan></tspan><tspan class="i"><tspan x="0" y="67">Santoor is the flagship brand of Wipro Consumer Care. Our Soaps have always been a part of the </tspan><tspan x="0" y="92">beauty regimen of Indian women, giving them younger looking skin and making them feel youthful.</tspan><tspan x="0" y="117">Since our inception, we have celebrated the spirit of the Indian woman and have supported</tspan><tspan x="0" y="142">her in unleashing her talents. Santoor Centre Stage is our endeavor to give her the</tspan><tspan x="0" y="167">spotlight she deserves and help her showcase the world her brilliance. Want to join in? </tspan></tspan></text><g transform="translate(128.385 474.454)"><path class="j" d="M1250.308-14.278c0,43.01-148.932,114.03-309.043,114.03S636.043,28.732,636.043-14.278s145.1-131.681,305.222-131.681S1250.308-57.293,1250.308-14.278Z" transform="translate(0 0)"/><g transform="translate(781.174 -104.317)"><path class="k" d="M1334.452,265.534h-323.9l.1-2.773h323.9Z" transform="translate(-1010.551 -146.014)"/><g transform="translate(113.357 0)"><g transform="translate(48.967 39.602)"><path class="k" d="M1453.726,69.134c-5.465.687-7.156,5.868-12.421,10.124a34.088,34.088,0,0,1-11.881,5.878s8.949,1.234,25.337-6.728c11.06-5.38,11.56-14.72,11.56-14.72s-3.258,4.249-12.6,5.445" transform="translate(-1429.424 -63.689)"/></g><g transform="translate(14.235 40.301)"><path class="k" d="M1339.8,65.492c1.423,6.131,4.841,10.812,9.684,14.695,3.885,3.108,8.429,5.966,16.324,6.054C1357.95,70.058,1347.666,67.042,1339.8,65.492Z" transform="translate(-1339.799 -65.492)"/></g><g transform="translate(16.953 32.279)"><path class="k" d="M1349.248,50.82c1.811,3.8,4.181,2.347,8,4.82a6.864,6.864,0,0,1,1.9,1.911s.089-1.781-3.466-7.109c-2.992-4.512-8.869-5.65-8.869-5.65a43.951,43.951,0,0,0,2.435,6.028" transform="translate(-1346.813 -44.792)"/></g><g transform="translate(0 39.531)"><path class="k" d="M1312.086,76.741c8.932,5.924,24.256,8.192,24.256,8.192s-9.671-2.381-13.549-6.834c-3.895-4.447-4.43-8.071-9.133-9.041-8.039-1.654-10.593-5.554-10.593-5.554s.091,7.306,9.02,13.236" transform="translate(-1303.066 -63.505)"/></g><g transform="translate(25.87 0)"><path class="k" d="M1390.753-37.622c-15.19,9.356-21.892,21.486-20.818,29.646,1.829,13.881,13.567,26.145,17.295,30.523-5.69-23.347,9.763-26.76,9.763-43.575,0-5.364-3.985-14.638-5.126-17.475-.55.436-.84.646-1.114.881" transform="translate(-1369.824 38.503)"/></g><g transform="translate(43.458)"><path class="k" d="M1420.668-38.5a65.7,65.7,0,0,1,6.994,4.979,12.009,12.009,0,0,1,4.725,7.561,3.464,3.464,0,0,0,1.867,2.644c.89.473,1.742.978,2.619,1.454.439.244.878.454,1.316.734,1.692,1.046,1.761,1.545.514,3.076a4.819,4.819,0,0,0-.539.778c-.389.777-.275,1.213.463,1.751.533.4,1.066.781,1.567,1.144-.313.985-1.58,1.008-1.655,2.139.539.157,1.092.311,2.107.583a3.924,3.924,0,0,0-.846.631c-.933,1.249-.865,1.66.333,2.585.25.2.52.36.752.578.878.841.852,1.552-.163,2.226a7.746,7.746,0,0,1-1.845.843,19.838,19.838,0,0,1-2.769.726,11.6,11.6,0,0,0-5.388,2.47c-11.023,9.049-14.589,22.917-14.162,24.214-6.381-19.828,12.019-30.654,10.8-43.352C1426.471-29.919,1420.668-38.5,1420.668-38.5Z" transform="translate(-1415.209 38.503)"/></g><g transform="translate(46.917 33.598)"><path class="k" d="M1432.777,58.219c-3.811,4.665-7.7,11.414-8.643,17.428,11.725-3.958,23.795-15.256,23.795-27.452a32.062,32.062,0,0,0-15.152,10.024" transform="translate(-1424.134 -48.195)"/></g></g><g transform="translate(5.648 55.745)"><path class="l" d="M1045.689,157.7a15.709,15.709,0,0,0,4.111-.551,12.068,12.068,0,0,0,3.65-1.6,8.554,8.554,0,0,0,2.586-2.613,6.57,6.57,0,0,0,.978-3.594,7.437,7.437,0,0,0-1.338-4.362,15.5,15.5,0,0,0-3.5-3.49,35.55,35.55,0,0,0-4.941-3c-1.852-.934-3.735-1.873-5.666-2.81s-3.8-1.921-5.654-2.954a27.3,27.3,0,0,1-4.935-3.457,16.521,16.521,0,0,1-3.5-4.258,10.8,10.8,0,0,1-1.331-5.4,13.366,13.366,0,0,1,1.2-5.668,12.683,12.683,0,0,1,3.543-4.512,17.082,17.082,0,0,1,5.74-3,26.031,26.031,0,0,1,7.826-1.088,28.75,28.75,0,0,1,7.12.805,18.065,18.065,0,0,1,5.512,2.372,15.735,15.735,0,0,1,4.037,3.853,20.068,20.068,0,0,1,2.667,5.306l-4.832,2.09a21.039,21.039,0,0,0-2.162-4.481,14.41,14.41,0,0,0-3.142-3.471,13.473,13.473,0,0,0-4.217-2.232,17.335,17.335,0,0,0-5.4-.782,13.859,13.859,0,0,0-4.665.706,10.226,10.226,0,0,0-3.331,1.842,7.521,7.521,0,0,0-1.99,2.572,6.849,6.849,0,0,0-.653,2.908,6.107,6.107,0,0,0,1.351,3.844,15.96,15.96,0,0,0,3.607,3.294,44.113,44.113,0,0,0,5.107,3c1.909.961,3.851,1.945,5.828,2.93s3.923,2.021,5.831,3.1a32.4,32.4,0,0,1,5.106,3.509,16.876,16.876,0,0,1,3.6,4.186,9.682,9.682,0,0,1,1.361,5.077,14.258,14.258,0,0,1-1.272,5.969,13.452,13.452,0,0,1-3.816,4.859,18.91,18.91,0,0,1-6.32,3.275,32.092,32.092,0,0,1-16.027.365,19.193,19.193,0,0,1-5.619-2.448,16.788,16.788,0,0,1-4.172-3.92,20.678,20.678,0,0,1-2.844-5.279l5.05-1.978a17.125,17.125,0,0,0,2.393,4.663,15.363,15.363,0,0,0,7.93,5.664A17.344,17.344,0,0,0,1045.689,157.7Z" transform="translate(-1025.124 -105.345)"/><path class="l" d="M1152.015,134.016l21.083,44.412h-7.669l-6.831-15.153h-19.226l-7.063,15.153h-3.784l21.589-44.412Zm-11.331,26.511h16.536l-8.15-16.812Z" transform="translate(-1088.455 -122.905)"/><path class="l" d="M1254.862,133.974h4.227l29.364,31.054h.338V133.974h3.312V178.4h-1.76l-31.8-35.494h-.269V178.4h-3.413Z" transform="translate(-1165.833 -122.88)"/><path class="l" d="M1402.253,134.016v2.744h-16.23v41.667h-7.532V136.76h-16.225v-2.744Z" transform="translate(-1231.615 -122.905)"/><path class="l" d="M1483.246,178.428a26.592,26.592,0,0,1-9.712-1.762,24.747,24.747,0,0,1-7.841-4.819,22.632,22.632,0,0,1-5.238-7.14,20.378,20.378,0,0,1-1.9-8.729,19.91,19.91,0,0,1,.858-5.864,20.677,20.677,0,0,1,2.45-5.247,22.048,22.048,0,0,1,3.836-4.434,25.061,25.061,0,0,1,4.981-3.434,26.685,26.685,0,0,1,5.917-2.2,28.654,28.654,0,0,1,13.31,0,26.964,26.964,0,0,1,5.94,2.2,24.379,24.379,0,0,1,4.983,3.434,22.98,22.98,0,0,1,3.835,4.434,20.331,20.331,0,0,1,2.462,5.247,19.894,19.894,0,0,1,.864,5.864,20.454,20.454,0,0,1-.864,5.943,21.184,21.184,0,0,1-2.462,5.361,23.532,23.532,0,0,1-3.835,4.543,24.433,24.433,0,0,1-4.983,3.531,26.331,26.331,0,0,1-5.94,2.269A27.16,27.16,0,0,1,1483.246,178.428Zm0-2.119a14.76,14.76,0,0,0,6.818-1.519,14.278,14.278,0,0,0,4.976-4.243,19.42,19.42,0,0,0,3.064-6.436,30.552,30.552,0,0,0,1.034-8.134,29.757,29.757,0,0,0-1.034-8.037,18.651,18.651,0,0,0-3.064-6.293,14.008,14.008,0,0,0-4.976-4.094,16.782,16.782,0,0,0-13.687,0,13.819,13.819,0,0,0-4.977,4.094,18.465,18.465,0,0,0-3.019,6.293,29.981,29.981,0,0,0-1.015,8.037,30.781,30.781,0,0,0,1.015,8.134,19.23,19.23,0,0,0,3.019,6.436,14.083,14.083,0,0,0,4.977,4.243A14.824,14.824,0,0,0,1483.246,176.309Z" transform="translate(-1290.587 -122.905)"/><path class="l" d="M1622.456,178.428a26.649,26.649,0,0,1-9.726-1.762,24.7,24.7,0,0,1-7.832-4.819,22.822,22.822,0,0,1-5.239-7.14,20.394,20.394,0,0,1-1.911-8.729,19.919,19.919,0,0,1,.871-5.864,20.8,20.8,0,0,1,2.437-5.247,22.063,22.063,0,0,1,3.842-4.434,24.543,24.543,0,0,1,4.988-3.434,26.457,26.457,0,0,1,5.91-2.2,28.674,28.674,0,0,1,13.315,0,26.933,26.933,0,0,1,5.93,2.2,24.254,24.254,0,0,1,4.988,3.434,22.919,22.919,0,0,1,3.835,4.434,19.923,19.923,0,0,1,3.322,11.111,20.689,20.689,0,0,1-.853,5.943,21,21,0,0,1-2.469,5.361,23.469,23.469,0,0,1-3.835,4.543,24.306,24.306,0,0,1-4.988,3.531,26.3,26.3,0,0,1-5.93,2.269A27.2,27.2,0,0,1,1622.456,178.428Zm0-2.119a14.7,14.7,0,0,0,6.806-1.519,14.352,14.352,0,0,0,4.987-4.243,19.238,19.238,0,0,0,3.059-6.436,30.508,30.508,0,0,0,1.027-8.134,29.715,29.715,0,0,0-1.027-8.037,18.477,18.477,0,0,0-3.059-6.293,14.082,14.082,0,0,0-4.987-4.094,15.232,15.232,0,0,0-6.806-1.459,15.431,15.431,0,0,0-6.88,1.459,13.892,13.892,0,0,0-4.962,4.094,18.541,18.541,0,0,0-3.033,6.293,29.955,29.955,0,0,0-1.016,8.037,30.755,30.755,0,0,0,1.016,8.134,19.308,19.308,0,0,0,3.033,6.436,14.161,14.161,0,0,0,4.962,4.243A14.894,14.894,0,0,0,1622.456,176.309Z" transform="translate(-1375.842 -122.905)"/><path class="l" d="M1736.637,134.25h15.547a27.292,27.292,0,0,1,7.069.818,15.269,15.269,0,0,1,5.07,2.287,9.906,9.906,0,0,1,3.059,3.508,9.789,9.789,0,0,1,1.027,4.435,8.745,8.745,0,0,1-.8,3.715,10.475,10.475,0,0,1-2.224,3.121,14.047,14.047,0,0,1-3.466,2.406,20.872,20.872,0,0,1-4.455,1.581l16.32,22.45h-8.762l-15.574-21.808h-5.27v21.808h-7.544Zm7.544,20.37h4.358a16.154,16.154,0,0,0,4.679-.646,11.966,11.966,0,0,0,3.722-1.808,8.338,8.338,0,0,0,2.444-2.835,7.825,7.825,0,0,0,.877-3.744,8.8,8.8,0,0,0-.688-3.526,7.911,7.911,0,0,0-1.963-2.735,9.142,9.142,0,0,0-3.013-1.777,10.825,10.825,0,0,0-3.8-.645h-6.617Z" transform="translate(-1460.908 -123.049)"/></g></g></g></g><g transform="translate(587.328 -10843.988)"><g transform="translate(1114.512 11260)"><g class="m"><g transform="translate(0 -0.013)"><rect class="a" width="32.233" height="32.233" transform="translate(0 0.013)"/><path class="n" d="M-1844.928-3976.369v-14.684h5.014l.717-5.73h-5.731v-3.582c0-1.611.537-2.865,2.864-2.865h3.044v-5.193c-.715,0-2.506-.179-4.477-.179a6.911,6.911,0,0,0-7.354,6.44,6.937,6.937,0,0,0,.012,1.08v4.3h-5.014v5.73h5.014v14.684Z" transform="translate(1863.909 4008.616)"/></g></g></g><g transform="translate(1200.713 11260.001)"><g class="o"><g transform="translate(-0.034 -0.033)"><path class="n" d="M-1931.717-4005.729a49.4,49.4,0,0,1,6.446.181,8.291,8.291,0,0,1,3.044.537,6.281,6.281,0,0,1,3.044,3.044,8.279,8.279,0,0,1,.538,3.044c0,1.611.18,2.148.18,6.446a49.221,49.221,0,0,1-.18,6.448,8.277,8.277,0,0,1-.538,3.043,6.281,6.281,0,0,1-3.044,3.044,8.293,8.293,0,0,1-3.044.539c-1.611,0-2.15.179-6.446.179a49.423,49.423,0,0,1-6.447-.179,8.3,8.3,0,0,1-3.044-.539,6.284,6.284,0,0,1-3.044-3.044,8.313,8.313,0,0,1-.538-3.043c0-1.613-.179-2.15-.179-6.448a49.4,49.4,0,0,1,.179-6.446,8.315,8.315,0,0,1,.538-3.044,6.449,6.449,0,0,1,1.253-1.791,3.027,3.027,0,0,1,1.791-1.253,8.3,8.3,0,0,1,3.044-.537,49.424,49.424,0,0,1,6.447-.181m0-2.864a53.222,53.222,0,0,0-6.626.18,11.038,11.038,0,0,0-3.938.714,7.011,7.011,0,0,0-2.865,1.792,7.02,7.02,0,0,0-1.793,2.867,8.153,8.153,0,0,0-.715,3.938,53.108,53.108,0,0,0-.179,6.625,53.113,53.113,0,0,0,.179,6.626,11.084,11.084,0,0,0,.718,3.941,7.018,7.018,0,0,0,1.79,2.864,7.014,7.014,0,0,0,2.865,1.791,11.054,11.054,0,0,0,3.94.717,53.364,53.364,0,0,0,6.624.179,53.017,53.017,0,0,0,6.625-.181,11.053,11.053,0,0,0,3.94-.716,7.509,7.509,0,0,0,4.655-4.656,11,11,0,0,0,.718-3.94c0-1.789.178-2.327.178-6.624a52.875,52.875,0,0,0-.179-6.625,11.035,11.035,0,0,0-.718-3.941,6.987,6.987,0,0,0-1.791-2.863,6.977,6.977,0,0,0-2.864-1.792,11.035,11.035,0,0,0-3.939-.714,53.2,53.2,0,0,0-6.625-.18m0,7.878a8.106,8.106,0,0,0-8.238,7.97c0,.088,0,.179,0,.268a8.238,8.238,0,0,0,8.238,8.237,8.237,8.237,0,0,0,8.238-8.237,8.238,8.238,0,0,0-8.238-8.238h0m0,13.611a5.275,5.275,0,0,1-5.373-5.177v-.2a5.275,5.275,0,0,1,5.177-5.372c.067,0,.131,0,.2,0a5.276,5.276,0,0,1,5.373,5.176c0,.065,0,.131,0,.2a5.277,5.277,0,0,1-5.177,5.373c-.065,0-.129,0-.2,0m8.6-15.937a1.97,1.97,0,0,0-1.97,1.97,1.971,1.971,0,0,0,1.97,1.971,1.97,1.97,0,0,0,1.97-1.971h0a1.984,1.984,0,0,0-1.97-1.97" transform="translate(1947.868 4008.625)"/></g></g></g><path class="p" d="M1080,660Z" transform="translate(243.835 10632.235)"/><g transform="translate(1291.877 11260.073)"><g transform="translate(0)"><path class="b" d="M855.177,419.566a7.719,7.719,0,0,1,.792-.088c.347-.006.55,0,.787,0,.364,0,.571.018.935.018.182,0,.383.012.492.017.163.008.478.057.644.084s.265.063.447.1c.28.054.559.106.838.167q.809.178,1.6.42a16.713,16.713,0,0,1,3.648,1.6,14.527,14.527,0,0,1,2.986,2.357,15.355,15.355,0,0,1,2.318,3.114,19.345,19.345,0,0,1,1.64,3.853,30.115,30.115,0,0,1,.654,3.447v1.6c-.106.7-.186,1.4-.321,2.088a15.85,15.85,0,0,1-21.487,11.88,5.619,5.619,0,0,0-4.052-.207c-1.922.607-3.885,1.083-5.83,1.615H841a6.5,6.5,0,0,1,.108-.648c.59-2.188,1.152-4.385,1.8-6.556a2.419,2.419,0,0,0-.194-1.943,15.905,15.905,0,0,1,9.7-22.285c.484-.142.975-.258,1.467-.369l.754-.168C854.812,419.629,854.995,419.589,855.177,419.566Zm-10.384,28.262c1.52-.4,2.879-.738,4.224-1.122a1.626,1.626,0,0,1,1.379.158,12.634,12.634,0,0,0,8.478,1.655,13.2,13.2,0,1,0-13.153-6.227,1.7,1.7,0,0,1,.2,1.492C845.524,445.073,845.191,446.382,844.793,447.828Z" transform="translate(-841 -419.475)"/></g><path class="b" d="M911.984,498.526a11.284,11.284,0,0,1-5.058-1.719,17.3,17.3,0,0,1-6.548-7.049,4.666,4.666,0,0,1,.649-5.633,2.271,2.271,0,0,1,2.325-.553,1.291,1.291,0,0,1,.536.636,30.8,30.8,0,0,1,1.206,2.961c.109.334-.1.781-.2,1.169-.029.119-.153.215-.237.319-.911,1.128-.9,1.123-.037,2.331a10.779,10.779,0,0,0,4.694,3.726.787.787,0,0,0,1.088-.282c.318-.429.695-.815.993-1.256a.723.723,0,0,1,1.029-.284c1.045.494,2.1.978,3.12,1.51a.841.841,0,0,1,.377.62,2.925,2.925,0,0,1-1.192,2.613A4.284,4.284,0,0,1,911.984,498.526Z" transform="translate(-891.874 -474.888)"/></g></g></svg>