<svg xmlns="http://www.w3.org/2000/svg" width="28" height="21.328" viewBox="0 0 28 21.328"><defs><style>.a{fill:#fff5f5;}.b{fill:#e3e7ea;}.c{fill:#00a66c;}.d{fill:#f03800;}.e{fill:#cd0000;}.f{fill:#ff641a;}</style></defs><path class="a" d="M53.043,142.052l1.638,8.761-1.638,8.051h-21.4L30,150.99l1.638-8.938c-.542-.412,2.96-.654,5.28,1.111,2.856,2.173,4.821,6.531,5.422,6.989a9.261,9.261,0,0,1,3.462-5.126A22.2,22.2,0,0,1,53.043,142.052Z" transform="translate(-28.34 -137.536)"/><path class="b" d="M266.843,163.487l1.66-8.051-1.66-8.761a22.661,22.661,0,0,0-7.336,2.974A9.243,9.243,0,0,0,256,154.773v8.713Z" transform="translate(-242.163 -142.159)"/><g transform="translate(20.748 7.612)"><path class="c" d="M379.52,200.2l-.1.076Z" transform="translate(-379.413 -200.204)"/></g><g transform="translate(0 2.075)"><path class="d" d="M3.319,98.5v19.254H2.49A2.471,2.471,0,0,1,0,115.3V98.91a.788.788,0,0,1,.017-.2Z" transform="translate(0 -98.5)"/></g><g transform="translate(24.681 2.29)"><path class="e" d="M455.319,102.6V118.98a2.47,2.47,0,0,1-2.49,2.458H452V103.825l3.3-1.425A.793.793,0,0,1,455.319,102.6Z" transform="translate(-452 -102.4)"/></g><g transform="translate(0.017)"><path class="f" d="M28.267,63.29c-16.231,12.32,2.324-1.806-13.983,10.572C12.859,72.782,19.388,77.779.3,63.29A2.452,2.452,0,0,1,2.745,61l6.474,2.008,5.064,6.706,3.661-5.682L25.822,61A2.452,2.452,0,0,1,28.267,63.29Z" transform="translate(-0.3 -61)"/></g><path class="d" d="M256,73.863h0c1.158-.869,12.214-9.122,14.146-10.572A2.468,2.468,0,0,0,267.673,61L259.7,64.031,256,69.713Z" transform="translate(-242.163 -61)"/><path class="a" d="M68.021,61,56.51,69.713,45,61Z" transform="translate(-42.51 -61)"/><path class="b" d="M267.673,61H256v8.713Z" transform="translate(-242.163 -61)"/></svg>