<svg xmlns="http://www.w3.org/2000/svg" xmlns:xlink="http://www.w3.org/1999/xlink" width="898.068" height="735.509" viewBox="0 0 898.068 735.509"><defs><style>.a{fill:url(#a);}</style><radialGradient id="a" cx="0.5" cy="0.5" r="0.558" gradientTransform="translate(0.091) scale(0.819 1)" gradientUnits="objectBoundingBox"><stop offset="0" stop-color="#fff"/><stop offset="0.962" stop-color="#a16b1d"/><stop offset="1" stop-color="#a16b1d"/></radialGradient></defs><path class="a" d="M-2416.646-1507.909h-534.829v-372.27a360.955,360.955,0,0,1,28.546-141.389,362.036,362.036,0,0,1,77.845-115.46,362.035,362.035,0,0,1,115.459-77.844,360.964,360.964,0,0,1,141.39-28.546h534.828v372.27a360.968,360.968,0,0,1-28.546,141.39A362.059,362.059,0,0,1-2159.8-1614.3a362.016,362.016,0,0,1-115.46,77.844A360.957,360.957,0,0,1-2416.646-1507.909Zm-530.829-4h530.829a356.987,356.987,0,0,0,139.831-28.23,358.047,358.047,0,0,0,114.189-76.988,358.044,358.044,0,0,0,76.989-114.189,356.993,356.993,0,0,0,28.23-139.832v-368.27h-530.828a356.993,356.993,0,0,0-139.832,28.23,358.035,358.035,0,0,0-114.189,76.989,358.041,358.041,0,0,0-76.989,114.189,356.985,356.985,0,0,0-28.23,139.831Z" transform="translate(2951.475 2243.418)"/></svg>