<svg xmlns="http://www.w3.org/2000/svg" xmlns:xlink="http://www.w3.org/1999/xlink" width="274.009" height="109.606" viewBox="0 0 274.009 109.606"><defs><style>.a{fill:url(#a);}.b{fill:#b79c30;}</style><radialGradient id="a" cx="0.503" cy="0.506" r="1.142" gradientTransform="matrix(0.4, 0, 0, 0.417, 0.336, 0.23)" gradientUnits="objectBoundingBox"><stop offset="0.287" stop-color="#fff"/><stop offset="0.38" stop-color="#fff" stop-opacity="0.804"/><stop offset="0.507" stop-color="#fff" stop-opacity="0.561"/><stop offset="0.628" stop-color="#fff" stop-opacity="0.361"/><stop offset="0.742" stop-color="#fff" stop-opacity="0.204"/><stop offset="0.845" stop-color="#fff" stop-opacity="0.094"/><stop offset="0.934" stop-color="#fff" stop-opacity="0.024"/><stop offset="1" stop-color="#fff" stop-opacity="0"/></radialGradient></defs><g transform="translate(-66.735 3)"><path class="a" d="M910.052-87.219c0,19.186-66.435,50.866-137.857,50.866S636.043-68.034,636.043-87.219s64.727-58.74,136.152-58.74S910.052-106.407,910.052-87.219Z" transform="translate(-569.308 142.959)"/><g transform="translate(182.04 15.575)"><g transform="translate(21.843 17.665)"><path class="b" d="M1440.264,66.118c-2.437.306-3.192,2.618-5.541,4.516a15.206,15.206,0,0,1-5.3,2.622s3.992.55,11.3-3c4.934-2.4,5.157-6.566,5.157-6.566s-1.453,1.9-5.619,2.429" transform="translate(-1429.424 -63.689)"/></g><g transform="translate(6.35 17.977)"><path class="b" d="M1339.8,65.492a11.593,11.593,0,0,0,4.32,6.555,10.886,10.886,0,0,0,7.282,2.7C1347.9,67.529,1343.308,66.184,1339.8,65.492Z" transform="translate(-1339.799 -65.492)"/></g><g transform="translate(7.562 14.399)"><path class="b" d="M1347.9,47.481c.808,1.7,1.865,1.047,3.567,2.15a3.06,3.06,0,0,1,.849.853s.04-.794-1.546-3.171a6.784,6.784,0,0,0-3.956-2.52,19.6,19.6,0,0,0,1.086,2.689" transform="translate(-1346.813 -44.792)"/></g><g transform="translate(0 17.634)"><path class="b" d="M1307.09,69.409c3.985,2.642,10.82,3.654,10.82,3.654s-4.314-1.062-6.044-3.048-1.976-3.6-4.074-4.033c-3.586-.738-4.725-2.477-4.725-2.477s.04,3.259,4.023,5.9" transform="translate(-1303.066 -63.505)"/></g><g transform="translate(11.54 0)"><path class="b" d="M1379.16-38.11c-6.776,4.173-9.765,9.584-9.286,13.225.816,6.192,6.052,11.663,7.715,13.615-2.538-10.414,4.355-11.937,4.355-19.438,0-2.393-1.778-6.53-2.286-7.8-.245.194-.375.288-.5.393" transform="translate(-1369.824 38.503)"/></g><g transform="translate(19.386)"><path class="b" d="M1417.644-38.5a29.311,29.311,0,0,1,3.12,2.221,5.357,5.357,0,0,1,2.108,3.373,1.545,1.545,0,0,0,.833,1.179c.4.211.777.436,1.168.649.2.109.392.2.587.327.755.467.785.689.229,1.372a2.148,2.148,0,0,0-.24.347c-.174.347-.123.541.207.781.238.178.475.348.7.51-.14.44-.7.45-.738.954.241.07.487.139.94.26a1.75,1.75,0,0,0-.378.281c-.416.557-.386.741.148,1.153.111.088.232.16.335.258.391.375.38.692-.073.993a3.456,3.456,0,0,1-.823.376,8.848,8.848,0,0,1-1.235.324,5.176,5.176,0,0,0-2.4,1.1c-4.917,4.037-6.508,10.223-6.317,10.8-2.846-8.845,5.361-13.674,4.817-19.338A19.76,19.76,0,0,0,1417.644-38.5Z" transform="translate(-1415.209 38.503)"/></g><g transform="translate(20.928 14.987)"><path class="b" d="M1427.989,52.667a18.047,18.047,0,0,0-3.855,7.774c5.23-1.765,10.614-6.806,10.614-12.246a14.3,14.3,0,0,0-6.759,4.472" transform="translate(-1424.134 -48.195)"/></g></g></g></svg>