<svg xmlns="http://www.w3.org/2000/svg" xmlns:xlink="http://www.w3.org/1999/xlink" width="319" height="173" viewBox="0 0 319 173"><defs><style>.a{opacity:0.258;}.b{fill:#53284f;}.b,.c,.d{opacity:0.39;}.c{fill:url(#a);}.d,.g{fill:url(#b);}.e{fill:#670f5f;}.f{fill:url(#c);}.g{opacity:0.32;}.h{fill:#fff;font-size:14px;font-family:NexaBold, Nexa Bold;}</style><linearGradient id="a" x1="0.5" y1="-1.003" x2="0.929" y2="1.1" gradientUnits="objectBoundingBox"><stop offset="0" stop-color="#ee502c"/><stop offset="1" stop-color="#53284f"/></linearGradient><linearGradient id="b" x1="0.5" y1="-1.003" x2="0.05" y2="2.093" gradientUnits="objectBoundingBox"><stop offset="0" stop-color="#c919b9"/><stop offset="1" stop-color="#53284f"/></linearGradient><linearGradient id="c" x1="0.304" y1="-0.268" x2="0.558" y2="0.851" xlink:href="#a"/></defs><g transform="translate(-3555 -1228)"><g transform="translate(-732 -2563)"><g class="a" transform="translate(3909 3609)"><rect class="b" width="199" height="53" rx="24" transform="translate(438 242)"/><path class="c" d="M29.433,3.9C189.8,3.9,186.863,56.9,172.229,56.9H26.5C11.863,56.9,0,43.984,0,28.055S14.8,3.9,29.433,3.9Z" transform="translate(438 238.096)"/><path class="d" d="M149.766,3.9C-11.19,3.9-8.244,52.588,6.444,52.588H152.713a26.546,26.546,0,0,0,26.594-26.5C179.307,11.457,164.454,3.9,149.766,3.9Z" transform="translate(457.215 242.406)"/></g><g transform="translate(4353.391 3840)"><rect class="e" width="180" height="48" rx="24" transform="translate(0.609)"/><path class="f" d="M26.659,3.9c145.255,0,142.6,48,129.341,48L24.922,51.818C8.3,51.214,0,40.207,0,25.779S13.4,3.9,26.659,3.9Z" transform="translate(0.609 -3.904)"/><path class="g" d="M184.825,3.9C106.775,3.9,48.2,4.532,28.8,11.877,24.419,27.651,37.321,40.3,49.409,42.46l131.3,4.157c18.077,0,31.138-14.134,26.88-27.891S202.9,3.9,184.825,3.9Z" transform="matrix(0.999, -0.035, 0.035, 0.999, -28.045, 7.935)"/></g><text class="h" transform="translate(4445.621 3869)"><tspan x="-34.153" y="0">REGISTER</tspan></text></g></g></svg>