<svg xmlns="http://www.w3.org/2000/svg" xmlns:xlink="http://www.w3.org/1999/xlink" width="16.76" height="16.76" viewBox="0 0 16.76 16.76"><defs><style>.a{fill:none;}.b{clip-path:url(#a);}.c{fill:#e86b25;fill-rule:evenodd;}</style><clipPath id="a"><rect class="a" width="16.76" height="16.76"/></clipPath></defs><g class="b"><g transform="translate(-0.018 -0.017)"><path class="c" d="M-1939.47-4007.119a25.683,25.683,0,0,1,3.352.094,4.312,4.312,0,0,1,1.583.279,3.265,3.265,0,0,1,1.583,1.583,4.3,4.3,0,0,1,.28,1.583c0,.838.094,1.117.094,3.352a25.574,25.574,0,0,1-.094,3.353,4.3,4.3,0,0,1-.28,1.583,3.267,3.267,0,0,1-1.583,1.583,4.312,4.312,0,0,1-1.583.28c-.838,0-1.118.093-3.352.093a25.7,25.7,0,0,1-3.352-.093,4.317,4.317,0,0,1-1.583-.28,3.27,3.27,0,0,1-1.583-1.583,4.324,4.324,0,0,1-.28-1.583c0-.838-.093-1.118-.093-3.353a25.73,25.73,0,0,1,.093-3.352,4.325,4.325,0,0,1,.28-1.583,3.36,3.36,0,0,1,.652-.931,1.572,1.572,0,0,1,.931-.651,4.316,4.316,0,0,1,1.583-.279,25.7,25.7,0,0,1,3.352-.094m0-1.489a27.7,27.7,0,0,0-3.445.093,5.753,5.753,0,0,0-2.048.372,3.646,3.646,0,0,0-1.49.932,3.648,3.648,0,0,0-.932,1.49,4.239,4.239,0,0,0-.372,2.048,27.589,27.589,0,0,0-.093,3.445,27.594,27.594,0,0,0,.093,3.445,5.758,5.758,0,0,0,.373,2.049,3.648,3.648,0,0,0,.931,1.489,3.649,3.649,0,0,0,1.49.931,5.739,5.739,0,0,0,2.049.373,27.674,27.674,0,0,0,3.444.093,27.594,27.594,0,0,0,3.445-.094,5.759,5.759,0,0,0,2.049-.373,3.906,3.906,0,0,0,2.421-2.421,5.721,5.721,0,0,0,.373-2.049c0-.93.093-1.21.093-3.444a27.5,27.5,0,0,0-.093-3.445,5.738,5.738,0,0,0-.373-2.049,3.634,3.634,0,0,0-.931-1.489,3.629,3.629,0,0,0-1.489-.932,5.749,5.749,0,0,0-2.048-.372,27.688,27.688,0,0,0-3.445-.093m0,4.1a4.214,4.214,0,0,0-4.283,4.144c0,.046,0,.093,0,.139a4.283,4.283,0,0,0,4.283,4.283,4.283,4.283,0,0,0,4.283-4.283,4.283,4.283,0,0,0-4.283-4.283h0m0,7.077a2.743,2.743,0,0,1-2.794-2.692v-.1a2.743,2.743,0,0,1,2.692-2.793c.035,0,.068,0,.1,0a2.743,2.743,0,0,1,2.794,2.691c0,.034,0,.068,0,.1a2.744,2.744,0,0,1-2.692,2.794h-.1m4.47-8.287a1.024,1.024,0,0,0-1.025,1.024,1.024,1.024,0,0,0,1.025,1.024,1.024,1.024,0,0,0,1.024-1.024h0a1.032,1.032,0,0,0-1.024-1.024" transform="translate(1947.867 4008.625)"/></g></g></svg>