<svg xmlns="http://www.w3.org/2000/svg" xmlns:xlink="http://www.w3.org/1999/xlink" width="28.03" height="28.029" viewBox="0 0 28.03 28.029"><defs><style>.a{fill:url(#a);}.b{fill:url(#b);}.c{fill:url(#c);}</style><linearGradient id="a" x1="0.084" y1="0.916" x2="0.916" y2="0.084" gradientUnits="objectBoundingBox"><stop offset="0" stop-color="#ffd600"/><stop offset="0.5" stop-color="#ff0100"/><stop offset="1" stop-color="#d800b9"/></linearGradient><linearGradient id="b" x1="0.146" y1="0.854" x2="0.854" y2="0.146" gradientUnits="objectBoundingBox"><stop offset="0" stop-color="#ff6400"/><stop offset="0.5" stop-color="#ff0100"/><stop offset="1" stop-color="#fd0056"/></linearGradient><linearGradient id="c" x1="0.146" y1="0.854" x2="0.854" y2="0.146" gradientUnits="objectBoundingBox"><stop offset="0" stop-color="#f30072"/><stop offset="1" stop-color="#e50097"/></linearGradient></defs><path class="a" d="M27.945,8.236a10.289,10.289,0,0,0-.652-3.4,6.869,6.869,0,0,0-1.616-2.482A6.871,6.871,0,0,0,23.195.735a10.287,10.287,0,0,0-3.4-.651C18.3.016,17.821,0,14.015,0S9.731.016,8.236.084a10.29,10.29,0,0,0-3.4.652A6.869,6.869,0,0,0,2.352,2.352,6.87,6.87,0,0,0,.735,4.834a10.288,10.288,0,0,0-.651,3.4C.016,9.731,0,10.208,0,14.014S.016,18.3.084,19.793a10.286,10.286,0,0,0,.651,3.4,6.868,6.868,0,0,0,1.616,2.482,6.867,6.867,0,0,0,2.482,1.616,10.283,10.283,0,0,0,3.4.652c1.495.068,1.972.084,5.778.084s4.284-.016,5.778-.084a10.285,10.285,0,0,0,3.4-.652,7.165,7.165,0,0,0,4.1-4.1,10.286,10.286,0,0,0,.652-3.4c.068-1.495.084-1.972.084-5.778s-.016-4.284-.084-5.778ZM25.422,19.678a7.754,7.754,0,0,1-.482,2.6,4.641,4.641,0,0,1-2.66,2.66,7.754,7.754,0,0,1-2.6.482c-1.477.068-1.921.082-5.663.082s-4.186-.014-5.663-.082a7.757,7.757,0,0,1-2.6-.482,4.343,4.343,0,0,1-1.611-1.048A4.341,4.341,0,0,1,3.089,22.28a7.754,7.754,0,0,1-.482-2.6c-.067-1.478-.082-1.921-.082-5.663s.014-4.185.082-5.663a7.76,7.76,0,0,1,.482-2.6A4.345,4.345,0,0,1,4.138,4.138,4.339,4.339,0,0,1,5.749,3.089a7.753,7.753,0,0,1,2.6-.483c1.478-.067,1.921-.082,5.663-.082h0c3.742,0,4.185.014,5.663.082a7.755,7.755,0,0,1,2.6.482,4.345,4.345,0,0,1,1.611,1.048A4.339,4.339,0,0,1,24.94,5.749a7.747,7.747,0,0,1,.483,2.6c.067,1.478.082,1.921.082,5.663S25.49,18.2,25.422,19.678Zm0,0" transform="translate(0 0)"/><path class="b" d="M131.023,124.539a6.484,6.484,0,1,0,6.484,6.484A6.484,6.484,0,0,0,131.023,124.539Zm0,10.693a4.209,4.209,0,1,1,4.209-4.209A4.209,4.209,0,0,1,131.023,135.232Zm0,0" transform="translate(-117.008 -117.008)"/><path class="c" d="M365.99,90.656a2.03,2.03,0,1,1-2.03-2.031A2.03,2.03,0,0,1,365.99,90.656Zm0,0" transform="translate(-342.676 -83.911)"/></svg>