<svg xmlns="http://www.w3.org/2000/svg" xmlns:xlink="http://www.w3.org/1999/xlink" width="20" height="20" viewBox="0 0 20 20"><defs><style>.a,.c{fill:#fff;}.b{clip-path:url(#a);}.c{fill-rule:evenodd;}</style><clipPath id="a"><rect class="a" width="20" height="20"/></clipPath></defs><g class="b"><g transform="translate(-0.021 -0.021)"><path class="c" d="M-1937.846-4006.828a31.04,31.04,0,0,1,4,.113,5.2,5.2,0,0,1,1.891.332,3.886,3.886,0,0,1,1.887,1.891,5.1,5.1,0,0,1,.334,1.887c0,1,.111,1.332.111,4a30.057,30.057,0,0,1-.111,4,5.1,5.1,0,0,1-.334,1.887,3.886,3.886,0,0,1-1.887,1.891,5.118,5.118,0,0,1-1.891.332c-1,0-1.332.113-4,.113a30.421,30.421,0,0,1-4-.113,5.115,5.115,0,0,1-1.889-.332,3.89,3.89,0,0,1-1.889-1.891,5.138,5.138,0,0,1-.332-1.887c0-1-.111-1.332-.111-4a30.39,30.39,0,0,1,.111-4,5.138,5.138,0,0,1,.332-1.887,4.021,4.021,0,0,1,.777-1.113,1.866,1.866,0,0,1,1.111-.777,5.2,5.2,0,0,1,1.889-.332,31.11,31.11,0,0,1,4-.113m0-1.777a32.093,32.093,0,0,0-4.111.113,6.793,6.793,0,0,0-2.445.445,4.282,4.282,0,0,0-1.777,1.109,4.346,4.346,0,0,0-1.113,1.777,5.054,5.054,0,0,0-.441,2.441,32.493,32.493,0,0,0-.111,4.113,32.493,32.493,0,0,0,.111,4.113,6.892,6.892,0,0,0,.443,2.445,4.393,4.393,0,0,0,1.111,1.777,4.354,4.354,0,0,0,1.777,1.105,6.722,6.722,0,0,0,2.445.449,32.819,32.819,0,0,0,4.111.109,32.073,32.073,0,0,0,4.109-.113,6.793,6.793,0,0,0,2.445-.445,4.645,4.645,0,0,0,2.889-2.887,6.788,6.788,0,0,0,.445-2.441c0-1.113.111-1.445.111-4.113a33.238,33.238,0,0,0-.111-4.113,6.867,6.867,0,0,0-.445-2.445,4.337,4.337,0,0,0-1.113-1.773,4.257,4.257,0,0,0-1.777-1.109,6.775,6.775,0,0,0-2.443-.445,32.073,32.073,0,0,0-4.109-.113m0,4.887a5.031,5.031,0,0,0-5.111,4.945,1.205,1.205,0,0,0,0,.168,5.108,5.108,0,0,0,5.111,5.109,5.109,5.109,0,0,0,5.111-5.109,5.113,5.113,0,0,0-5.111-5.113h0m0,8.449a3.273,3.273,0,0,1-3.334-3.215v-.121a3.267,3.267,0,0,1,3.211-3.332.647.647,0,0,1,.123,0,3.273,3.273,0,0,1,3.334,3.211v.121a3.279,3.279,0,0,1-3.215,3.336h-.119m5.332-9.891a1.223,1.223,0,0,0-1.223,1.223,1.223,1.223,0,0,0,1.223,1.223,1.222,1.222,0,0,0,1.223-1.223h0a1.232,1.232,0,0,0-1.223-1.223" transform="translate(1947.867 4008.627)"/></g></g></svg>