<svg xmlns="http://www.w3.org/2000/svg" xmlns:xlink="http://www.w3.org/1999/xlink" width="1922" height="173" viewBox="0 0 1922 173"><defs><style>.a{fill:none;}.b,.k,.s{fill:#fff;}.b{opacity:0.265;}.c,.h,.j{fill:#e86b25;}.c,.s{font-size:14px;font-family:NexaBold, Nexa Bold;}.d{fill:#b79c30;}.e{fill:url(#a);}.f{fill:#53294f;}.g{clip-path:url(#b);}.h{fill-rule:evenodd;}.i{clip-path:url(#c);}.l{opacity:0.258;}.m{fill:#53284f;}.m,.n,.o{opacity:0.39;}.n{fill:url(#d);}.o,.r{fill:url(#e);}.p{fill:#670f5f;}.q{fill:url(#f);}.r{opacity:0.32;}</style><radialGradient id="a" cx="0.503" cy="0.506" r="1.142" gradientTransform="matrix(0.4, 0, 0, 0.417, 0.336, 0.23)" gradientUnits="objectBoundingBox"><stop offset="0.287" stop-color="#fff"/><stop offset="0.38" stop-color="#fff" stop-opacity="0.804"/><stop offset="0.507" stop-color="#fff" stop-opacity="0.561"/><stop offset="0.628" stop-color="#fff" stop-opacity="0.361"/><stop offset="0.742" stop-color="#fff" stop-opacity="0.204"/><stop offset="0.845" stop-color="#fff" stop-opacity="0.094"/><stop offset="0.934" stop-color="#fff" stop-opacity="0.024"/><stop offset="1" stop-color="#fff" stop-opacity="0"/></radialGradient><clipPath id="b"><rect class="a" width="16.76" height="16.761"/></clipPath><clipPath id="c"><rect class="a" width="16.76" height="16.76"/></clipPath><linearGradient id="d" x1="0.5" y1="-1.003" x2="0.929" y2="1.1" gradientUnits="objectBoundingBox"><stop offset="0" stop-color="#ee502c"/><stop offset="1" stop-color="#53284f"/></linearGradient><linearGradient id="e" x1="0.5" y1="-1.003" x2="0.05" y2="2.093" gradientUnits="objectBoundingBox"><stop offset="0" stop-color="#c919b9"/><stop offset="1" stop-color="#53284f"/></linearGradient><linearGradient id="f" x1="0.304" y1="-0.268" x2="0.558" y2="0.851" xlink:href="#d"/></defs><g transform="translate(0 25)"><path class="b" d="M0,0H1922V91H0Z" transform="translate(0 2)"/><g transform="translate(1553 46)"><text class="c" transform="translate(-1.919 8)"><tspan x="-22.743" y="0">LOG IN</tspan></text><text class="c" transform="translate(-143.333 8)"><tspan x="-23.079" y="0">TOP 15</tspan></text><text class="c" transform="translate(-278 8)"><tspan x="-19.145" y="0">VOTE</tspan></text></g><g transform="translate(66.735)"><path class="d" d="M1155.035,264H1010.55l.045-1.237H1155.08Z" transform="translate(-945.811 -192.108)"/><g transform="translate(-66.735 3)"><path class="e" d="M910.052-87.219c0,19.186-66.435,50.866-137.857,50.866S636.043-68.034,636.043-87.219s64.727-58.74,136.152-58.74S910.052-106.407,910.052-87.219Z" transform="translate(-569.308 142.959)"/><g transform="translate(182.04 15.575)"><g transform="translate(21.843 17.665)"><path class="d" d="M1440.264,66.118c-2.437.306-3.192,2.618-5.541,4.516a15.206,15.206,0,0,1-5.3,2.622s3.992.55,11.3-3c4.934-2.4,5.157-6.566,5.157-6.566s-1.453,1.9-5.619,2.429" transform="translate(-1429.424 -63.689)"/></g><g transform="translate(6.35 17.977)"><path class="d" d="M1339.8,65.492a11.593,11.593,0,0,0,4.32,6.555,10.886,10.886,0,0,0,7.282,2.7C1347.9,67.529,1343.308,66.184,1339.8,65.492Z" transform="translate(-1339.799 -65.492)"/></g><g transform="translate(7.562 14.399)"><path class="d" d="M1347.9,47.481c.808,1.7,1.865,1.047,3.567,2.15a3.06,3.06,0,0,1,.849.853s.04-.794-1.546-3.171a6.784,6.784,0,0,0-3.956-2.52,19.6,19.6,0,0,0,1.086,2.689" transform="translate(-1346.813 -44.792)"/></g><g transform="translate(0 17.634)"><path class="d" d="M1307.09,69.409c3.985,2.642,10.82,3.654,10.82,3.654s-4.314-1.062-6.044-3.048-1.976-3.6-4.074-4.033c-3.586-.738-4.725-2.477-4.725-2.477s.04,3.259,4.023,5.9" transform="translate(-1303.066 -63.505)"/></g><g transform="translate(11.54 0)"><path class="d" d="M1379.16-38.11c-6.776,4.173-9.765,9.584-9.286,13.225.816,6.192,6.052,11.663,7.715,13.615-2.538-10.414,4.355-11.937,4.355-19.438,0-2.393-1.778-6.53-2.286-7.8-.245.194-.375.288-.5.393" transform="translate(-1369.824 38.503)"/></g><g transform="translate(19.386)"><path class="d" d="M1417.644-38.5a29.311,29.311,0,0,1,3.12,2.221,5.357,5.357,0,0,1,2.108,3.373,1.545,1.545,0,0,0,.833,1.179c.4.211.777.436,1.168.649.2.109.392.2.587.327.755.467.785.689.229,1.372a2.148,2.148,0,0,0-.24.347c-.174.347-.123.541.207.781.238.178.475.348.7.51-.14.44-.7.45-.738.954.241.07.487.139.94.26a1.75,1.75,0,0,0-.378.281c-.416.557-.386.741.148,1.153.111.088.232.16.335.258.391.375.38.692-.073.993a3.456,3.456,0,0,1-.823.376,8.848,8.848,0,0,1-1.235.324,5.176,5.176,0,0,0-2.4,1.1c-4.917,4.037-6.508,10.223-6.317,10.8-2.846-8.845,5.361-13.674,4.817-19.338A19.76,19.76,0,0,0,1417.644-38.5Z" transform="translate(-1415.209 38.503)"/></g><g transform="translate(20.928 14.987)"><path class="d" d="M1427.989,52.667a18.047,18.047,0,0,0-3.855,7.774c5.23-1.765,10.614-6.806,10.614-12.246a14.3,14.3,0,0,0-6.759,4.472" transform="translate(-1424.134 -48.195)"/></g></g></g><g transform="translate(67.259 43.442)"><path class="f" d="M1034.3,128.7a7.006,7.006,0,0,0,1.834-.246,5.384,5.384,0,0,0,1.628-.714,3.816,3.816,0,0,0,1.153-1.165,2.931,2.931,0,0,0,.436-1.6,3.318,3.318,0,0,0-.6-1.946,6.913,6.913,0,0,0-1.56-1.557,15.862,15.862,0,0,0-2.2-1.336c-.826-.417-1.666-.836-2.527-1.253s-1.7-.857-2.522-1.318a12.176,12.176,0,0,1-2.2-1.542,7.371,7.371,0,0,1-1.563-1.9,4.819,4.819,0,0,1-.594-2.41,5.963,5.963,0,0,1,.536-2.529,5.659,5.659,0,0,1,1.581-2.013,7.62,7.62,0,0,1,2.561-1.337,11.611,11.611,0,0,1,3.491-.485,12.825,12.825,0,0,1,3.176.359,8.058,8.058,0,0,1,2.459,1.058,7.02,7.02,0,0,1,1.8,1.719,8.952,8.952,0,0,1,1.189,2.367l-2.155.932a9.389,9.389,0,0,0-.964-2,6.427,6.427,0,0,0-1.4-1.548,6.011,6.011,0,0,0-1.881-1,7.733,7.733,0,0,0-2.411-.349,6.182,6.182,0,0,0-2.081.315,4.563,4.563,0,0,0-1.486.822,3.354,3.354,0,0,0-.888,1.147,3.054,3.054,0,0,0-.291,1.3,2.725,2.725,0,0,0,.6,1.715,7.12,7.12,0,0,0,1.609,1.469,19.679,19.679,0,0,0,2.278,1.336c.851.429,1.718.868,2.6,1.307s1.75.9,2.6,1.381a14.448,14.448,0,0,1,2.278,1.565,7.53,7.53,0,0,1,1.608,1.867,4.32,4.32,0,0,1,.607,2.265,6.362,6.362,0,0,1-.567,2.662,6,6,0,0,1-1.7,2.167,8.435,8.435,0,0,1-2.819,1.461,14.316,14.316,0,0,1-7.149.163,8.561,8.561,0,0,1-2.506-1.092,7.487,7.487,0,0,1-1.861-1.749,9.223,9.223,0,0,1-1.269-2.355l2.253-.882a7.636,7.636,0,0,0,1.067,2.08,6.852,6.852,0,0,0,3.538,2.526A7.736,7.736,0,0,0,1034.3,128.7Z" transform="translate(-1025.124 -105.345)"/><path class="f" d="M1139,134.016l9.4,19.811h-3.421l-3.047-6.759h-8.576l-3.151,6.759h-1.688l9.63-19.811Zm-5.055,11.826h7.376l-3.635-7.5Z" transform="translate(-1110.651 -129.06)"/><path class="f" d="M1254.862,133.974h1.885l13.1,13.852H1270V133.974h1.477v19.818h-.785L1256.5,137.959h-.12v15.833h-1.523Z" transform="translate(-1215.148 -129.025)"/><path class="f" d="M1380.1,134.016v1.224h-7.24v18.587h-3.36V135.24h-7.238v-1.224Z" transform="translate(-1303.985 -129.06)"/><path class="f" d="M1469.566,153.827a11.862,11.862,0,0,1-4.332-.786,11.038,11.038,0,0,1-3.5-2.149,10.1,10.1,0,0,1-2.337-3.185,9.091,9.091,0,0,1-.85-3.894,8.881,8.881,0,0,1,.383-2.616,9.225,9.225,0,0,1,1.093-2.341,9.831,9.831,0,0,1,1.711-1.978,11.177,11.177,0,0,1,2.222-1.532,11.9,11.9,0,0,1,2.64-.981,12.781,12.781,0,0,1,5.937,0,12.027,12.027,0,0,1,2.65.981,10.874,10.874,0,0,1,2.223,1.532,10.25,10.25,0,0,1,1.711,1.978,9.069,9.069,0,0,1,1.1,2.341,8.875,8.875,0,0,1,.385,2.616,9.125,9.125,0,0,1-.385,2.651,9.45,9.45,0,0,1-1.1,2.392,10.5,10.5,0,0,1-1.711,2.027,10.9,10.9,0,0,1-2.223,1.575,11.745,11.745,0,0,1-2.65,1.012A12.114,12.114,0,0,1,1469.566,153.827Zm0-.945a6.584,6.584,0,0,0,3.042-.678,6.369,6.369,0,0,0,2.22-1.893,8.665,8.665,0,0,0,1.367-2.871,13.632,13.632,0,0,0,.461-3.628,13.277,13.277,0,0,0-.461-3.585,8.321,8.321,0,0,0-1.367-2.807,6.249,6.249,0,0,0-2.22-1.826,7.486,7.486,0,0,0-6.105,0,6.164,6.164,0,0,0-2.22,1.826,8.238,8.238,0,0,0-1.347,2.807,13.373,13.373,0,0,0-.453,3.585,13.73,13.73,0,0,0,.453,3.628,8.579,8.579,0,0,0,1.347,2.871,6.282,6.282,0,0,0,2.22,1.893A6.613,6.613,0,0,0,1469.566,152.882Z" transform="translate(-1383.626 -129.06)"/><path class="f" d="M1608.769,153.827a11.887,11.887,0,0,1-4.339-.786,11.02,11.02,0,0,1-3.494-2.149,10.18,10.18,0,0,1-2.337-3.185,9.1,9.1,0,0,1-.853-3.894,8.885,8.885,0,0,1,.388-2.616,9.28,9.28,0,0,1,1.087-2.341,9.843,9.843,0,0,1,1.714-1.978,10.948,10.948,0,0,1,2.225-1.532,11.8,11.8,0,0,1,2.636-.981,12.791,12.791,0,0,1,5.939,0,12.014,12.014,0,0,1,2.645.981,10.82,10.82,0,0,1,2.225,1.532,10.229,10.229,0,0,1,1.711,1.978,8.886,8.886,0,0,1,1.482,4.956,9.23,9.23,0,0,1-.38,2.651,9.367,9.367,0,0,1-1.1,2.392,10.475,10.475,0,0,1-1.711,2.027,10.843,10.843,0,0,1-2.225,1.575,11.732,11.732,0,0,1-2.645,1.012A12.131,12.131,0,0,1,1608.769,153.827Zm0-.945a6.559,6.559,0,0,0,3.036-.678,6.4,6.4,0,0,0,2.225-1.893,8.581,8.581,0,0,0,1.365-2.871,13.61,13.61,0,0,0,.458-3.628,13.256,13.256,0,0,0-.458-3.585,8.242,8.242,0,0,0-1.365-2.807,6.282,6.282,0,0,0-2.225-1.826,6.8,6.8,0,0,0-3.036-.651,6.883,6.883,0,0,0-3.069.651,6.2,6.2,0,0,0-2.214,1.826,8.271,8.271,0,0,0-1.353,2.807,13.363,13.363,0,0,0-.453,3.585,13.72,13.72,0,0,0,.453,3.628,8.614,8.614,0,0,0,1.353,2.871,6.317,6.317,0,0,0,2.214,1.893A6.644,6.644,0,0,0,1608.769,152.882Z" transform="translate(-1498.761 -129.06)"/><path class="f" d="M1736.637,134.25h6.935a12.175,12.175,0,0,1,3.153.365,6.811,6.811,0,0,1,2.261,1.02,4.42,4.42,0,0,1,1.365,1.565,4.367,4.367,0,0,1,.458,1.979,3.9,3.9,0,0,1-.355,1.657,4.672,4.672,0,0,1-.992,1.392,6.267,6.267,0,0,1-1.546,1.073,9.313,9.313,0,0,1-1.988.705l7.28,10.014H1749.3l-6.947-9.728H1740v9.728h-3.365Zm3.365,9.087h1.944a7.206,7.206,0,0,0,2.087-.288,5.338,5.338,0,0,0,1.661-.807,3.72,3.72,0,0,0,1.09-1.265,3.491,3.491,0,0,0,.391-1.67,3.923,3.923,0,0,0-.307-1.573,3.529,3.529,0,0,0-.875-1.22,4.08,4.08,0,0,0-1.344-.793,4.829,4.829,0,0,0-1.695-.288H1740Z" transform="translate(-1613.641 -129.253)"/></g></g><g transform="translate(372.512 43)"><g class="g"><g transform="translate(0 -0.007)"><rect class="a" width="16.76" height="16.76" transform="translate(0 0.007)"/><path class="h" d="M-1850.171-3991.849v-7.635h2.607l.373-2.979h-2.98v-1.862c0-.838.28-1.49,1.49-1.49h1.583v-2.7c-.372,0-1.3-.093-2.328-.093a3.593,3.593,0,0,0-3.823,3.349,3.594,3.594,0,0,0,.006.562v2.235h-2.607v2.979h2.607v7.635Z" transform="translate(1860.041 4008.616)"/></g></g></g><g transform="translate(417.333 43.001)"><g class="i"><g transform="translate(-0.018 -0.017)"><path class="h" d="M-1939.47-4007.119a25.683,25.683,0,0,1,3.352.094,4.312,4.312,0,0,1,1.583.279,3.265,3.265,0,0,1,1.583,1.583,4.3,4.3,0,0,1,.28,1.583c0,.838.094,1.117.094,3.352a25.574,25.574,0,0,1-.094,3.353,4.3,4.3,0,0,1-.28,1.583,3.267,3.267,0,0,1-1.583,1.583,4.312,4.312,0,0,1-1.583.28c-.838,0-1.118.093-3.352.093a25.7,25.7,0,0,1-3.352-.093,4.317,4.317,0,0,1-1.583-.28,3.27,3.27,0,0,1-1.583-1.583,4.324,4.324,0,0,1-.28-1.583c0-.838-.093-1.118-.093-3.353a25.73,25.73,0,0,1,.093-3.352,4.325,4.325,0,0,1,.28-1.583,3.36,3.36,0,0,1,.652-.931,1.572,1.572,0,0,1,.931-.651,4.316,4.316,0,0,1,1.583-.279,25.7,25.7,0,0,1,3.352-.094m0-1.489a27.7,27.7,0,0,0-3.445.093,5.753,5.753,0,0,0-2.048.372,3.646,3.646,0,0,0-1.49.932,3.648,3.648,0,0,0-.932,1.49,4.239,4.239,0,0,0-.372,2.048,27.589,27.589,0,0,0-.093,3.445,27.594,27.594,0,0,0,.093,3.445,5.758,5.758,0,0,0,.373,2.049,3.648,3.648,0,0,0,.931,1.489,3.649,3.649,0,0,0,1.49.931,5.739,5.739,0,0,0,2.049.373,27.674,27.674,0,0,0,3.444.093,27.594,27.594,0,0,0,3.445-.094,5.759,5.759,0,0,0,2.049-.373,3.906,3.906,0,0,0,2.421-2.421,5.721,5.721,0,0,0,.373-2.049c0-.93.093-1.21.093-3.444a27.5,27.5,0,0,0-.093-3.445,5.738,5.738,0,0,0-.373-2.049,3.634,3.634,0,0,0-.931-1.489,3.629,3.629,0,0,0-1.489-.932,5.749,5.749,0,0,0-2.048-.372,27.688,27.688,0,0,0-3.445-.093m0,4.1a4.214,4.214,0,0,0-4.283,4.144c0,.046,0,.093,0,.139a4.283,4.283,0,0,0,4.283,4.283,4.283,4.283,0,0,0,4.283-4.283,4.283,4.283,0,0,0-4.283-4.283h0m0,7.077a2.743,2.743,0,0,1-2.794-2.692v-.1a2.743,2.743,0,0,1,2.692-2.793c.035,0,.068,0,.1,0a2.743,2.743,0,0,1,2.794,2.691c0,.034,0,.068,0,.1a2.744,2.744,0,0,1-2.692,2.794h-.1m4.47-8.287a1.024,1.024,0,0,0-1.025,1.024,1.024,1.024,0,0,0,1.025,1.024,1.024,1.024,0,0,0,1.024-1.024h0a1.032,1.032,0,0,0-1.024-1.024" transform="translate(1947.867 4008.625)"/></g></g></g><g transform="translate(464.734 43.038)"><path class="j" d="M848.371,419.522a4.012,4.012,0,0,1,.412-.046c.18,0,.286,0,.409,0,.189,0,.3.009.486.009.095,0,.2.006.256.009.085,0,.249.029.335.044s.138.033.232.051c.145.028.291.055.436.087q.421.092.833.219a8.69,8.69,0,0,1,1.9.833,7.552,7.552,0,0,1,1.553,1.226,7.986,7.986,0,0,1,1.206,1.619,10.066,10.066,0,0,1,.852,2,15.645,15.645,0,0,1,.34,1.792v.834c-.055.362-.1.727-.167,1.086a8.241,8.241,0,0,1-11.172,6.177,2.922,2.922,0,0,0-2.107-.107c-1,.316-2.02.563-3.032.84H841a3.345,3.345,0,0,1,.056-.337c.307-1.138.6-2.28.936-3.409a1.258,1.258,0,0,0-.1-1.01,8.27,8.27,0,0,1,5.044-11.587c.252-.074.507-.134.763-.192l.392-.087C848.182,419.555,848.277,419.534,848.371,419.522Zm-5.4,14.7c.79-.208,1.5-.384,2.2-.583a.846.846,0,0,1,.717.082,6.569,6.569,0,0,0,4.408.86,6.865,6.865,0,1,0-6.839-3.238.882.882,0,0,1,.1.776C843.352,432.785,843.179,433.465,842.972,434.217Z" transform="translate(-841 -419.475)"/><path class="k" d="M1080,660Z" transform="translate(-1063.383 -643.277)"/><path class="j" d="M906.1,491.285a5.867,5.867,0,0,1-2.63-.894,9,9,0,0,1-3.4-3.665,2.426,2.426,0,0,1,.337-2.929,1.181,1.181,0,0,1,1.209-.288.671.671,0,0,1,.279.33,16.019,16.019,0,0,1,.627,1.54c.057.174-.054.406-.1.608-.015.062-.08.112-.123.166-.474.587-.47.584-.019,1.212a5.605,5.605,0,0,0,2.441,1.937.409.409,0,0,0,.566-.146c.165-.223.361-.424.516-.653a.376.376,0,0,1,.535-.148c.543.257,1.089.508,1.622.785a.437.437,0,0,1,.2.322,1.521,1.521,0,0,1-.62,1.359A2.227,2.227,0,0,1,906.1,491.285Z" transform="translate(-895.643 -478.995)"/></g><g transform="translate(-1985 -1253)"><g transform="translate(-732 -2563)"><g class="l" transform="translate(3909 3609)"><rect class="m" width="199" height="53" rx="24" transform="translate(438 242)"/><path class="n" d="M29.433,3.9C189.8,3.9,186.863,56.9,172.229,56.9H26.5C11.863,56.9,0,43.984,0,28.055S14.8,3.9,29.433,3.9Z" transform="translate(438 238.096)"/><path class="o" d="M149.766,3.9C-11.19,3.9-8.244,52.588,6.444,52.588H152.713a26.546,26.546,0,0,0,26.594-26.5C179.307,11.457,164.454,3.9,149.766,3.9Z" transform="translate(457.215 242.406)"/></g><g transform="translate(4353.391 3840)"><rect class="p" width="180" height="48" rx="24" transform="translate(0.609)"/><path class="q" d="M26.659,3.9c145.255,0,142.6,48,129.341,48L24.922,51.818C8.3,51.214,0,40.207,0,25.779S13.4,3.9,26.659,3.9Z" transform="translate(0.609 -3.904)"/><path class="r" d="M184.825,3.9C106.775,3.9,48.2,4.532,28.8,11.877,24.419,27.651,37.321,40.3,49.409,42.46l131.3,4.157c18.077,0,31.138-14.134,26.88-27.891S202.9,3.9,184.825,3.9Z" transform="matrix(0.999, -0.035, 0.035, 0.999, -28.045, 7.935)"/></g><text class="s" transform="translate(4445.621 3869)"><tspan x="-34.153" y="0">REGISTER</tspan></text></g></g></g></svg>