<svg xmlns="http://www.w3.org/2000/svg" xmlns:xlink="http://www.w3.org/1999/xlink" width="541" height="527.657" viewBox="0 0 541 527.657"><defs><style>.a{fill:#53284f;stroke:#707070;}.b{fill:#fcb745;font-size:57px;font-family:NexaLight, Nexa Light;}.c{font-family:NexaBold, Nexa Bold;}.d{fill:#fff;}.e{fill:url(#a);}.f{fill:#b18a00;}.g{fill:#3e1d3e;}.h,.j{fill:none;}.h{stroke:#e86b25;stroke-width:2px;}.i{stroke:none;}</style><radialGradient id="a" cx="0.503" cy="0.506" r="1.142" gradientTransform="matrix(0.4, 0, 0, 0.417, 0.488, 0.23)" gradientUnits="objectBoundingBox"><stop offset="0.287" stop-color="#fff"/><stop offset="0.38" stop-color="#fff" stop-opacity="0.804"/><stop offset="0.507" stop-color="#fff" stop-opacity="0.561"/><stop offset="0.628" stop-color="#fff" stop-opacity="0.361"/><stop offset="0.742" stop-color="#fff" stop-opacity="0.204"/><stop offset="0.845" stop-color="#fff" stop-opacity="0.094"/><stop offset="0.934" stop-color="#fff" stop-opacity="0.024"/><stop offset="1" stop-color="#fff" stop-opacity="0"/></radialGradient></defs><g transform="translate(-4865 -8428)"><g transform="translate(-678.917 -1501.343)"><g class="a" transform="translate(5543.917 9929.343)"><rect class="i" width="541" height="527.657"/><rect class="j" x="0.5" y="0.5" width="540" height="526.657"/></g><text class="b" transform="translate(5814.917 10315)"><tspan x="-125.201" y="0">2nd Prize</tspan><tspan class="c"><tspan x="-151.677" y="68">Rs. 40,000</tspan></tspan></text><g transform="translate(5751.044 10091.254)"><path class="d" d="M351.576,420.51q2.244.77,2.327-.737h.67l.435,7.117-.67.067q-1.642-6.614-8.105-6.615-3.617.017-5.978,3.584a14.68,14.68,0,0,0-2.261,8.289q0,11.4,8.675,11.4,5.927,0,8.389-4.789l.637.184q-2.378,5.51-9.244,5.51a14.591,14.591,0,0,1-7.083-1.624,11.838,11.838,0,0,1-4.588-4.471,12.029,12.029,0,0,1-1.675-6.213,13.069,13.069,0,0,1,1.591-6.4,12,12,0,0,1,4.672-4.622,13.835,13.835,0,0,1,6.983-1.758A16.912,16.912,0,0,1,351.576,420.51Z" transform="translate(-333.105 -419.438)"/><path class="d" d="M407.71,420.259l.368,5.811-.653.1Q407.073,421,401.614,421H395.5v10.148h3.1q3.567,0,3.567-3.651h.653v8.122h-.653q0-3.718-3.567-3.718h-3.1v7.988q0,4.086,5.493,4.086,7.686,0,8.038-6.347l.6.05-.419,6.95H388.184v-.67q3.047-.067,3.048-3.031v-16.93q.016-3.115-3.048-3.065v-.67Z" transform="translate(-364.589 -419.907)"/><path class="d" d="M449.127,420.259a3.039,3.039,0,0,0,.837,1.607q3.349,4.974,11.1,15.273V423.993q0-3.064-3.064-3.065v-.67h6.849v.7q-3.014-.033-3.014,3.031v20.631h-1.289l-16.143-21.7v17.968Q444.387,444,447.435,444v.619H440.6v-.653q2.98,0,3-3.082v-16.9q-.017-3.064-3-3.065v-.67Z" transform="translate(-394.552 -419.907)"/><path class="d" d="M523.365,420.259l.368,5.844-.653.033q-.352-5.157-5.409-5.157h-3.9v19.944q0,3.031,3.065,3.031v.67H506.451v-.67q3.065,0,3.064-3.031V420.979h-3.9q-5.057,0-5.409,5.157l-.653-.067.368-5.811Z" transform="translate(-428.248 -419.907)"/><path class="d" d="M570.684,420.219a7.865,7.865,0,0,1,5.225,1.842,5.657,5.657,0,0,1,2.16,4.454,5.578,5.578,0,0,1-1.742,4.07,7.612,7.612,0,0,1-4.387,2.11,3.7,3.7,0,0,1,3.165,2.311l2.294,4.589q2.143,4.337,4.991,4.337v.67h-8.323a10.752,10.752,0,0,0-1.223-4.421l-2.127-4.773a4.64,4.64,0,0,0-1.658-1.909,4.791,4.791,0,0,0-2.713-.687h-.67V440.9q-.017,3.031,3.031,3.031v.67H558.343v-.67q3.031.017,3.031-3.031V423.97q.016-3.064-3.031-3.065v-.687Zm-5.007,11.856h1.574a6.637,6.637,0,0,0,4.589-1.583,5.287,5.287,0,0,0,0-7.9,6.637,6.637,0,0,0-4.589-1.583h-1.574Z" transform="translate(-461.853 -419.884)"/><path class="d" d="M636.348,420.259l.369,5.811-.654.1q-.351-5.175-5.81-5.174H624.14v10.148h3.1q3.567,0,3.567-3.651h.653v8.122H630.8q0-3.718-3.567-3.718h-3.1v7.988q0,4.086,5.493,4.086,7.685,0,8.038-6.347l.6.05-.419,6.95H616.822v-.67q3.047-.067,3.048-3.031v-16.93q.017-3.115-3.048-3.065v-.67Z" transform="translate(-495.28 -419.907)"/></g><g transform="translate(5701.52 10130.094)"><path class="d" d="M243.806,490.973q5.123,2.269,5.2-1.024h1.427l1.134,14.818-1.354.146a23.41,23.41,0,0,0-4.354-9.66,11.483,11.483,0,0,0-9.843-4.245,10.8,10.8,0,0,0-7.062,2.415,6.264,6.264,0,0,0-2.232,3.586,8.76,8.76,0,0,0-.146,4.5,6.721,6.721,0,0,0,1.976,3.513q1.939,1.975,9.294,4.647a71.052,71.052,0,0,1,9.769,4.171,17.084,17.084,0,0,1,5.854,5.416,14.636,14.636,0,0,1,1.757,8.306,16.883,16.883,0,0,1-5.562,11.819q-5.416,5.014-14.16,4.574a22.6,22.6,0,0,1-10.209-3.147,18.056,18.056,0,0,0-3.165-1.519,2.051,2.051,0,0,0-2.177.568,4.971,4.971,0,0,0-1.134,3.33H217.5v-16.32h1.317a21.463,21.463,0,0,0,5.342,10.392,16.222,16.222,0,0,0,11.2,4.574,13.741,13.741,0,0,0,8.818-2.232,7.994,7.994,0,0,0,3-3.952,10.934,10.934,0,0,0,.585-4.866,8.284,8.284,0,0,0-1.61-4.135,14.176,14.176,0,0,0-4.025-3.184,49.239,49.239,0,0,0-6.623-3,62,62,0,0,1-5.781-2.488q-11.124-5.634-11.2-14.27A13.422,13.422,0,0,1,222.84,493.5q4.976-4.318,12.806-4.318A20.225,20.225,0,0,1,243.806,490.973Z" transform="translate(-217.498 -489.144)"/><path class="d" d="M363.227,490.974l.8,12.769-1.427.073q-.768-11.269-11.819-11.27h-8.525v43.579q0,6.623,6.7,6.622v1.464H326.272v-1.464q6.7,0,6.7-6.622V492.547h-8.526q-11.051,0-11.819,11.27l-1.427-.146.8-12.7Z" transform="translate(-271.057 -490.169)"/><path class="d" d="M446.114,490.974l19.064,45.884q2.414,5.6,7.684,5.745v1.61H450.98V542.6q6.22.073,3.879-5.745l-4.172-10.319H431.843l-3.951,10.319q-2.3,5.745,3.915,5.745v1.61H418.3V542.6q5.6.11,7.867-5.745l17.454-45.884ZM432.465,525h17.6q-.988-2.341-9.037-22.393Q433.05,523.5,432.465,525Z" transform="translate(-332.281 -490.169)"/><path class="d" d="M577.621,491.473q4.9,1.684,5.2-1.573h1.427l.841,15.514-1.354.146q-3.586-14.416-17.819-14.453-7.978.074-13.026,7.757-4.94,7.539-4.977,18.149a43.337,43.337,0,0,0,1.756,12.77,18.158,18.158,0,0,0,5.635,8.782,14.015,14.015,0,0,0,9.587,3.4q5.342.11,8.416-2.708a9.4,9.4,0,0,0,3.11-7.428v-1.9q0-6.769-7.245-8.453v-1.61h24v1.61Q586,523.051,586,529.93v6.257a31.067,31.067,0,0,1-8.745,5.342A34.279,34.279,0,0,1,565,543.98q-12.111.22-19.905-7.5a26.176,26.176,0,0,1-7.977-19.466,28.167,28.167,0,0,1,3.622-13.9,26.2,26.2,0,0,1,10.135-10.172,30.125,30.125,0,0,1,15.332-3.842A38.208,38.208,0,0,1,577.621,491.473Z" transform="translate(-400.194 -489.095)"/><path class="d" d="M715.758,490.974l.8,12.7-1.427.219q-.768-11.306-12.7-11.307H689.084v22.174h6.769q7.794,0,7.794-7.977h1.427v17.747h-1.427q0-8.124-7.794-8.123h-6.769v17.454q0,8.929,12,8.928,16.795,0,17.564-13.868l1.317.11-.915,15.185H673.094v-1.464q6.659-.146,6.659-6.622V499.133q.036-6.806-6.659-6.7v-1.463Z" transform="translate(-477.921 -490.169)"/></g><g transform="translate(5688.671 9981)"><path class="e" d="M455.245,266.771c0,18.747-64.915,49.7-134.7,49.7s-133.037-30.956-133.037-49.7,63.246-57.4,133.037-57.4S455.245,248.022,455.245,266.771Z" transform="translate(-187.506 -209.376)"/><g transform="translate(60.749 17.853)"><rect class="f" width="151.032" height="1.295" transform="translate(0 54.437)"/><g transform="translate(52.856)"><g transform="translate(22.835 18.466)"><path class="f" d="M517.326,296.694c-2.545.322-3.33,2.737-5.788,4.72A15.871,15.871,0,0,1,506,304.156s4.173.577,11.815-3.138c5.156-2.506,5.391-6.863,5.391-6.863s-1.523,1.98-5.88,2.539" transform="translate(-506 -294.155)"/></g><g transform="translate(6.638 18.792)"><path class="f" d="M468.191,294.917a12.129,12.129,0,0,0,4.516,6.853,11.39,11.39,0,0,0,7.612,2.822C476.659,297.047,471.86,295.64,468.191,294.917Z" transform="translate(-468.191 -294.917)"/></g><g transform="translate(7.907 15.052)"><path class="f" d="M472.288,289c.844,1.773,1.947,1.094,3.726,2.248a3.174,3.174,0,0,1,.891.889s.042-.829-1.616-3.313a7.087,7.087,0,0,0-4.137-2.634,20.583,20.583,0,0,0,1.136,2.81" transform="translate(-471.152 -286.187)"/></g><g transform="translate(0 18.432)"><path class="f" d="M456.9,300.249c4.164,2.762,11.307,3.818,11.307,3.818s-4.507-1.108-6.318-3.183-2.062-3.766-4.255-4.219c-3.752-.771-4.942-2.59-4.942-2.59s.042,3.408,4.208,6.173" transform="translate(-452.695 -294.076)"/></g><g transform="translate(12.065)"><path class="f" d="M490.617,251.46c-7.082,4.365-10.207,10.018-9.708,13.823.851,6.473,6.327,12.193,8.064,14.234-2.652-10.887,4.552-12.478,4.552-20.32,0-2.5-1.855-6.826-2.39-8.147-.254.205-.392.3-.518.41" transform="translate(-480.858 -251.05)"/></g><g transform="translate(20.265)"><path class="f" d="M502.547,251.05a31.153,31.153,0,0,1,3.261,2.321,5.6,5.6,0,0,1,2.2,3.525,1.611,1.611,0,0,0,.871,1.234c.415.221.814.456,1.221.679.2.114.412.213.616.341.785.491.82.722.24,1.436a2.031,2.031,0,0,0-.254.362.546.546,0,0,0,.216.816c.249.185.5.365.733.536-.15.459-.739.471-.775,1,.255.07.511.144.981.271a1.979,1.979,0,0,0-.393.293c-.436.583-.4.776.154,1.206.115.091.242.17.35.271.412.392.4.722-.072,1.037a3.524,3.524,0,0,1-.86.394,9.465,9.465,0,0,1-1.292.338,5.386,5.386,0,0,0-2.514,1.153c-5.139,4.215-6.8,10.684-6.6,11.291-2.976-9.249,5.607-14.293,5.036-20.217A20.649,20.649,0,0,0,502.547,251.05Z" transform="translate(-500 -251.05)"/></g><g transform="translate(21.879 15.665)"><path class="f" d="M507.8,292.292a18.854,18.854,0,0,0-4.029,8.128c5.464-1.848,11.095-7.115,11.095-12.8a14.971,14.971,0,0,0-7.065,4.674" transform="translate(-503.767 -287.618)"/></g></g><g transform="translate(2.634 25.995)"><path class="g" d="M345.051,336.138a7.452,7.452,0,0,0,1.918-.252,5.733,5.733,0,0,0,1.7-.75,4.039,4.039,0,0,0,1.206-1.218,3.079,3.079,0,0,0,.454-1.676,3.46,3.46,0,0,0-.622-2.032,7.072,7.072,0,0,0-1.631-1.63,16.279,16.279,0,0,0-2.3-1.4q-1.294-.655-2.639-1.311t-2.64-1.378a13.005,13.005,0,0,1-2.3-1.612,7.74,7.74,0,0,1-1.631-1.985,5.014,5.014,0,0,1-.623-2.519,6.2,6.2,0,0,1,.564-2.642,5.911,5.911,0,0,1,1.65-2.107,7.987,7.987,0,0,1,2.679-1.4,12.04,12.04,0,0,1,3.648-.506,13.422,13.422,0,0,1,3.321.375,8.418,8.418,0,0,1,2.569,1.105,7.169,7.169,0,0,1,1.878,1.8,9.242,9.242,0,0,1,1.246,2.473l-2.253.974a9.615,9.615,0,0,0-1.009-2.089,6.707,6.707,0,0,0-1.463-1.621,6.288,6.288,0,0,0-1.967-1.04,8.088,8.088,0,0,0-2.521-.365,6.554,6.554,0,0,0-2.175.327,4.828,4.828,0,0,0-1.552.862,3.528,3.528,0,0,0-.929,1.2,3.221,3.221,0,0,0-.307,1.359,2.846,2.846,0,0,0,.633,1.788,7.444,7.444,0,0,0,1.68,1.537,20.561,20.561,0,0,0,2.382,1.4q1.334.675,2.719,1.367t2.718,1.443a15.034,15.034,0,0,1,2.381,1.639,7.845,7.845,0,0,1,1.681,1.947,4.527,4.527,0,0,1,.632,2.37,6.628,6.628,0,0,1-.592,2.782,6.237,6.237,0,0,1-1.779,2.267,8.93,8.93,0,0,1-2.947,1.526,13.473,13.473,0,0,1-4.092.562,13.184,13.184,0,0,1-3.38-.394,8.827,8.827,0,0,1-2.62-1.142,7.766,7.766,0,0,1-1.946-1.826,9.615,9.615,0,0,1-1.325-2.464l2.353-.918a7.988,7.988,0,0,0,1.116,2.173,7.154,7.154,0,0,0,3.7,2.641A8.059,8.059,0,0,0,345.051,336.138Z" transform="translate(-335.462 -311.73)"/><path class="g" d="M390.025,323.814l9.833,20.71h-3.578l-3.183-7.062h-8.966l-3.293,7.062h-1.765l10.07-20.71Zm-5.279,12.364h7.705l-3.8-7.839Z" transform="translate(-360.39 -318.637)"/><path class="g" d="M432.365,323.8h1.97l13.693,14.484h.158V323.8h1.544v20.717h-.819l-14.828-16.551h-.126v16.551h-1.591Z" transform="translate(-390.853 -318.628)"/><path class="g" d="M496.313,323.814V325.1h-7.563v19.426h-3.515V325.1h-7.563v-1.284Z" transform="translate(-416.751 -318.637)"/><path class="g" d="M529.8,344.524a12.346,12.346,0,0,1-4.53-.821,11.538,11.538,0,0,1-3.656-2.247,10.545,10.545,0,0,1-2.442-3.329,9.475,9.475,0,0,1-.891-4.069,9.282,9.282,0,0,1,.4-2.732,9.579,9.579,0,0,1,1.141-2.449,10.359,10.359,0,0,1,1.789-2.068,11.4,11.4,0,0,1,2.325-1.6,12.376,12.376,0,0,1,2.757-1.03,13.321,13.321,0,0,1,6.208,0,12.559,12.559,0,0,1,2.765,1.03,11.146,11.146,0,0,1,2.325,1.6,10.709,10.709,0,0,1,1.788,2.068,9.417,9.417,0,0,1,1.151,2.449,9.321,9.321,0,0,1,.4,2.732,9.592,9.592,0,0,1-.4,2.77,9.851,9.851,0,0,1-1.151,2.5,10.883,10.883,0,0,1-1.788,2.121,11.33,11.33,0,0,1-2.325,1.642,12.089,12.089,0,0,1-2.765,1.06A12.672,12.672,0,0,1,529.8,344.524Zm0-.984a6.851,6.851,0,0,0,3.177-.71,6.675,6.675,0,0,0,2.324-1.979,9,9,0,0,0,1.426-3,14.121,14.121,0,0,0,.481-3.792,13.744,13.744,0,0,0-.481-3.748,8.612,8.612,0,0,0-1.426-2.934,6.543,6.543,0,0,0-2.324-1.911,7.836,7.836,0,0,0-6.383,0,6.453,6.453,0,0,0-2.316,1.911,8.544,8.544,0,0,0-1.409,2.934,13.939,13.939,0,0,0-.473,3.748,14.322,14.322,0,0,0,.473,3.792,8.928,8.928,0,0,0,1.409,3,6.583,6.583,0,0,0,2.316,1.979A6.917,6.917,0,0,0,529.8,343.539Z" transform="translate(-439.962 -318.637)"/><path class="g" d="M588.52,344.524a12.34,12.34,0,0,1-4.53-.821,11.516,11.516,0,0,1-3.656-2.247,10.52,10.52,0,0,1-2.442-3.329,9.48,9.48,0,0,1-.89-4.069,9.254,9.254,0,0,1,.4-2.732,9.492,9.492,0,0,1,1.142-2.449,10.288,10.288,0,0,1,1.788-2.068,11.37,11.37,0,0,1,2.325-1.6,12.379,12.379,0,0,1,2.757-1.03,13.322,13.322,0,0,1,6.209,0,12.565,12.565,0,0,1,2.766,1.03,11.152,11.152,0,0,1,2.324,1.6,10.712,10.712,0,0,1,1.789,2.068,9.433,9.433,0,0,1,1.149,2.449,9.3,9.3,0,0,1,.4,2.732,9.567,9.567,0,0,1-.4,2.77,9.868,9.868,0,0,1-1.149,2.5,10.886,10.886,0,0,1-1.789,2.121,11.337,11.337,0,0,1-2.324,1.642,12.1,12.1,0,0,1-2.766,1.06A12.68,12.68,0,0,1,588.52,344.524Zm0-.984a6.85,6.85,0,0,0,3.176-.71,6.668,6.668,0,0,0,2.323-1.979,8.98,8.98,0,0,0,1.427-3,14.179,14.179,0,0,0,.48-3.792,13.8,13.8,0,0,0-.48-3.748,8.6,8.6,0,0,0-1.427-2.934,6.536,6.536,0,0,0-2.323-1.911,7.835,7.835,0,0,0-6.383,0A6.452,6.452,0,0,0,583,327.376a8.562,8.562,0,0,0-1.411,2.934,13.986,13.986,0,0,0-.473,3.748,14.371,14.371,0,0,0,.473,3.792,8.947,8.947,0,0,0,1.411,3,6.583,6.583,0,0,0,2.316,1.979A6.916,6.916,0,0,0,588.52,343.539Z" transform="translate(-473.528 -318.637)"/><path class="g" d="M635.587,323.919h7.249a12.776,12.776,0,0,1,3.293.381,7.131,7.131,0,0,1,2.363,1.067A4.556,4.556,0,0,1,649.918,327a4.5,4.5,0,0,1,.481,2.068,4.1,4.1,0,0,1-.37,1.732,4.83,4.83,0,0,1-1.04,1.456,6.387,6.387,0,0,1-1.615,1.121,9.69,9.69,0,0,1-2.08.739l7.61,10.466h-4.08l-7.263-10.168H639.1v10.168h-3.514Zm3.514,9.5h2.033a7.6,7.6,0,0,0,2.182-.3,5.529,5.529,0,0,0,1.733-.844,3.9,3.9,0,0,0,1.143-1.322,3.689,3.689,0,0,0,.409-1.746,4.105,4.105,0,0,0-.321-1.643,3.638,3.638,0,0,0-.915-1.276,4.293,4.293,0,0,0-1.4-.829,5.085,5.085,0,0,0-1.773-.3H639.1Z" transform="translate(-507.016 -318.697)"/></g></g></g><g class="h" transform="translate(5567.917 9952.062)"><rect class="i" width="500" height="485.938"/><rect class="j" x="1" y="1" width="498" height="483.938"/></g></g><g transform="translate(5103 8706.539)"><path class="d" d="M428.474,631.928a1.773,1.773,0,0,0-1.835-2.113c-1.866,0-2.066,1.172-2.066,2.067a1.519,1.519,0,0,0,1.095,1.573c.617.232,1.218.463,1.836.694,2.19.817,2.591,1.588,2.591,3.114a3.252,3.252,0,0,1-3.593,3.47,3.157,3.157,0,0,1-3.161-1.835,6.458,6.458,0,0,1-.247-2.113h1.28c-.062,1.712.262,2.792,2.189,2.792a1.941,1.941,0,0,0,2.205-2.02c0-1.758-.709-1.773-1.881-2.22-.632-.247-1.65-.57-2.267-.894a2.584,2.584,0,0,1-1.373-2.621,3.036,3.036,0,0,1,3.223-3.161c2.112,0,3.408,1.1,3.284,3.269Z" transform="translate(-423.093 -628.659)"/><path class="d" d="M451.787,641.594c.077,1.681-.787,3.084-2.591,3.084-1.619,0-2.776-1.079-2.776-4.534,0-1.8.478-4.5,2.745-4.5,2.776,0,2.621,2.621,2.683,4.626h-4.164c.031,1.157-.169,3.377,1.542,3.377,1.172,0,1.5-1.079,1.418-2.051Zm-1.2-2.328c-.047-1,.016-2.591-1.4-2.591s-1.45,1.573-1.5,2.591Z" transform="translate(-436.427 -632.651)"/><path class="d" d="M471.524,644.447a1.835,1.835,0,0,0-.278.062c-1.033.046-1.418-.046-1.542-1.218h-.031a2.174,2.174,0,0,1-1.9,1.388c-1.712,0-2.205-.956-2.205-2.513a2.191,2.191,0,0,1,1.233-2.082c.694-.308,2.421-.956,2.576-1.079.262-.2.231-.54.231-.987,0-.971-.37-1.341-1.357-1.341-1.11,0-1.264.509-1.249,1.511h-1.095c-.062-1.774.817-2.544,2.544-2.544a2.057,2.057,0,0,1,2.328,2.328v4.919c0,.216-.031.524.216.647a1.479,1.479,0,0,0,.524.015Zm-2-4.626c-.6.355-1.28.617-1.928.925a1.527,1.527,0,0,0-.756,1.48c0,.863.216,1.419,1.2,1.419a1.567,1.567,0,0,0,1.481-1.742Z" transform="translate(-447.374 -632.651)"/><path class="d" d="M489.6,638.171c.047-1.017-.324-1.5-1.357-1.5-.863,0-1.357.4-1.357,1.3,0,1.11.91,1.249,1.743,1.6,1.234.555,2.467.864,2.467,2.467a2.933,2.933,0,0,1-5.027,1.742,2.625,2.625,0,0,1-.478-1.835h1.156c-.046,1.048.309,1.7,1.45,1.7.987,0,1.634-.4,1.634-1.449,0-1.218-1.233-1.326-2.112-1.7-1.326-.493-2.1-.94-2.1-2.436a2.332,2.332,0,0,1,2.513-2.421c1.7,0,2.683.771,2.653,2.529Z" transform="translate(-458.815 -632.651)"/><path class="d" d="M508.528,644.678c-1.85,0-3.069-1.11-3.069-4.811,0-2.591.956-4.225,3.069-4.225s3.068,1.634,3.068,4.225C511.6,643.583,510.409,644.678,508.528,644.678Zm0-8c-1.249,0-1.8.987-1.8,3.577,0,2.02.386,3.392,1.8,3.392,1.45,0,1.8-1.372,1.8-3.392C510.331,637.662,509.807,636.675,508.528,636.675Z" transform="translate(-470.174 -632.651)"/><path class="d" d="M529.039,636.814h.031a2.6,2.6,0,0,1,2.143-1.172,1.934,1.934,0,0,1,2.113,2.189v6.615h-1.218v-6.276c0-.894-.293-1.5-1.28-1.5a1.741,1.741,0,0,0-1.2.478,1.843,1.843,0,0,0-.555,1.557v5.736h-1.218v-8.573h1.187Z" transform="translate(-482.974 -632.651)"/><path class="d" d="M563.166,637.926a2.156,2.156,0,0,0-.833,1.681h4.888v1.156h-6.214a6.755,6.755,0,0,1,.463-2.5,4.011,4.011,0,0,1,.909-1.157l2.2-2.128a2.958,2.958,0,0,0,1.2-2.591c0-1.172-.4-2.035-1.711-2.035-1.589,0-1.727,1.558-1.7,2.776H561.1v-.709a3.644,3.644,0,0,1,.74-2.313,2.944,2.944,0,0,1,2.3-.91c1.974,0,2.976,1.311,2.976,3.223a4.362,4.362,0,0,1-1.866,3.608Z" transform="translate(-501.926 -628.967)"/></g></g></svg>