<svg xmlns="http://www.w3.org/2000/svg" xmlns:xlink="http://www.w3.org/1999/xlink" width="541" height="528" viewBox="0 0 541 528"><defs><style>.a{fill:#e86b25;stroke:#707070;}.b,.ii{fill:none;}.c{clip-path:url(#a);}.d{clip-path:url(#b);}.e{fill:#ae7f1e;}.f{fill:#af801e;}.g{fill:#af801f;}.h{fill:#b0811f;}.i{fill:#b08120;}.j{fill:#b08221;}.k{fill:#b18221;}.l{fill:#b18222;}.m{fill:#b18322;}.n{fill:#b28323;}.o{fill:#b28423;}.p{fill:#b28424;}.q{fill:#b38525;}.r{fill:#b38526;}.s{fill:#b38627;}.t{fill:#b48627;}.u{fill:#b48628;}.v{fill:#b48729;}.w{fill:#b58729;}.x{fill:#b5872a;}.y{fill:#b5882a;}.z{fill:#b5882b;}.aa{fill:#b6892c;}.ab{fill:#b6892d;}.ac{fill:#b68a2e;}.ad{fill:#b78a2e;}.ae{fill:#b78a2f;}.af{fill:#b78b2f;}.ag{fill:#b88b30;}.ah{fill:#b88b31;}.ai{fill:#b88c31;}.aj{fill:#b88c32;}.ak{fill:#b98d33;}.al{fill:#b98d34;}.am{fill:#ba8e35;}.an{fill:#ba8e36;}.ao{fill:#ba8f37;}.ap{fill:#bb8f38;}.aq{fill:#bb9038;}.ar{fill:#bb9039;}.as{fill:#bb903a;}.at{fill:#bc913b;}.au{fill:#bc923c;}.av{fill:#bd923d;}.aw{fill:#bd923e;}.ax{fill:#bd933e;}.ay{fill:#bd933f;}.az{fill:#be9440;}.ba{fill:#be9441;}.bb{fill:#be9542;}.bc{fill:#bf9543;}.bd{fill:#bf9644;}.be{fill:#c09645;}.bf{fill:#c09746;}.bg{fill:#c09747;}.bh{fill:#c09847;}.bi{fill:#c19848;}.bj{fill:#c19849;}.bk{fill:#c1994a;}.bl{fill:#c1994b;}.bm{fill:#c29a4b;}.bn{fill:#c29a4c;}.bo{fill:#c29a4d;}.bp{fill:#c39b4e;}.bq{fill:#c39c4f;}.br{fill:#c39c50;}.bs{fill:#c49c51;}.bt{fill:#c49d51;}.bu{fill:#c49d52;}.bv{fill:#c49e53;}.bw{fill:#c59e54;}.bx{fill:#c59f54;}.by{fill:#c59f55;}.bz{fill:#c69f56;}.ca{fill:#c6a057;}.cb{fill:#c6a158;}.cc{fill:#c7a159;}.cd{fill:#c7a25a;}.ce{fill:#c7a25b;}.cf{fill:#c8a35c;}.cg{fill:#c8a35d;}.ch{fill:#c8a45d;}.ci{fill:#c9a45e;}.cj{fill:#c9a55f;}.ck{fill:#c9a560;}.cl{fill:#caa560;}.cm{fill:#caa661;}.cn{fill:#caa662;}.co{fill:#caa763;}.cp{fill:#cba763;}.cq{fill:#cba864;}.cr{fill:#cba865;}.cs{fill:#cca966;}.ct{fill:#cca967;}.cu{fill:#cdaa68;}.cv{fill:#cdaa69;}.cw{fill:#cdab69;}.cx{fill:#cdab6a;}.cy{fill:#ceac6b;}.cz{fill:#ceac6c;}.da{fill:#cead6c;}.db{fill:#cfad6d;}.dc{fill:#cfad6e;}.dd{fill:#cfae6f;}.de{fill:#d0ae6f;}.df{fill:#d0af70;}.dg{fill:#d0af71;}.dh{fill:#d0b072;}.di{fill:#d1b072;}.dj{fill:#d1b173;}.dk{fill:#d1b174;}.dl{fill:#d2b275;}.dm{fill:#d2b276;}.dn{fill:#d2b376;}.do{fill:#d2b377;}.dp{fill:#d3b378;}.dq{fill:#d3b479;}.dr{fill:#d3b47a;}.ds{fill:#d4b57b;}.dt{fill:#d4b67c;}.du{fill:#d5b67d;}.dv{fill:#d5b77e;}.dw{fill:#d5b77f;}.dx{fill:#d6b880;}.dy{fill:#d6b981;}.dz{fill:#d7b982;}.ea{fill:#d7ba83;}.eb{fill:#d7ba84;}.ec{fill:#d7bb85;}.ed{fill:#d8bb86;}.ee{fill:#d8bc87;}.ef{fill:#d9bd88;}.eg{fill:#d9bd89;}.eh{fill:#d9be8a;}.ei{fill:#dabe8b;}.ej{fill:#dabf8c;}.ek{fill:#dabf8d;}.el{fill:#dac08e;}.em{fill:#dbc08f;}.en{fill:#dbc190;}.eo{fill:#dcc291;}.ep{fill:#dcc292;}.eq{fill:#dcc393;}.er{fill:#ddc394;}.es{fill:#ddc495;}.et{fill:#ddc496;}.eu{fill:#dec597;}.ev{fill:#dec598;}.ew{fill:#dec699;}.ex{fill:#dfc69a;}.ey{fill:#dfc79b;}.ez{fill:#dfc79c;}.fa{fill:#e0c89d;}.fb{fill:#e0c89e;}.fc{fill:#e0c99f;}.fd{fill:#e0caa0;}.fe{fill:#e1caa1;}.ff{fill:#e1cba2;}.fg{fill:#e1cba3;}.fh{fill:#e2cca4;}.fi{fill:#e2cca5;}.fj{fill:#e2cda6;}.fk{fill:#e3cda7;}.fl{fill:#e3cea8;}.fm{fill:#e3cea9;}.fn{fill:#e4cfaa;}.fo{fill:#e4cfab;}.fp{fill:#e4d0ac;}.fq{fill:#e4d1ad;}.fr{fill:#e5d1ae;}.fs{fill:#e5d2af;}.ft{fill:#e5d2b0;}.fu{fill:#e6d3b1;}.fv{fill:#e6d3b2;}.fw{fill:#e6d4b3;}.fx{fill:#e7d5b4;}.fy{fill:#e7d5b5;}.fz{fill:#e7d6b6;}.ga{fill:#e8d6b7;}.gb{fill:#e8d7b8;}.gc{fill:#e8d7b9;}.gd{fill:#e9d8ba;}.ge{fill:#e9d9bb;}.gf{fill:#e9d9bc;}.gg{fill:#eadabd;}.gh{fill:#eadabe;}.gi{fill:#eadbbf;}.gj{fill:#ebdbc0;}.gk{fill:#ebdcc1;}.gl{fill:#ebddc2;}.gm{fill:#ecddc3;}.gn{fill:#ecdec5;}.go{fill:#ecdec6;}.gp{fill:#eddfc7;}.gq{fill:#eddfc8;}.gr{fill:#ede0c9;}.gs{fill:#eee1ca;}.gt{fill:#eee1cb;}.gu{fill:#eee2cc;}.gv{fill:#efe3cd;}.gw{fill:#efe3ce;}.gx{fill:#efe4d0;}.gy{fill:#f0e4d1;}.gz{fill:#f0e5d2;}.ha{fill:#f0e6d3;}.hb{fill:#f1e6d4;}.hc{fill:#f1e7d5;}.hd{fill:#f1e8d6;}.he{fill:#f2e8d8;}.hf{fill:#f2e9d9;}.hg{fill:#f3e9da;}.hh{fill:#f3eadb;}.hi{fill:#f3ebdc;}.hj{fill:#f4ebde;}.hk{fill:#f4ecdf;}.hl{fill:#f5ede0;}.hm{fill:#f5eee1;}.hn{fill:#f5eee2;}.ho{fill:#f6efe4;}.hp{fill:#f6f0e5;}.hq{fill:#f7f0e6;}.hr{fill:#f7f1e8;}.hs{fill:#f8f2e9;}.ht{fill:#f8f3ea;}.hu{fill:#f9f4eb;}.hv{fill:#f9f4ed;}.hw{fill:#faf5ee;}.hx{fill:#faf6f0;}.hy{fill:#fbf7f1;}.hz{fill:#fbf8f3;}.ia{fill:#fcf9f4;}.ib{fill:#fdfaf6;}.ic{fill:#fdfbf8;}.id{fill:#fefcfa;}.ie{fill:#fefefc;}.if{fill:#fff;}.ig{fill:#53284f;font-size:57px;font-family:NexaLight, Nexa Light;}.ih{font-family:NexaBold, Nexa Bold;}.ii{stroke:#fff;stroke-width:2px;}.ij{fill:url(#c);}.ik{fill:#b18a00;}.il{fill:#3e1d3e;}.im{stroke:none;}</style><clipPath id="a"><rect class="a" width="541" height="528" transform="translate(0 -0.343)"/></clipPath><clipPath id="b"><rect class="b" width="541.341" height="845.838"/></clipPath><radialGradient id="c" cx="0.503" cy="0.506" r="1.142" gradientTransform="matrix(0.4, 0, 0, 0.417, 0.488, 0.23)" gradientUnits="objectBoundingBox"><stop offset="0.287" stop-color="#fff"/><stop offset="0.38" stop-color="#fff" stop-opacity="0.804"/><stop offset="0.507" stop-color="#fff" stop-opacity="0.561"/><stop offset="0.628" stop-color="#fff" stop-opacity="0.361"/><stop offset="0.742" stop-color="#fff" stop-opacity="0.204"/><stop offset="0.845" stop-color="#fff" stop-opacity="0.094"/><stop offset="0.934" stop-color="#fff" stop-opacity="0.024"/><stop offset="1" stop-color="#fff" stop-opacity="0"/></radialGradient></defs><g class="c" transform="translate(0 0.343)"><g transform="translate(0 0.1)"><g class="d"><rect class="e" width="541.341" height="845.838"/><path class="e" d="M-2085.452-2078.92c0,141.367-28.579,269.35-74.784,361.992a423.55,423.55,0,0,1-37.787,62.511q-2.548,3.452-5.138,6.781v-6.761H-2478.4v6.761q-2.589-3.332-5.136-6.781a423.552,423.552,0,0,1-37.788-62.511c-46.2-92.643-74.783-220.625-74.783-361.992s28.579-269.35,74.783-361.992a423.543,423.543,0,0,1,37.788-62.511q2.547-3.451,5.136-6.781v6.76h275.238v-6.76q2.591,3.331,5.138,6.781a423.54,423.54,0,0,1,37.787,62.511C-2114.03-2348.27-2085.452-2220.287-2085.452-2078.92Z" transform="translate(2611.449 2501.84)"/><path class="e" d="M-2089.8-2079.591c0,138.681-28.036,264.233-73.363,355.113a415.377,415.377,0,0,1-37.07,61.324q-5,6.769-10.162,13.063v-4.977H-2470.16v4.977q-5.164-6.291-10.163-13.063a415.587,415.587,0,0,1-37.07-61.324c-45.327-90.881-73.362-216.433-73.362-355.113s28.035-264.233,73.362-355.114a415.605,415.605,0,0,1,37.07-61.325q5-6.768,10.163-13.063v4.978H-2210.4v-4.978q5.164,6.292,10.162,13.063a415.4,415.4,0,0,1,37.07,61.325C-2117.839-2343.824-2089.8-2218.272-2089.8-2079.591Z" transform="translate(2610.95 2502.511)"/><path class="e" d="M-2094.156-2078.258c0,136-27.492,259.115-71.942,348.237a407.548,407.548,0,0,1-36.352,60.137,299.127,299.127,0,0,1-20.251,24.668v-8.517H-2456.86v8.517a299.228,299.228,0,0,1-20.252-24.668,407.633,407.633,0,0,1-36.352-60.137c-44.449-89.122-71.941-212.241-71.941-348.237s27.492-259.114,71.941-348.236a407.568,407.568,0,0,1,36.352-60.136,299.159,299.159,0,0,1,20.252-24.668v8.517H-2222.7v-8.517a299.058,299.058,0,0,1,20.251,24.668,407.482,407.482,0,0,1,36.352,60.136C-2121.649-2337.373-2094.156-2214.253-2094.156-2078.258Z" transform="translate(2610.451 2501.177)"/><path class="e" d="M-2095.02-2078.9c0,135.461-27.385,258.1-71.66,346.871a405.869,405.869,0,0,1-36.209,59.9,298.357,298.357,0,0,1-20.172,24.572v-6.819H-2456.3v6.819a298.357,298.357,0,0,1-20.172-24.572,405.975,405.975,0,0,1-36.21-59.9c-44.275-88.772-71.659-211.41-71.659-346.871s27.384-258.1,71.659-346.871a406.009,406.009,0,0,1,36.21-59.9,298.607,298.607,0,0,1,20.172-24.573v6.82h233.24v-6.82a298.607,298.607,0,0,1,20.172,24.573,405.9,405.9,0,0,1,36.209,59.9C-2122.405-2337-2095.02-2214.359-2095.02-2078.9Z" transform="translate(2610.353 2501.817)"/><path class="f" d="M-2095.885-2079.538c0,134.928-27.276,257.083-71.377,345.507a404.467,404.467,0,0,1-36.067,59.663,296.948,296.948,0,0,1-20.093,24.474v-5.121h-232.322v5.121a297.145,297.145,0,0,1-20.093-24.474,404.485,404.485,0,0,1-36.066-59.663c-44.1-88.423-71.378-210.579-71.378-345.507s27.278-257.083,71.378-345.505a404.4,404.4,0,0,1,36.066-59.664,297.191,297.191,0,0,1,20.093-24.475v5.12h232.322v-5.12a296.994,296.994,0,0,1,20.093,24.475,404.377,404.377,0,0,1,36.067,59.664C-2123.161-2336.621-2095.885-2214.465-2095.885-2079.538Z" transform="translate(2610.254 2502.457)"/><path class="g" d="M-2096.749-2080.177c0,134.4-27.169,256.065-71.1,344.14a402.746,402.746,0,0,1-35.925,59.428,295.832,295.832,0,0,1-20.013,24.378v-3.423h-231.4v3.423a295.938,295.938,0,0,1-20.014-24.378,402.7,402.7,0,0,1-35.923-59.428c-43.927-88.075-71.1-209.745-71.1-344.14s27.169-256.066,71.1-344.14a402.736,402.736,0,0,1,35.923-59.428,295.575,295.575,0,0,1,20.014-24.378v3.423h231.4v-3.423a295.469,295.469,0,0,1,20.013,24.378,402.781,402.781,0,0,1,35.925,59.428C-2123.917-2336.243-2096.749-2214.573-2096.749-2080.177Z" transform="translate(2610.154 2503.097)"/><path class="g" d="M-2097.613-2080.818c0,133.863-27.062,255.051-70.813,342.773a401.184,401.184,0,0,1-35.782,59.194,294.412,294.412,0,0,1-19.934,24.281v-1.723h-230.486v1.723a294.715,294.715,0,0,1-19.935-24.281,401.245,401.245,0,0,1-35.781-59.194c-43.753-87.723-70.813-208.911-70.813-342.773s27.061-255.05,70.813-342.773a401.283,401.283,0,0,1,35.781-59.194,294.846,294.846,0,0,1,19.935-24.281v1.725h230.486v-1.725a294.543,294.543,0,0,1,19.934,24.281,401.223,401.223,0,0,1,35.782,59.194C-2124.675-2335.868-2097.613-2214.68-2097.613-2080.818Z" transform="translate(2610.056 2503.737)"/><path class="h" d="M-2098.477-2081.457c0,133.328-26.954,254.034-70.531,341.407a399.612,399.612,0,0,1-35.639,58.958,293.745,293.745,0,0,1-19.855,24.184v-.026H-2454.07v.026a293.589,293.589,0,0,1-19.854-24.184,399.528,399.528,0,0,1-35.639-58.958c-43.578-87.373-70.531-208.079-70.531-341.407s26.954-254.035,70.531-341.408a399.589,399.589,0,0,1,35.639-58.958,293.575,293.575,0,0,1,19.854-24.183v.025H-2224.5v-.025a293.732,293.732,0,0,1,19.855,24.183,399.673,399.673,0,0,1,35.639,58.958C-2125.431-2335.492-2098.477-2214.785-2098.477-2081.457Z" transform="translate(2609.957 2504.376)"/><path class="i" d="M-2099.342-2078.1c0,132.8-26.845,253.019-70.248,340.042a398.071,398.071,0,0,1-35.5,58.722,292.472,292.472,0,0,1-19.776,24.088q-5.1,5.552-10.342,10.618v-8.947h-207.965v8.947q-5.243-5.063-10.342-10.618a292.424,292.424,0,0,1-19.776-24.088,398.031,398.031,0,0,1-35.5-58.722c-43.4-87.024-70.249-207.247-70.249-340.042s26.846-253.019,70.249-340.042a398.043,398.043,0,0,1,35.5-58.722,292.288,292.288,0,0,1,19.776-24.087q5.1-5.554,10.342-10.62v8.947H-2235.2v-8.947q5.243,5.064,10.342,10.62a292.336,292.336,0,0,1,19.776,24.087,398.084,398.084,0,0,1,35.5,58.722C-2126.187-2331.114-2099.342-2210.891-2099.342-2078.1Z" transform="translate(2609.857 2501.016)"/><path class="i" d="M-2100.205-2078.752c0,132.261-26.738,252-69.968,338.676a396.324,396.324,0,0,1-35.353,58.487,291.383,291.383,0,0,1-19.7,23.99q-5.077,5.529-10.3,10.576v-7.205h-207.131v7.205q-5.222-5.044-10.3-10.576a291.133,291.133,0,0,1-19.7-23.99A396.388,396.388,0,0,1-2508-1740.076c-43.229-86.675-69.967-206.415-69.967-338.676s26.738-252,69.967-338.677a396.383,396.383,0,0,1,35.354-58.485,291.042,291.042,0,0,1,19.7-23.99q5.078-5.532,10.3-10.577v7.206h207.131v-7.206q5.221,5.044,10.3,10.577a291.292,291.292,0,0,1,19.7,23.99,396.319,396.319,0,0,1,35.353,58.485C-2126.943-2330.754-2100.205-2211.013-2100.205-2078.752Z" transform="translate(2609.758 2501.671)"/><path class="j" d="M-2101.07-2079.408c0,131.728-26.63,250.986-69.686,337.311a394.85,394.85,0,0,1-35.211,58.25,290.09,290.09,0,0,1-19.617,23.894q-5.056,5.506-10.259,10.534v-5.465h-206.295v5.465q-5.2-5.023-10.259-10.534a289.937,289.937,0,0,1-19.616-23.894,394.832,394.832,0,0,1-35.212-58.25c-43.054-86.325-69.684-205.583-69.684-337.311s26.63-250.985,69.684-337.311a394.871,394.871,0,0,1,35.212-58.25,289.937,289.937,0,0,1,19.616-23.894q5.057-5.507,10.259-10.534v5.465h206.295v-5.465q5.2,5.023,10.259,10.534a290.09,290.09,0,0,1,19.617,23.894,394.889,394.889,0,0,1,35.211,58.25C-2127.7-2330.393-2101.07-2211.136-2101.07-2079.408Z" transform="translate(2609.659 2502.327)"/><path class="k" d="M-2101.934-2080.064c0,131.2-26.522,249.97-69.4,335.946a393.049,393.049,0,0,1-35.068,58.013,288.667,288.667,0,0,1-19.537,23.8q-5.036,5.485-10.217,10.492v-3.725h-205.46v3.725q-5.179-5-10.217-10.492a288.718,288.718,0,0,1-19.537-23.8,393.111,393.111,0,0,1-35.068-58.013c-42.882-85.976-69.4-204.751-69.4-335.946s26.521-249.969,69.4-335.946a393.091,393.091,0,0,1,35.068-58.014,288.737,288.737,0,0,1,19.537-23.8q5.035-5.485,10.217-10.492v3.726h205.46v-3.726q5.18,5.006,10.217,10.492a288.686,288.686,0,0,1,19.537,23.8,393.028,393.028,0,0,1,35.068,58.014C-2128.457-2330.033-2101.934-2211.259-2101.934-2080.064Z" transform="translate(2609.56 2502.983)"/><path class="l" d="M-2102.8-2080.719c0,130.661-26.414,248.953-69.12,334.58a391.468,391.468,0,0,1-34.926,57.778,287.4,287.4,0,0,1-19.457,23.7q-5.016,5.464-10.176,10.45v-1.984H-2441.1v1.984q-5.159-4.984-10.176-10.45a287.5,287.5,0,0,1-19.457-23.7,391.572,391.572,0,0,1-34.926-57.778c-42.706-85.627-69.12-203.919-69.12-334.58s26.414-248.955,69.12-334.581a391.55,391.55,0,0,1,34.926-57.777,287.6,287.6,0,0,1,19.457-23.7q5.017-5.463,10.176-10.45v1.985h204.625v-1.985q5.159,4.985,10.176,10.45a287.505,287.505,0,0,1,19.457,23.7,391.446,391.446,0,0,1,34.926,57.777C-2129.213-2329.673-2102.8-2211.381-2102.8-2080.719Z" transform="translate(2609.461 2503.639)"/><path class="m" d="M-2103.662-2077.819c0,130.129-26.306,247.937-68.838,333.215-21.266,42.639-46.588,77.144-74.707,100.99v-9.68h-182.968v9.68c-28.119-23.845-53.441-58.351-74.707-100.99-42.532-85.278-68.839-203.086-68.839-333.215s26.306-247.938,68.839-333.214c21.265-42.638,46.588-77.144,74.707-100.991v9.682h182.968v-9.682c28.119,23.847,53.441,58.353,74.707,100.991C-2129.969-2325.757-2103.662-2207.948-2103.662-2077.819Z" transform="translate(2609.362 2500.74)"/><path class="n" d="M-2104.526-2078.489c0,129.6-26.2,246.921-68.556,331.849-21.179,42.463-46.4,76.828-74.4,100.575v-7.9H-2429.7v7.9c-28-23.747-53.222-58.112-74.4-100.575-42.358-84.927-68.556-202.253-68.556-331.849s26.2-246.922,68.556-331.85c21.179-42.463,46.4-76.829,74.4-100.576v7.9h182.218v-7.9c28,23.747,53.221,58.112,74.4,100.576C-2130.726-2325.411-2104.526-2208.086-2104.526-2078.489Z" transform="translate(2609.263 2501.409)"/><path class="o" d="M-2105.391-2079.16c0,129.061-26.091,245.905-68.273,330.484-21.092,42.288-46.206,76.51-74.095,100.161v-6.122h-181.467v6.122c-27.888-23.651-53-57.874-74.095-100.161-42.183-84.578-68.274-201.422-68.274-330.484s26.091-245.907,68.274-330.484c21.091-42.288,46.206-76.51,74.095-100.161v6.121h181.467v-6.121c27.889,23.651,53,57.874,74.095,100.161C-2131.482-2325.067-2105.391-2208.222-2105.391-2079.16Z" transform="translate(2609.164 2502.08)"/><path class="p" d="M-2106.255-2079.831c0,128.529-25.983,244.889-67.991,329.117-21.005,42.116-46.016,76.2-73.788,99.75v-4.342h-180.719v4.342c-27.772-23.553-52.784-57.634-73.789-99.75-42.009-84.228-67.991-200.587-67.991-329.117s25.983-244.888,67.991-329.118c21-42.114,46.016-76.194,73.789-99.748v4.342h180.719v-4.342c27.772,23.554,52.783,57.634,73.788,99.748C-2132.238-2324.719-2106.255-2208.359-2106.255-2079.831Z" transform="translate(2609.065 2502.75)"/><path class="p" d="M-2107.119-2080.5c0,127.994-25.875,243.873-67.71,327.751-20.917,41.94-45.825,75.88-73.482,99.335v-2.563H-2428.28v2.563c-27.657-23.455-52.564-57.395-73.482-99.335-41.834-83.878-67.709-199.757-67.709-327.751s25.875-243.872,67.709-327.751c20.917-41.94,45.825-75.879,73.482-99.336v2.563h179.969v-2.563c27.657,23.457,52.564,57.4,73.482,99.336C-2132.994-2324.374-2107.119-2208.5-2107.119-2080.5Z" transform="translate(2608.966 2503.421)"/><path class="q" d="M-2107.983-2081.171c0,127.461-25.767,242.857-67.428,326.386-20.83,41.765-45.634,75.563-73.176,98.92v-.782h-179.218v.782c-27.542-23.357-52.346-57.156-73.176-98.92-41.66-83.529-67.428-198.924-67.428-326.386s25.768-242.858,67.428-326.386c20.83-41.765,45.633-75.564,73.176-98.922v.783h179.218v-.783c27.542,23.358,52.345,57.156,73.176,98.922C-2133.75-2324.029-2107.983-2208.634-2107.983-2081.171Z" transform="translate(2608.866 2504.091)"/><path class="r" d="M-2108.848-2078.742c0,126.929-25.66,241.841-67.146,325.02-20.743,41.59-45.443,75.248-72.87,98.507q-5.143,4.362-10.411,8.23v-7.233h-157.647v7.233q-5.266-3.867-10.411-8.23c-27.426-23.26-52.127-56.917-72.869-98.507-41.487-83.179-67.146-198.092-67.146-325.02s25.659-241.841,67.146-325.02c20.742-41.591,45.443-75.248,72.869-98.508q5.143-4.36,10.411-8.229v7.233h157.647v-7.233q5.268,3.868,10.411,8.229c27.427,23.26,52.126,56.917,72.87,98.508C-2134.508-2320.582-2108.848-2205.671-2108.848-2078.742Z" transform="translate(2608.768 2501.661)"/><path class="r" d="M-2109.712-2079.426c0,126.4-25.552,240.824-66.863,323.655-20.656,41.415-45.251,74.932-72.563,98.094q-5.121,4.342-10.367,8.195v-5.419H-2416.49v5.419q-5.245-3.849-10.367-8.195c-27.312-23.162-51.908-56.678-72.563-98.094-41.312-82.831-66.864-197.26-66.864-323.655s25.552-240.823,66.864-323.655c20.655-41.415,45.251-74.931,72.563-98.093q5.121-4.342,10.367-8.194v5.418h156.985v-5.418q5.245,3.847,10.367,8.194c27.312,23.162,51.907,56.678,72.563,98.093C-2135.264-2320.249-2109.712-2205.82-2109.712-2079.426Z" transform="translate(2608.669 2502.345)"/><path class="s" d="M-2110.576-2077.408c0,125.861-25.444,239.808-66.581,322.289-20.569,41.24-45.061,74.615-72.258,97.679a178.153,178.153,0,0,1-20.884,15.327v-10.772h-135.2v10.772a178.208,178.208,0,0,1-20.886-15.327c-27.2-23.064-51.688-56.439-72.257-97.679-41.138-82.481-66.582-196.428-66.582-322.289s25.444-239.809,66.582-322.289c20.568-41.241,45.061-74.616,72.257-97.68A178.149,178.149,0,0,1-2405.5-2512.7v10.771h135.2V-2512.7a178.1,178.1,0,0,1,20.884,15.326c27.2,23.064,51.689,56.439,72.258,97.68C-2136.02-2317.217-2110.576-2203.27-2110.576-2077.408Z" transform="translate(2608.57 2500.328)"/><path class="t" d="M-2111.44-2078.1c0,125.328-25.337,238.793-66.3,320.923-20.482,41.065-44.87,74.3-71.951,97.265a177.37,177.37,0,0,1-20.8,15.261v-8.926h-134.625v8.926a177.226,177.226,0,0,1-20.8-15.261c-27.082-22.968-51.47-56.2-71.951-97.265-40.963-82.131-66.3-195.595-66.3-320.923s25.336-238.793,66.3-320.924c20.481-41.066,44.87-74.3,71.951-97.265a177.2,177.2,0,0,1,20.8-15.261v8.926h134.625v-8.926a177.348,177.348,0,0,1,20.8,15.261c27.082,22.966,51.469,56.2,71.951,97.265C-2136.777-2316.9-2111.44-2203.432-2111.44-2078.1Z" transform="translate(2608.47 2501.023)"/><path class="u" d="M-2112.3-2078.8c0,124.795-25.228,237.775-66.016,319.558-20.395,40.891-44.679,73.981-71.646,96.851a176.619,176.619,0,0,1-20.708,15.2v-7.083h-134.052v7.083a176.651,176.651,0,0,1-20.709-15.2c-26.966-22.87-51.25-55.961-71.645-96.851C-2537.869-1841.024-2563.1-1954-2563.1-2078.8s25.228-237.775,66.017-319.559c20.394-40.89,44.679-73.981,71.645-96.851a176.676,176.676,0,0,1,20.709-15.2v7.083h134.052v-7.083a176.644,176.644,0,0,1,20.708,15.2c26.966,22.869,51.251,55.96,71.646,96.851C-2137.533-2316.574-2112.3-2203.594-2112.3-2078.8Z" transform="translate(2608.372 2501.718)"/><path class="v" d="M-2113.169-2079.494c0,124.262-25.12,236.76-65.735,318.193-20.307,40.715-44.488,73.665-71.338,96.436a175.732,175.732,0,0,1-20.62,15.133v-5.238h-133.479v5.238a175.752,175.752,0,0,1-20.62-15.133c-26.851-22.771-51.031-55.72-71.339-96.436-40.614-81.433-65.734-193.931-65.734-318.193s25.12-236.759,65.734-318.193c20.308-40.716,44.488-73.666,71.339-96.438a175.722,175.722,0,0,1,20.62-15.13v5.236h133.479v-5.236a175.7,175.7,0,0,1,20.62,15.13c26.851,22.772,51.031,55.722,71.338,96.438C-2138.289-2316.253-2113.169-2203.756-2113.169-2079.494Z" transform="translate(2608.272 2502.412)"/><path class="w" d="M-2114.032-2080.188c0,123.728-25.013,235.744-65.453,316.827-20.22,40.541-44.3,73.35-71.033,96.023a174.8,174.8,0,0,1-20.531,15.066v-3.392h-132.906v3.392a174.808,174.808,0,0,1-20.532-15.066c-26.735-22.673-50.812-55.482-71.032-96.023-40.44-81.083-65.453-193.1-65.453-316.827s25.013-235.744,65.453-316.828c20.22-40.541,44.3-73.349,71.032-96.024a175.167,175.167,0,0,1,20.532-15.066v3.393h132.906v-3.393a175.158,175.158,0,0,1,20.531,15.066c26.736,22.675,50.813,55.483,71.033,96.024C-2139.046-2315.933-2114.032-2203.916-2114.032-2080.188Z" transform="translate(2608.174 2503.108)"/><path class="x" d="M-2114.9-2080.883c0,123.195-24.9,234.729-65.17,315.462-20.133,40.366-44.106,73.033-70.726,95.608a174.1,174.1,0,0,1-20.443,15v-1.549H-2403.57v1.549a174.057,174.057,0,0,1-20.443-15c-26.621-22.575-50.593-55.242-70.726-95.608-40.266-80.733-65.171-192.267-65.171-315.462s24.905-234.728,65.171-315.461c20.133-40.367,44.105-73.034,70.726-95.608a174.087,174.087,0,0,1,20.443-15v1.548h132.333v-1.548a174.128,174.128,0,0,1,20.443,15c26.62,22.575,50.593,55.242,70.726,95.608C-2139.8-2315.611-2114.9-2204.079-2114.9-2080.883Z" transform="translate(2608.075 2503.803)"/><path class="y" d="M-2115.762-2077.455c0,122.662-24.8,233.711-64.888,314.095-20.046,40.192-43.915,72.719-70.421,95.2-13.252,11.24-27.163,19.965-41.585,25.883v-10.649h-89.3v10.649c-14.422-5.918-28.333-14.643-41.586-25.883-26.5-22.478-50.373-55-70.419-95.2-40.092-80.384-64.888-191.433-64.888-314.095s24.8-233.711,64.888-314.1c20.046-40.19,43.915-72.716,70.419-95.194,13.253-11.239,27.164-19.966,41.586-25.883v10.649h89.3v-10.649c14.422,5.917,28.333,14.644,41.585,25.883,26.506,22.478,50.375,55,70.421,95.194C-2140.558-2311.166-2115.762-2200.117-2115.762-2077.455Z" transform="translate(2607.976 2500.374)"/><path class="z" d="M-2116.625-2078.167c0,122.128-24.689,232.7-64.606,312.729-19.959,40.018-43.724,72.4-70.114,94.781-13.2,11.19-27.046,19.879-41.4,25.771v-8.758h-88.91v8.758c-14.359-5.892-28.21-14.581-41.405-25.771-26.39-22.378-50.155-54.763-70.114-94.781-39.917-80.034-64.606-190.6-64.606-312.729s24.689-232.7,64.606-312.729c19.959-40.018,43.725-72.4,70.114-94.781,13.195-11.19,27.046-19.88,41.405-25.771v8.758h88.91v-8.758c14.359,5.891,28.209,14.581,41.4,25.771,26.39,22.378,50.156,54.763,70.114,94.781C-2141.315-2310.863-2116.625-2200.3-2116.625-2078.167Z" transform="translate(2607.876 2501.086)"/><path class="aa" d="M-2117.49-2078.88c0,121.6-24.582,231.679-64.324,311.363-19.872,39.843-43.533,72.087-69.808,94.367-13.137,11.142-26.928,19.793-41.224,25.659v-6.866h-88.521v6.866c-14.3-5.866-28.087-14.517-41.224-25.659-26.275-22.28-49.936-54.524-69.808-94.367-39.743-79.684-64.324-189.768-64.324-311.363s24.582-231.68,64.324-311.365c19.872-39.843,43.533-72.087,69.808-94.367,13.137-11.142,26.928-19.792,41.224-25.658v6.865h88.521v-6.865c14.3,5.866,28.087,14.516,41.224,25.658,26.275,22.281,49.937,54.524,69.808,94.367C-2142.071-2310.56-2117.49-2200.475-2117.49-2078.88Z" transform="translate(2607.777 2501.799)"/><path class="aa" d="M-2118.354-2079.593c0,121.062-24.474,230.662-64.041,310-19.785,39.668-43.343,71.769-69.5,93.954-13.079,11.092-26.81,19.706-41.043,25.546v-4.974h-88.134v4.974c-14.234-5.84-27.964-14.454-41.043-25.546-26.16-22.185-49.718-54.286-69.5-93.954-39.569-79.336-64.042-188.936-64.042-310s24.474-230.664,64.042-310c19.785-39.667,43.343-71.768,69.5-93.953,13.079-11.092,26.809-19.705,41.043-25.546v4.975h88.134v-4.975c14.233,5.841,27.964,14.454,41.043,25.546,26.159,22.185,49.718,54.286,69.5,93.953C-2142.828-2310.257-2118.354-2200.655-2118.354-2079.593Z" transform="translate(2607.678 2502.512)"/><path class="ab" d="M-2119.218-2080.306c0,120.529-24.365,229.646-63.76,308.633-19.7,39.493-43.151,71.453-69.195,93.539-13.022,11.044-26.692,19.619-40.864,25.433v-3.081h-87.744v3.081c-14.171-5.814-27.841-14.388-40.863-25.433-26.044-22.086-49.5-54.046-69.2-93.539-39.394-78.987-63.76-188.1-63.76-308.633s24.366-229.647,63.76-308.632c19.7-39.495,43.151-71.453,69.2-93.54,13.022-11.044,26.692-19.619,40.863-25.432v3.08h87.744v-3.08c14.172,5.813,27.841,14.388,40.864,25.432,26.043,22.087,49.5,54.046,69.195,93.54C-2143.584-2309.953-2119.218-2200.835-2119.218-2080.306Z" transform="translate(2607.579 2503.225)"/><ellipse class="ac" cx="216.727" cy="434.542" rx="216.727" ry="434.542" transform="translate(53.943 -11.623)"/><ellipse class="ad" cx="215.764" cy="432.61" rx="215.764" ry="432.61" transform="translate(54.906 -9.691)"/><ellipse class="ae" cx="214.801" cy="430.679" rx="214.801" ry="430.679" transform="translate(55.87 -7.76)"/><ellipse class="af" cx="213.838" cy="428.748" rx="213.838" ry="428.748" transform="translate(56.833 -5.829)"/><ellipse class="ag" cx="212.874" cy="426.817" rx="212.874" ry="426.817" transform="translate(57.796 -3.897)"/><ellipse class="ah" cx="211.911" cy="424.885" rx="211.911" ry="424.885" transform="translate(58.759 -1.966)"/><ellipse class="ai" cx="210.948" cy="422.954" rx="210.948" ry="422.954" transform="translate(59.723 -0.034)"/><ellipse class="aj" cx="209.985" cy="421.023" rx="209.985" ry="421.023" transform="translate(60.686 1.897)"/><ellipse class="ak" cx="209.022" cy="419.091" rx="209.022" ry="419.091" transform="translate(61.649 3.828)"/><ellipse class="al" cx="208.058" cy="417.16" rx="208.058" ry="417.16" transform="translate(62.612 5.759)"/><ellipse class="al" cx="207.095" cy="415.229" rx="207.095" ry="415.229" transform="translate(63.576 7.691)"/><ellipse class="am" cx="206.132" cy="413.297" rx="206.132" ry="413.297" transform="translate(64.539 9.622)"/><ellipse class="an" cx="205.169" cy="411.366" rx="205.169" ry="411.366" transform="translate(65.502 11.553)"/><ellipse class="an" cx="204.205" cy="409.435" rx="204.205" ry="409.435" transform="translate(66.465 13.484)"/><ellipse class="ao" cx="203.242" cy="407.504" rx="203.242" ry="407.504" transform="translate(67.429 15.416)"/><ellipse class="ap" cx="202.279" cy="405.572" rx="202.279" ry="405.572" transform="translate(68.392 17.347)"/><ellipse class="aq" cx="201.316" cy="403.641" rx="201.316" ry="403.641" transform="translate(69.355 19.278)"/><ellipse class="ar" cx="200.352" cy="401.71" rx="200.352" ry="401.71" transform="translate(70.318 21.21)"/><ellipse class="as" cx="199.389" cy="399.778" rx="199.389" ry="399.778" transform="translate(71.281 23.141)"/><ellipse class="at" cx="198.426" cy="397.847" rx="198.426" ry="397.847" transform="translate(72.245 25.072)"/><ellipse class="at" cx="197.463" cy="395.916" rx="197.463" ry="395.916" transform="translate(73.208 27.003)"/><ellipse class="au" cx="196.5" cy="393.985" rx="196.5" ry="393.985" transform="translate(74.171 28.935)"/><ellipse class="av" cx="195.536" cy="392.053" rx="195.536" ry="392.053" transform="translate(75.134 30.866)"/><ellipse class="aw" cx="194.573" cy="390.122" rx="194.573" ry="390.122" transform="translate(76.098 32.798)"/><ellipse class="ax" cx="193.61" cy="388.191" rx="193.61" ry="388.191" transform="translate(77.061 34.729)"/><ellipse class="ay" cx="192.647" cy="386.259" rx="192.647" ry="386.259" transform="translate(78.024 36.66)"/><ellipse class="az" cx="191.683" cy="384.328" rx="191.683" ry="384.328" transform="translate(78.987 38.591)"/><ellipse class="ba" cx="190.72" cy="382.397" rx="190.72" ry="382.397" transform="translate(79.951 40.523)"/><ellipse class="ba" cx="189.757" cy="380.465" rx="189.757" ry="380.465" transform="translate(80.914 42.454)"/><ellipse class="bb" cx="188.794" cy="378.534" rx="188.794" ry="378.534" transform="translate(81.877 44.385)"/><ellipse class="bc" cx="187.83" cy="376.603" rx="187.83" ry="376.603" transform="translate(82.84 46.316)"/><ellipse class="bd" cx="186.867" cy="374.672" rx="186.867" ry="374.672" transform="translate(83.804 48.248)"/><ellipse class="bd" cx="185.904" cy="372.74" rx="185.904" ry="372.74" transform="translate(84.767 50.179)"/><ellipse class="be" cx="184.941" cy="370.809" rx="184.941" ry="370.809" transform="translate(85.73 52.11)"/><ellipse class="bf" cx="183.977" cy="368.878" rx="183.977" ry="368.878" transform="translate(86.693 54.042)"/><ellipse class="bg" cx="183.014" cy="366.946" rx="183.014" ry="366.946" transform="translate(87.656 55.973)"/><ellipse class="bh" cx="182.051" cy="365.015" rx="182.051" ry="365.015" transform="translate(88.62 57.904)"/><ellipse class="bi" cx="181.088" cy="363.084" rx="181.088" ry="363.084" transform="translate(89.583 59.835)"/><ellipse class="bj" cx="180.125" cy="361.152" rx="180.125" ry="361.152" transform="translate(90.546 61.767)"/><ellipse class="bk" cx="179.161" cy="359.221" rx="179.161" ry="359.221" transform="translate(91.509 63.698)"/><ellipse class="bl" cx="178.198" cy="357.29" rx="178.198" ry="357.29" transform="translate(92.473 65.63)"/><ellipse class="bm" cx="177.235" cy="355.359" rx="177.235" ry="355.359" transform="translate(93.436 67.561)"/><ellipse class="bn" cx="176.272" cy="353.427" rx="176.272" ry="353.427" transform="translate(94.399 69.492)"/><ellipse class="bo" cx="175.308" cy="351.496" rx="175.308" ry="351.496" transform="translate(95.362 71.423)"/><ellipse class="bp" cx="174.345" cy="349.565" rx="174.345" ry="349.565" transform="translate(96.326 73.355)"/><ellipse class="bp" cx="173.382" cy="347.633" rx="173.382" ry="347.633" transform="translate(97.289 75.286)"/><ellipse class="bq" cx="172.419" cy="345.702" rx="172.419" ry="345.702" transform="translate(98.252 77.217)"/><ellipse class="br" cx="171.455" cy="343.771" rx="171.455" ry="343.771" transform="translate(99.215 79.149)"/><ellipse class="bs" cx="170.492" cy="341.84" rx="170.492" ry="341.84" transform="translate(100.179 81.08)"/><ellipse class="bt" cx="169.529" cy="339.908" rx="169.529" ry="339.908" transform="translate(101.142 83.011)"/><ellipse class="bu" cx="168.566" cy="337.977" rx="168.566" ry="337.977" transform="translate(102.105 84.942)"/><ellipse class="bv" cx="167.603" cy="336.046" rx="167.603" ry="336.046" transform="translate(103.068 86.874)"/><ellipse class="bw" cx="166.639" cy="334.114" rx="166.639" ry="334.114" transform="translate(104.031 88.805)"/><ellipse class="bx" cx="165.676" cy="332.183" rx="165.676" ry="332.183" transform="translate(104.995 90.736)"/><ellipse class="by" cx="164.713" cy="330.252" rx="164.713" ry="330.252" transform="translate(105.958 92.667)"/><ellipse class="bz" cx="163.75" cy="328.32" rx="163.75" ry="328.32" transform="translate(106.921 94.599)"/><ellipse class="ca" cx="162.786" cy="326.389" rx="162.786" ry="326.389" transform="translate(107.884 96.53)"/><ellipse class="ca" cx="161.823" cy="324.458" rx="161.823" ry="324.458" transform="translate(108.848 98.462)"/><ellipse class="cb" cx="160.86" cy="322.527" rx="160.86" ry="322.527" transform="translate(109.811 100.393)"/><ellipse class="cc" cx="159.897" cy="320.595" rx="159.897" ry="320.595" transform="translate(110.774 102.324)"/><ellipse class="cd" cx="158.933" cy="318.664" rx="158.933" ry="318.664" transform="translate(111.737 104.255)"/><ellipse class="cd" cx="157.97" cy="316.733" rx="157.97" ry="316.733" transform="translate(112.7 106.187)"/><ellipse class="ce" cx="157.007" cy="314.801" rx="157.007" ry="314.801" transform="translate(113.664 108.118)"/><ellipse class="cf" cx="156.044" cy="312.87" rx="156.044" ry="312.87" transform="translate(114.627 110.049)"/><ellipse class="cg" cx="155.081" cy="310.939" rx="155.081" ry="310.939" transform="translate(115.59 111.981)"/><ellipse class="ch" cx="154.117" cy="309.007" rx="154.117" ry="309.007" transform="translate(116.554 113.912)"/><ellipse class="ci" cx="153.154" cy="307.076" rx="153.154" ry="307.076" transform="translate(117.517 115.843)"/><ellipse class="cj" cx="152.191" cy="305.145" rx="152.191" ry="305.145" transform="translate(118.48 117.774)"/><ellipse class="ck" cx="151.228" cy="303.214" rx="151.228" ry="303.214" transform="translate(119.443 119.706)"/><ellipse class="cl" cx="150.264" cy="301.282" rx="150.264" ry="301.282" transform="translate(120.406 121.637)"/><ellipse class="cm" cx="149.301" cy="299.351" rx="149.301" ry="299.351" transform="translate(121.37 123.568)"/><ellipse class="cn" cx="148.338" cy="297.42" rx="148.338" ry="297.42" transform="translate(122.333 125.5)"/><ellipse class="co" cx="147.375" cy="295.488" rx="147.375" ry="295.488" transform="translate(123.296 127.431)"/><ellipse class="cp" cx="146.411" cy="293.557" rx="146.411" ry="293.557" transform="translate(124.259 129.362)"/><ellipse class="cq" cx="145.448" cy="291.626" rx="145.448" ry="291.626" transform="translate(125.223 131.294)"/><ellipse class="cr" cx="144.485" cy="289.694" rx="144.485" ry="289.694" transform="translate(126.186 133.225)"/><ellipse class="cs" cx="143.522" cy="287.763" rx="143.522" ry="287.763" transform="translate(127.149 135.156)"/><ellipse class="cs" cx="142.558" cy="285.832" rx="142.558" ry="285.832" transform="translate(128.112 137.088)"/><ellipse class="ct" cx="141.595" cy="283.901" rx="141.595" ry="283.901" transform="translate(129.075 139.019)"/><ellipse class="cu" cx="140.632" cy="281.969" rx="140.632" ry="281.969" transform="translate(130.039 140.95)"/><ellipse class="cv" cx="139.669" cy="280.038" rx="139.669" ry="280.038" transform="translate(131.002 142.881)"/><ellipse class="cw" cx="138.706" cy="278.107" rx="138.706" ry="278.107" transform="translate(131.965 144.813)"/><ellipse class="cx" cx="137.742" cy="276.175" rx="137.742" ry="276.175" transform="translate(132.929 146.744)"/><ellipse class="cy" cx="136.779" cy="274.244" rx="136.779" ry="274.244" transform="translate(133.892 148.675)"/><ellipse class="cz" cx="135.816" cy="272.313" rx="135.816" ry="272.313" transform="translate(134.855 150.606)"/><ellipse class="da" cx="134.853" cy="270.382" rx="134.853" ry="270.382" transform="translate(135.818 152.538)"/><ellipse class="db" cx="133.889" cy="268.45" rx="133.889" ry="268.45" transform="translate(136.781 154.469)"/><ellipse class="dc" cx="132.926" cy="266.519" rx="132.926" ry="266.519" transform="translate(137.745 156.4)"/><ellipse class="dd" cx="131.963" cy="264.588" rx="131.963" ry="264.588" transform="translate(138.708 158.332)"/><ellipse class="de" cx="131" cy="262.656" rx="131" ry="262.656" transform="translate(139.671 160.263)"/><ellipse class="df" cx="130.036" cy="260.725" rx="130.036" ry="260.725" transform="translate(140.634 162.194)"/><ellipse class="dg" cx="129.073" cy="258.794" rx="129.073" ry="258.794" transform="translate(141.598 164.126)"/><ellipse class="dh" cx="128.11" cy="256.862" rx="128.11" ry="256.862" transform="translate(142.561 166.057)"/><ellipse class="di" cx="127.147" cy="254.931" rx="127.147" ry="254.931" transform="translate(143.524 167.988)"/><ellipse class="dj" cx="126.184" cy="253" rx="126.184" ry="253" transform="translate(144.487 169.92)"/><ellipse class="dk" cx="125.22" cy="251.069" rx="125.22" ry="251.069" transform="translate(145.45 171.851)"/><ellipse class="dl" cx="124.257" cy="249.137" rx="124.257" ry="249.137" transform="translate(146.414 173.782)"/><ellipse class="dm" cx="123.294" cy="247.206" rx="123.294" ry="247.206" transform="translate(147.377 175.713)"/><ellipse class="dn" cx="122.331" cy="245.275" rx="122.331" ry="245.275" transform="translate(148.34 177.645)"/><ellipse class="do" cx="121.367" cy="243.343" rx="121.367" ry="243.343" transform="translate(149.303 179.576)"/><ellipse class="dp" cx="120.404" cy="241.412" rx="120.404" ry="241.412" transform="translate(150.267 181.507)"/><ellipse class="dq" cx="119.441" cy="239.481" rx="119.441" ry="239.481" transform="translate(151.23 183.438)"/><ellipse class="dr" cx="118.478" cy="237.549" rx="118.478" ry="237.549" transform="translate(152.193 185.37)"/><ellipse class="ds" cx="117.514" cy="235.618" rx="117.514" ry="235.618" transform="translate(153.156 187.301)"/><ellipse class="ds" cx="116.551" cy="233.687" rx="116.551" ry="233.687" transform="translate(154.12 189.232)"/><ellipse class="dt" cx="115.588" cy="231.756" rx="115.588" ry="231.756" transform="translate(155.083 191.164)"/><ellipse class="du" cx="114.625" cy="229.824" rx="114.625" ry="229.824" transform="translate(156.046 193.095)"/><ellipse class="dv" cx="113.661" cy="227.893" rx="113.661" ry="227.893" transform="translate(157.009 195.026)"/><ellipse class="dw" cx="112.698" cy="225.962" rx="112.698" ry="225.962" transform="translate(157.973 196.958)"/><ellipse class="dx" cx="111.735" cy="224.03" rx="111.735" ry="224.03" transform="translate(158.936 198.889)"/><ellipse class="dx" cx="110.772" cy="222.099" rx="110.772" ry="222.099" transform="translate(159.899 200.82)"/><ellipse class="dy" cx="109.809" cy="220.168" rx="109.809" ry="220.168" transform="translate(160.862 202.752)"/><ellipse class="dz" cx="108.845" cy="218.237" rx="108.845" ry="218.237" transform="translate(161.825 204.683)"/><ellipse class="ea" cx="107.882" cy="216.305" rx="107.882" ry="216.305" transform="translate(162.789 206.614)"/><ellipse class="eb" cx="106.919" cy="214.374" rx="106.919" ry="214.374" transform="translate(163.752 208.545)"/><ellipse class="ec" cx="105.956" cy="212.443" rx="105.956" ry="212.443" transform="translate(164.715 210.477)"/><ellipse class="ed" cx="104.992" cy="210.511" rx="104.992" ry="210.511" transform="translate(165.678 212.408)"/><ellipse class="ee" cx="104.029" cy="208.58" rx="104.029" ry="208.58" transform="translate(166.641 214.339)"/><ellipse class="ee" cx="103.066" cy="206.649" rx="103.066" ry="206.649" transform="translate(167.605 216.27)"/><ellipse class="ef" cx="102.103" cy="204.717" rx="102.103" ry="204.717" transform="translate(168.568 218.202)"/><ellipse class="eg" cx="101.139" cy="202.786" rx="101.139" ry="202.786" transform="translate(169.531 220.133)"/><ellipse class="eh" cx="100.176" cy="200.855" rx="100.176" ry="200.855" transform="translate(170.495 222.065)"/><ellipse class="ei" cx="99.213" cy="198.924" rx="99.213" ry="198.924" transform="translate(171.458 223.996)"/><ellipse class="ej" cx="98.25" cy="196.992" rx="98.25" ry="196.992" transform="translate(172.421 225.927)"/><ellipse class="ek" cx="97.287" cy="195.061" rx="97.287" ry="195.061" transform="translate(173.384 227.859)"/><ellipse class="el" cx="96.323" cy="193.13" rx="96.323" ry="193.13" transform="translate(174.348 229.79)"/><ellipse class="em" cx="95.36" cy="191.198" rx="95.36" ry="191.198" transform="translate(175.311 231.721)"/><ellipse class="en" cx="94.397" cy="189.267" rx="94.397" ry="189.267" transform="translate(176.274 233.652)"/><ellipse class="en" cx="93.434" cy="187.336" rx="93.434" ry="187.336" transform="translate(177.237 235.584)"/><ellipse class="eo" cx="92.47" cy="185.404" rx="92.47" ry="185.404" transform="translate(178.2 237.515)"/><ellipse class="ep" cx="91.507" cy="183.473" rx="91.507" ry="183.473" transform="translate(179.164 239.446)"/><ellipse class="eq" cx="90.544" cy="181.542" rx="90.544" ry="181.542" transform="translate(180.127 241.377)"/><ellipse class="er" cx="89.581" cy="179.611" rx="89.581" ry="179.611" transform="translate(181.09 243.309)"/><ellipse class="es" cx="88.617" cy="177.679" rx="88.617" ry="177.679" transform="translate(182.053 245.24)"/><ellipse class="et" cx="87.654" cy="175.748" rx="87.654" ry="175.748" transform="translate(183.016 247.171)"/><ellipse class="eu" cx="86.691" cy="173.817" rx="86.691" ry="173.817" transform="translate(183.98 249.103)"/><ellipse class="ev" cx="85.728" cy="171.885" rx="85.728" ry="171.885" transform="translate(184.943 251.034)"/><ellipse class="ew" cx="84.765" cy="169.954" rx="84.765" ry="169.954" transform="translate(185.906 252.965)"/><ellipse class="ex" cx="83.801" cy="168.023" rx="83.801" ry="168.023" transform="translate(186.869 254.897)"/><ellipse class="ey" cx="82.838" cy="166.092" rx="82.838" ry="166.092" transform="translate(187.833 256.828)"/><ellipse class="ez" cx="81.875" cy="164.16" rx="81.875" ry="164.16" transform="translate(188.796 258.759)"/><ellipse class="fa" cx="80.912" cy="162.229" rx="80.912" ry="162.229" transform="translate(189.759 260.691)"/><ellipse class="fb" cx="79.948" cy="160.298" rx="79.948" ry="160.298" transform="translate(190.722 262.622)"/><ellipse class="fc" cx="78.985" cy="158.366" rx="78.985" ry="158.366" transform="translate(191.686 264.553)"/><ellipse class="fd" cx="78.022" cy="156.435" rx="78.022" ry="156.435" transform="translate(192.649 266.484)"/><ellipse class="fe" cx="77.059" cy="154.504" rx="77.059" ry="154.504" transform="translate(193.612 268.416)"/><ellipse class="ff" cx="76.095" cy="152.572" rx="76.095" ry="152.572" transform="translate(194.575 270.347)"/><ellipse class="fg" cx="75.132" cy="150.641" rx="75.132" ry="150.641" transform="translate(195.539 272.278)"/><ellipse class="fh" cx="74.169" cy="148.71" rx="74.169" ry="148.71" transform="translate(196.502 274.209)"/><ellipse class="fi" cx="73.206" cy="146.779" rx="73.206" ry="146.779" transform="translate(197.465 276.141)"/><ellipse class="fj" cx="72.242" cy="144.847" rx="72.242" ry="144.847" transform="translate(198.428 278.072)"/><ellipse class="fk" cx="71.279" cy="142.916" rx="71.279" ry="142.916" transform="translate(199.391 280.003)"/><ellipse class="fl" cx="70.316" cy="140.985" rx="70.316" ry="140.985" transform="translate(200.355 281.935)"/><ellipse class="fm" cx="69.353" cy="139.053" rx="69.353" ry="139.053" transform="translate(201.318 283.866)"/><ellipse class="fn" cx="68.39" cy="137.122" rx="68.39" ry="137.122" transform="translate(202.281 285.797)"/><ellipse class="fo" cx="67.426" cy="135.191" rx="67.426" ry="135.191" transform="translate(203.244 287.729)"/><ellipse class="fp" cx="66.463" cy="133.259" rx="66.463" ry="133.259" transform="translate(204.208 289.66)"/><ellipse class="fq" cx="65.5" cy="131.328" rx="65.5" ry="131.328" transform="translate(205.171 291.591)"/><ellipse class="fr" cx="64.537" cy="129.397" rx="64.537" ry="129.397" transform="translate(206.134 293.523)"/><ellipse class="fs" cx="63.573" cy="127.466" rx="63.573" ry="127.466" transform="translate(207.097 295.454)"/><ellipse class="ft" cx="62.61" cy="125.534" rx="62.61" ry="125.534" transform="translate(208.061 297.385)"/><ellipse class="fu" cx="61.647" cy="123.603" rx="61.647" ry="123.603" transform="translate(209.024 299.316)"/><ellipse class="fv" cx="60.684" cy="121.672" rx="60.684" ry="121.672" transform="translate(209.987 301.248)"/><ellipse class="fw" cx="59.72" cy="119.74" rx="59.72" ry="119.74" transform="translate(210.95 303.179)"/><ellipse class="fx" cx="58.757" cy="117.809" rx="58.757" ry="117.809" transform="translate(211.914 305.11)"/><ellipse class="fy" cx="57.794" cy="115.878" rx="57.794" ry="115.878" transform="translate(212.877 307.042)"/><ellipse class="fz" cx="56.831" cy="113.947" rx="56.831" ry="113.947" transform="translate(213.84 308.973)"/><ellipse class="ga" cx="55.868" cy="112.015" rx="55.868" ry="112.015" transform="translate(214.803 310.904)"/><ellipse class="gb" cx="54.904" cy="110.084" rx="54.904" ry="110.084" transform="translate(215.766 312.835)"/><ellipse class="gc" cx="53.941" cy="108.153" rx="53.941" ry="108.153" transform="translate(216.73 314.767)"/><ellipse class="gd" cx="52.978" cy="106.221" rx="52.978" ry="106.221" transform="translate(217.693 316.698)"/><ellipse class="ge" cx="52.015" cy="104.29" rx="52.015" ry="104.29" transform="translate(218.656 318.63)"/><ellipse class="gf" cx="51.051" cy="102.359" rx="51.051" ry="102.359" transform="translate(219.619 320.561)"/><ellipse class="gg" cx="50.088" cy="100.427" rx="50.088" ry="100.427" transform="translate(220.583 322.492)"/><ellipse class="gh" cx="49.125" cy="98.496" rx="49.125" ry="98.496" transform="translate(221.546 324.423)"/><ellipse class="gi" cx="48.162" cy="96.565" rx="48.162" ry="96.565" transform="translate(222.509 326.355)"/><ellipse class="gj" cx="47.198" cy="94.634" rx="47.198" ry="94.634" transform="translate(223.472 328.286)"/><ellipse class="gk" cx="46.235" cy="92.702" rx="46.235" ry="92.702" transform="translate(224.436 330.217)"/><ellipse class="gl" cx="45.272" cy="90.771" rx="45.272" ry="90.771" transform="translate(225.399 332.148)"/><ellipse class="gm" cx="44.309" cy="88.84" rx="44.309" ry="88.84" transform="translate(226.362 334.08)"/><ellipse class="gn" cx="43.345" cy="86.908" rx="43.345" ry="86.908" transform="translate(227.325 336.011)"/><ellipse class="go" cx="42.382" cy="84.977" rx="42.382" ry="84.977" transform="translate(228.289 337.942)"/><ellipse class="gp" cx="41.419" cy="83.046" rx="41.419" ry="83.046" transform="translate(229.252 339.874)"/><ellipse class="gq" cx="40.456" cy="81.114" rx="40.456" ry="81.114" transform="translate(230.215 341.805)"/><ellipse class="gr" cx="39.493" cy="79.183" rx="39.493" ry="79.183" transform="translate(231.178 343.736)"/><ellipse class="gs" cx="38.529" cy="77.252" rx="38.529" ry="77.252" transform="translate(232.141 345.667)"/><ellipse class="gt" cx="37.566" cy="75.321" rx="37.566" ry="75.321" transform="translate(233.105 347.599)"/><ellipse class="gu" cx="36.603" cy="73.389" rx="36.603" ry="73.389" transform="translate(234.068 349.53)"/><ellipse class="gv" cx="35.64" cy="71.458" rx="35.64" ry="71.458" transform="translate(235.031 351.462)"/><ellipse class="gw" cx="34.676" cy="69.527" rx="34.676" ry="69.527" transform="translate(235.994 353.393)"/><ellipse class="gx" cx="33.713" cy="67.595" rx="33.713" ry="67.595" transform="translate(236.958 355.324)"/><ellipse class="gy" cx="32.75" cy="65.664" rx="32.75" ry="65.664" transform="translate(237.921 357.255)"/><ellipse class="gz" cx="31.787" cy="63.733" rx="31.787" ry="63.733" transform="translate(238.884 359.187)"/><ellipse class="ha" cx="30.823" cy="61.801" rx="30.823" ry="61.801" transform="translate(239.847 361.118)"/><ellipse class="hb" cx="29.86" cy="59.87" rx="29.86" ry="59.87" transform="translate(240.81 363.049)"/><ellipse class="hc" cx="28.897" cy="57.939" rx="28.897" ry="57.939" transform="translate(241.774 364.98)"/><ellipse class="hd" cx="27.934" cy="56.008" rx="27.934" ry="56.008" transform="translate(242.737 366.912)"/><ellipse class="he" cx="26.971" cy="54.076" rx="26.971" ry="54.076" transform="translate(243.7 368.843)"/><ellipse class="hf" cx="26.007" cy="52.145" rx="26.007" ry="52.145" transform="translate(244.664 370.774)"/><ellipse class="hg" cx="25.044" cy="50.214" rx="25.044" ry="50.214" transform="translate(245.627 372.706)"/><ellipse class="hh" cx="24.081" cy="48.282" rx="24.081" ry="48.282" transform="translate(246.59 374.637)"/><ellipse class="hi" cx="23.118" cy="46.351" rx="23.118" ry="46.351" transform="translate(247.553 376.568)"/><ellipse class="hj" cx="22.154" cy="44.42" rx="22.154" ry="44.42" transform="translate(248.516 378.499)"/><ellipse class="hk" cx="21.191" cy="42.489" rx="21.191" ry="42.489" transform="translate(249.48 380.431)"/><ellipse class="hl" cx="20.228" cy="40.557" rx="20.228" ry="40.557" transform="translate(250.443 382.362)"/><ellipse class="hm" cx="19.265" cy="38.626" rx="19.265" ry="38.626" transform="translate(251.406 384.294)"/><ellipse class="hn" cx="18.301" cy="36.695" rx="18.301" ry="36.695" transform="translate(252.369 386.225)"/><ellipse class="ho" cx="17.338" cy="34.763" rx="17.338" ry="34.763" transform="translate(253.333 388.156)"/><ellipse class="hp" cx="16.375" cy="32.832" rx="16.375" ry="32.832" transform="translate(254.296 390.087)"/><ellipse class="hq" cx="15.412" cy="30.901" rx="15.412" ry="30.901" transform="translate(255.259 392.019)"/><ellipse class="hr" cx="14.448" cy="28.969" rx="14.448" ry="28.969" transform="translate(256.222 393.95)"/><ellipse class="hs" cx="13.485" cy="27.038" rx="13.485" ry="27.038" transform="translate(257.185 395.881)"/><ellipse class="ht" cx="12.522" cy="25.107" rx="12.522" ry="25.107" transform="translate(258.149 397.813)"/><ellipse class="hu" cx="11.559" cy="23.176" rx="11.559" ry="23.176" transform="translate(259.112 399.744)"/><ellipse class="hv" cx="10.596" cy="21.244" rx="10.596" ry="21.244" transform="translate(260.075 401.675)"/><ellipse class="hw" cx="9.632" cy="19.313" rx="9.632" ry="19.313" transform="translate(261.038 403.606)"/><ellipse class="hx" cx="8.669" cy="17.382" rx="8.669" ry="17.382" transform="translate(262.002 405.538)"/><ellipse class="hy" cx="7.706" cy="15.45" rx="7.706" ry="15.45" transform="translate(262.965 407.469)"/><ellipse class="hz" cx="6.743" cy="13.519" rx="6.743" ry="13.519" transform="translate(263.928 409.4)"/><ellipse class="ia" cx="5.779" cy="11.588" rx="5.779" ry="11.588" transform="translate(264.891 411.331)"/><ellipse class="ib" cx="4.816" cy="9.656" rx="4.816" ry="9.656" transform="translate(265.855 413.263)"/><ellipse class="ic" cx="3.853" cy="7.725" rx="3.853" ry="7.725" transform="translate(266.818 415.194)"/><ellipse class="id" cx="2.89" cy="5.794" rx="2.89" ry="5.794" transform="translate(267.781 417.126)"/><ellipse class="ie" cx="1.926" cy="3.863" rx="1.926" ry="3.863" transform="translate(268.744 419.057)"/><ellipse class="if" cx="0.963" cy="1.931" rx="0.963" ry="1.931" transform="translate(269.708 420.988)"/></g></g></g><text class="ig" transform="translate(270.917 386)"><tspan x="-107.245" y="0">1st Prize</tspan><tspan class="ih"><tspan x="-150.252" y="68">Rs. 50,000</tspan></tspan></text><g class="ii" transform="translate(19.917 23.062)"><rect class="im" width="500" height="485.938"/><rect class="b" x="1" y="1" width="498" height="483.938"/></g><g transform="translate(207.044 161.254)"><path class="if" d="M351.576,420.51q2.244.77,2.327-.737h.67l.435,7.117-.67.067q-1.642-6.614-8.105-6.615-3.617.017-5.978,3.584a14.68,14.68,0,0,0-2.261,8.289q0,11.4,8.675,11.4,5.927,0,8.389-4.789l.637.184q-2.378,5.51-9.244,5.51a14.591,14.591,0,0,1-7.083-1.624,11.838,11.838,0,0,1-4.588-4.471,12.029,12.029,0,0,1-1.675-6.213,13.069,13.069,0,0,1,1.591-6.4,12,12,0,0,1,4.672-4.622,13.835,13.835,0,0,1,6.983-1.758A16.912,16.912,0,0,1,351.576,420.51Z" transform="translate(-333.105 -419.438)"/><path class="if" d="M407.71,420.259l.368,5.811-.653.1Q407.073,421,401.614,421H395.5v10.148h3.1q3.567,0,3.567-3.651h.653v8.122h-.653q0-3.718-3.567-3.718h-3.1v7.988q0,4.086,5.493,4.086,7.686,0,8.038-6.347l.6.05-.419,6.95H388.184v-.67q3.047-.067,3.048-3.031v-16.93q.016-3.115-3.048-3.065v-.67Z" transform="translate(-364.589 -419.907)"/><path class="if" d="M449.127,420.259a3.039,3.039,0,0,0,.837,1.607q3.349,4.974,11.1,15.273V423.993q0-3.064-3.064-3.065v-.67h6.849v.7q-3.014-.033-3.014,3.031v20.631h-1.289l-16.143-21.7v17.968Q444.387,444,447.435,444v.619H440.6v-.653q2.98,0,3-3.082v-16.9q-.017-3.064-3-3.065v-.67Z" transform="translate(-394.552 -419.907)"/><path class="if" d="M523.365,420.259l.368,5.844-.653.033q-.352-5.157-5.409-5.157h-3.9v19.944q0,3.031,3.065,3.031v.67H506.451v-.67q3.065,0,3.064-3.031V420.979h-3.9q-5.057,0-5.409,5.157l-.653-.067.368-5.811Z" transform="translate(-428.248 -419.907)"/><path class="if" d="M570.684,420.219a7.865,7.865,0,0,1,5.225,1.842,5.657,5.657,0,0,1,2.16,4.454,5.578,5.578,0,0,1-1.742,4.07,7.612,7.612,0,0,1-4.387,2.11,3.7,3.7,0,0,1,3.165,2.311l2.294,4.589q2.143,4.337,4.991,4.337v.67h-8.323a10.752,10.752,0,0,0-1.223-4.421l-2.127-4.773a4.64,4.64,0,0,0-1.658-1.909,4.791,4.791,0,0,0-2.713-.687h-.67V440.9q-.017,3.031,3.031,3.031v.67H558.343v-.67q3.031.017,3.031-3.031V423.97q.016-3.064-3.031-3.065v-.687Zm-5.007,11.856h1.574a6.637,6.637,0,0,0,4.589-1.583,5.287,5.287,0,0,0,0-7.9,6.637,6.637,0,0,0-4.589-1.583h-1.574Z" transform="translate(-461.853 -419.884)"/><path class="if" d="M636.348,420.259l.369,5.811-.654.1q-.351-5.175-5.81-5.174H624.14v10.148h3.1q3.567,0,3.567-3.651h.653v8.122H630.8q0-3.718-3.567-3.718h-3.1v7.988q0,4.086,5.493,4.086,7.685,0,8.038-6.347l.6.05-.419,6.95H616.822v-.67q3.047-.067,3.048-3.031v-16.93q.017-3.115-3.048-3.065v-.67Z" transform="translate(-495.28 -419.907)"/></g><g transform="translate(157.52 206.094)"><path class="if" d="M243.806,490.973q5.123,2.269,5.2-1.024h1.427l1.134,14.818-1.354.146a23.41,23.41,0,0,0-4.354-9.66,11.483,11.483,0,0,0-9.843-4.245,10.8,10.8,0,0,0-7.062,2.415,6.264,6.264,0,0,0-2.232,3.586,8.76,8.76,0,0,0-.146,4.5,6.721,6.721,0,0,0,1.976,3.513q1.939,1.975,9.294,4.647a71.052,71.052,0,0,1,9.769,4.171,17.084,17.084,0,0,1,5.854,5.416,14.636,14.636,0,0,1,1.757,8.306,16.883,16.883,0,0,1-5.562,11.819q-5.416,5.014-14.16,4.574a22.6,22.6,0,0,1-10.209-3.147,18.056,18.056,0,0,0-3.165-1.519,2.051,2.051,0,0,0-2.177.568,4.971,4.971,0,0,0-1.134,3.33H217.5v-16.32h1.317a21.463,21.463,0,0,0,5.342,10.392,16.222,16.222,0,0,0,11.2,4.574,13.741,13.741,0,0,0,8.818-2.232,7.994,7.994,0,0,0,3-3.952,10.934,10.934,0,0,0,.585-4.866,8.284,8.284,0,0,0-1.61-4.135,14.176,14.176,0,0,0-4.025-3.184,49.239,49.239,0,0,0-6.623-3,62,62,0,0,1-5.781-2.488q-11.124-5.634-11.2-14.27A13.422,13.422,0,0,1,222.84,493.5q4.976-4.318,12.806-4.318A20.225,20.225,0,0,1,243.806,490.973Z" transform="translate(-217.498 -489.144)"/><path class="if" d="M363.227,490.974l.8,12.769-1.427.073q-.768-11.269-11.819-11.27h-8.525v43.579q0,6.623,6.7,6.622v1.464H326.272v-1.464q6.7,0,6.7-6.622V492.547h-8.526q-11.051,0-11.819,11.27l-1.427-.146.8-12.7Z" transform="translate(-271.057 -490.169)"/><path class="if" d="M446.114,490.974l19.064,45.884q2.414,5.6,7.684,5.745v1.61H450.98V542.6q6.22.073,3.879-5.745l-4.172-10.319H431.843l-3.951,10.319q-2.3,5.745,3.915,5.745v1.61H418.3V542.6q5.6.11,7.867-5.745l17.454-45.884ZM432.465,525h17.6q-.988-2.341-9.037-22.393Q433.05,523.5,432.465,525Z" transform="translate(-332.281 -490.169)"/><path class="if" d="M577.621,491.473q4.9,1.684,5.2-1.573h1.427l.841,15.514-1.354.146q-3.586-14.416-17.819-14.453-7.978.074-13.026,7.757-4.94,7.539-4.977,18.149a43.337,43.337,0,0,0,1.756,12.77,18.158,18.158,0,0,0,5.635,8.782,14.015,14.015,0,0,0,9.587,3.4q5.342.11,8.416-2.708a9.4,9.4,0,0,0,3.11-7.428v-1.9q0-6.769-7.245-8.453v-1.61h24v1.61Q586,523.051,586,529.93v6.257a31.067,31.067,0,0,1-8.745,5.342A34.279,34.279,0,0,1,565,543.98q-12.111.22-19.905-7.5a26.176,26.176,0,0,1-7.977-19.466,28.167,28.167,0,0,1,3.622-13.9,26.2,26.2,0,0,1,10.135-10.172,30.125,30.125,0,0,1,15.332-3.842A38.208,38.208,0,0,1,577.621,491.473Z" transform="translate(-400.194 -489.095)"/><path class="if" d="M715.758,490.974l.8,12.7-1.427.219q-.768-11.306-12.7-11.307H689.084v22.174h6.769q7.794,0,7.794-7.977h1.427v17.747h-1.427q0-8.124-7.794-8.123h-6.769v17.454q0,8.929,12,8.928,16.795,0,17.564-13.868l1.317.11-.915,15.185H673.094v-1.464q6.659-.146,6.659-6.622V499.133q.036-6.806-6.659-6.7v-1.463Z" transform="translate(-477.921 -490.169)"/></g><g transform="translate(144.671 52)"><path class="ij" d="M455.245,266.771c0,18.747-64.915,49.7-134.7,49.7s-133.037-30.956-133.037-49.7,63.246-57.4,133.037-57.4S455.245,248.022,455.245,266.771Z" transform="translate(-187.506 -209.376)"/><g transform="translate(60.749 17.853)"><rect class="ik" width="151.032" height="1.295" transform="translate(0 54.437)"/><g transform="translate(52.856)"><g transform="translate(22.835 18.466)"><path class="ik" d="M517.326,296.694c-2.545.322-3.33,2.737-5.788,4.72A15.871,15.871,0,0,1,506,304.156s4.173.577,11.815-3.138c5.156-2.506,5.391-6.863,5.391-6.863s-1.523,1.98-5.88,2.539" transform="translate(-506 -294.155)"/></g><g transform="translate(6.638 18.792)"><path class="ik" d="M468.191,294.917a12.129,12.129,0,0,0,4.516,6.853,11.39,11.39,0,0,0,7.612,2.822C476.659,297.047,471.86,295.64,468.191,294.917Z" transform="translate(-468.191 -294.917)"/></g><g transform="translate(7.907 15.052)"><path class="ik" d="M472.288,289c.844,1.773,1.947,1.094,3.726,2.248a3.174,3.174,0,0,1,.891.889s.042-.829-1.616-3.313a7.087,7.087,0,0,0-4.137-2.634,20.583,20.583,0,0,0,1.136,2.81" transform="translate(-471.152 -286.187)"/></g><g transform="translate(0 18.432)"><path class="ik" d="M456.9,300.249c4.164,2.762,11.307,3.818,11.307,3.818s-4.507-1.108-6.318-3.183-2.062-3.766-4.255-4.219c-3.752-.771-4.942-2.59-4.942-2.59s.042,3.408,4.208,6.173" transform="translate(-452.695 -294.076)"/></g><g transform="translate(12.065)"><path class="ik" d="M490.617,251.46c-7.082,4.365-10.207,10.018-9.708,13.823.851,6.473,6.327,12.193,8.064,14.234-2.652-10.887,4.552-12.478,4.552-20.32,0-2.5-1.855-6.826-2.39-8.147-.254.205-.392.3-.518.41" transform="translate(-480.858 -251.05)"/></g><g transform="translate(20.265)"><path class="ik" d="M502.547,251.05a31.153,31.153,0,0,1,3.261,2.321,5.6,5.6,0,0,1,2.2,3.525,1.611,1.611,0,0,0,.871,1.234c.415.221.814.456,1.221.679.2.114.412.213.616.341.785.491.82.722.24,1.436a2.031,2.031,0,0,0-.254.362.546.546,0,0,0,.216.816c.249.185.5.365.733.536-.15.459-.739.471-.775,1,.255.07.511.144.981.271a1.979,1.979,0,0,0-.393.293c-.436.583-.4.776.154,1.206.115.091.242.17.35.271.412.392.4.722-.072,1.037a3.524,3.524,0,0,1-.86.394,9.465,9.465,0,0,1-1.292.338,5.386,5.386,0,0,0-2.514,1.153c-5.139,4.215-6.8,10.684-6.6,11.291-2.976-9.249,5.607-14.293,5.036-20.217A20.649,20.649,0,0,0,502.547,251.05Z" transform="translate(-500 -251.05)"/></g><g transform="translate(21.879 15.665)"><path class="ik" d="M507.8,292.292a18.854,18.854,0,0,0-4.029,8.128c5.464-1.848,11.095-7.115,11.095-12.8a14.971,14.971,0,0,0-7.065,4.674" transform="translate(-503.767 -287.618)"/></g></g><g transform="translate(2.634 25.995)"><path class="il" d="M345.051,336.138a7.452,7.452,0,0,0,1.918-.252,5.733,5.733,0,0,0,1.7-.75,4.039,4.039,0,0,0,1.206-1.218,3.079,3.079,0,0,0,.454-1.676,3.46,3.46,0,0,0-.622-2.032,7.072,7.072,0,0,0-1.631-1.63,16.279,16.279,0,0,0-2.3-1.4q-1.294-.655-2.639-1.311t-2.64-1.378a13.005,13.005,0,0,1-2.3-1.612,7.74,7.74,0,0,1-1.631-1.985,5.014,5.014,0,0,1-.623-2.519,6.2,6.2,0,0,1,.564-2.642,5.911,5.911,0,0,1,1.65-2.107,7.987,7.987,0,0,1,2.679-1.4,12.04,12.04,0,0,1,3.648-.506,13.422,13.422,0,0,1,3.321.375,8.418,8.418,0,0,1,2.569,1.105,7.169,7.169,0,0,1,1.878,1.8,9.242,9.242,0,0,1,1.246,2.473l-2.253.974a9.615,9.615,0,0,0-1.009-2.089,6.707,6.707,0,0,0-1.463-1.621,6.288,6.288,0,0,0-1.967-1.04,8.088,8.088,0,0,0-2.521-.365,6.554,6.554,0,0,0-2.175.327,4.828,4.828,0,0,0-1.552.862,3.528,3.528,0,0,0-.929,1.2,3.221,3.221,0,0,0-.307,1.359,2.846,2.846,0,0,0,.633,1.788,7.444,7.444,0,0,0,1.68,1.537,20.561,20.561,0,0,0,2.382,1.4q1.334.675,2.719,1.367t2.718,1.443a15.034,15.034,0,0,1,2.381,1.639,7.845,7.845,0,0,1,1.681,1.947,4.527,4.527,0,0,1,.632,2.37,6.628,6.628,0,0,1-.592,2.782,6.237,6.237,0,0,1-1.779,2.267,8.93,8.93,0,0,1-2.947,1.526,13.473,13.473,0,0,1-4.092.562,13.184,13.184,0,0,1-3.38-.394,8.827,8.827,0,0,1-2.62-1.142,7.766,7.766,0,0,1-1.946-1.826,9.615,9.615,0,0,1-1.325-2.464l2.353-.918a7.988,7.988,0,0,0,1.116,2.173,7.154,7.154,0,0,0,3.7,2.641A8.059,8.059,0,0,0,345.051,336.138Z" transform="translate(-335.462 -311.73)"/><path class="il" d="M390.025,323.814l9.833,20.71h-3.578l-3.183-7.062h-8.966l-3.293,7.062h-1.765l10.07-20.71Zm-5.279,12.364h7.705l-3.8-7.839Z" transform="translate(-360.39 -318.637)"/><path class="il" d="M432.365,323.8h1.97l13.693,14.484h.158V323.8h1.544v20.717h-.819l-14.828-16.551h-.126v16.551h-1.591Z" transform="translate(-390.853 -318.628)"/><path class="il" d="M496.313,323.814V325.1h-7.563v19.426h-3.515V325.1h-7.563v-1.284Z" transform="translate(-416.751 -318.637)"/><path class="il" d="M529.8,344.524a12.346,12.346,0,0,1-4.53-.821,11.538,11.538,0,0,1-3.656-2.247,10.545,10.545,0,0,1-2.442-3.329,9.475,9.475,0,0,1-.891-4.069,9.282,9.282,0,0,1,.4-2.732,9.579,9.579,0,0,1,1.141-2.449,10.359,10.359,0,0,1,1.789-2.068,11.4,11.4,0,0,1,2.325-1.6,12.376,12.376,0,0,1,2.757-1.03,13.321,13.321,0,0,1,6.208,0,12.559,12.559,0,0,1,2.765,1.03,11.146,11.146,0,0,1,2.325,1.6,10.709,10.709,0,0,1,1.788,2.068,9.417,9.417,0,0,1,1.151,2.449,9.321,9.321,0,0,1,.4,2.732,9.592,9.592,0,0,1-.4,2.77,9.851,9.851,0,0,1-1.151,2.5,10.883,10.883,0,0,1-1.788,2.121,11.33,11.33,0,0,1-2.325,1.642,12.089,12.089,0,0,1-2.765,1.06A12.672,12.672,0,0,1,529.8,344.524Zm0-.984a6.851,6.851,0,0,0,3.177-.71,6.675,6.675,0,0,0,2.324-1.979,9,9,0,0,0,1.426-3,14.121,14.121,0,0,0,.481-3.792,13.744,13.744,0,0,0-.481-3.748,8.612,8.612,0,0,0-1.426-2.934,6.543,6.543,0,0,0-2.324-1.911,7.836,7.836,0,0,0-6.383,0,6.453,6.453,0,0,0-2.316,1.911,8.544,8.544,0,0,0-1.409,2.934,13.939,13.939,0,0,0-.473,3.748,14.322,14.322,0,0,0,.473,3.792,8.928,8.928,0,0,0,1.409,3,6.583,6.583,0,0,0,2.316,1.979A6.917,6.917,0,0,0,529.8,343.539Z" transform="translate(-439.962 -318.637)"/><path class="il" d="M588.52,344.524a12.34,12.34,0,0,1-4.53-.821,11.516,11.516,0,0,1-3.656-2.247,10.52,10.52,0,0,1-2.442-3.329,9.48,9.48,0,0,1-.89-4.069,9.254,9.254,0,0,1,.4-2.732,9.492,9.492,0,0,1,1.142-2.449,10.288,10.288,0,0,1,1.788-2.068,11.37,11.37,0,0,1,2.325-1.6,12.379,12.379,0,0,1,2.757-1.03,13.322,13.322,0,0,1,6.209,0,12.565,12.565,0,0,1,2.766,1.03,11.152,11.152,0,0,1,2.324,1.6,10.712,10.712,0,0,1,1.789,2.068,9.433,9.433,0,0,1,1.149,2.449,9.3,9.3,0,0,1,.4,2.732,9.567,9.567,0,0,1-.4,2.77,9.868,9.868,0,0,1-1.149,2.5,10.886,10.886,0,0,1-1.789,2.121,11.337,11.337,0,0,1-2.324,1.642,12.1,12.1,0,0,1-2.766,1.06A12.68,12.68,0,0,1,588.52,344.524Zm0-.984a6.85,6.85,0,0,0,3.176-.71,6.668,6.668,0,0,0,2.323-1.979,8.98,8.98,0,0,0,1.427-3,14.179,14.179,0,0,0,.48-3.792,13.8,13.8,0,0,0-.48-3.748,8.6,8.6,0,0,0-1.427-2.934,6.536,6.536,0,0,0-2.323-1.911,7.835,7.835,0,0,0-6.383,0A6.452,6.452,0,0,0,583,327.376a8.562,8.562,0,0,0-1.411,2.934,13.986,13.986,0,0,0-.473,3.748,14.371,14.371,0,0,0,.473,3.792,8.947,8.947,0,0,0,1.411,3,6.583,6.583,0,0,0,2.316,1.979A6.916,6.916,0,0,0,588.52,343.539Z" transform="translate(-473.528 -318.637)"/><path class="il" d="M635.587,323.919h7.249a12.776,12.776,0,0,1,3.293.381,7.131,7.131,0,0,1,2.363,1.067A4.556,4.556,0,0,1,649.918,327a4.5,4.5,0,0,1,.481,2.068,4.1,4.1,0,0,1-.37,1.732,4.83,4.83,0,0,1-1.04,1.456,6.387,6.387,0,0,1-1.615,1.121,9.69,9.69,0,0,1-2.08.739l7.61,10.466h-4.08l-7.263-10.168H639.1v10.168h-3.514Zm3.514,9.5h2.033a7.6,7.6,0,0,0,2.182-.3,5.529,5.529,0,0,0,1.733-.844,3.9,3.9,0,0,0,1.143-1.322,3.689,3.689,0,0,0,.409-1.746,4.105,4.105,0,0,0-.321-1.643,3.638,3.638,0,0,0-.915-1.276,4.293,4.293,0,0,0-1.4-.829,5.085,5.085,0,0,0-1.773-.3H639.1Z" transform="translate(-507.016 -318.697)"/></g></g></g><g transform="translate(245.595 278.882)"><path class="if" d="M428.474,631.928a1.773,1.773,0,0,0-1.835-2.113c-1.866,0-2.066,1.172-2.066,2.067a1.519,1.519,0,0,0,1.095,1.573c.617.232,1.218.463,1.836.694,2.19.817,2.591,1.588,2.591,3.114a3.252,3.252,0,0,1-3.593,3.47,3.157,3.157,0,0,1-3.161-1.835,6.458,6.458,0,0,1-.247-2.113h1.28c-.062,1.712.262,2.792,2.189,2.792a1.941,1.941,0,0,0,2.205-2.02c0-1.758-.709-1.773-1.881-2.22-.632-.247-1.65-.57-2.267-.894a2.584,2.584,0,0,1-1.373-2.621,3.036,3.036,0,0,1,3.223-3.161c2.112,0,3.408,1.1,3.284,3.269Z" transform="translate(-423.093 -628.659)"/><path class="if" d="M451.787,641.594c.077,1.681-.787,3.084-2.591,3.084-1.619,0-2.776-1.079-2.776-4.534,0-1.8.478-4.5,2.745-4.5,2.776,0,2.621,2.621,2.683,4.626h-4.164c.031,1.157-.169,3.377,1.542,3.377,1.172,0,1.5-1.079,1.418-2.051Zm-1.2-2.328c-.047-1,.016-2.591-1.4-2.591s-1.45,1.573-1.5,2.591Z" transform="translate(-436.427 -632.651)"/><path class="if" d="M471.524,644.447a1.835,1.835,0,0,0-.278.062c-1.033.046-1.418-.046-1.542-1.218h-.031a2.174,2.174,0,0,1-1.9,1.388c-1.712,0-2.205-.956-2.205-2.513a2.191,2.191,0,0,1,1.233-2.082c.694-.308,2.421-.956,2.576-1.079.262-.2.231-.54.231-.987,0-.971-.37-1.341-1.357-1.341-1.11,0-1.264.509-1.249,1.511h-1.095c-.062-1.774.817-2.544,2.544-2.544a2.057,2.057,0,0,1,2.328,2.328v4.919c0,.216-.031.524.216.647a1.479,1.479,0,0,0,.524.015Zm-2-4.626c-.6.355-1.28.617-1.928.925a1.527,1.527,0,0,0-.756,1.48c0,.863.216,1.419,1.2,1.419a1.567,1.567,0,0,0,1.481-1.742Z" transform="translate(-447.374 -632.651)"/><path class="if" d="M489.6,638.171c.047-1.017-.324-1.5-1.357-1.5-.863,0-1.357.4-1.357,1.3,0,1.11.91,1.249,1.743,1.6,1.234.555,2.467.864,2.467,2.467a2.933,2.933,0,0,1-5.027,1.742,2.625,2.625,0,0,1-.478-1.835h1.156c-.046,1.048.309,1.7,1.45,1.7.987,0,1.634-.4,1.634-1.449,0-1.218-1.233-1.326-2.112-1.7-1.326-.493-2.1-.94-2.1-2.436a2.332,2.332,0,0,1,2.513-2.421c1.7,0,2.683.771,2.653,2.529Z" transform="translate(-458.815 -632.651)"/><path class="if" d="M508.528,644.678c-1.85,0-3.069-1.11-3.069-4.811,0-2.591.956-4.225,3.069-4.225s3.068,1.634,3.068,4.225C511.6,643.583,510.409,644.678,508.528,644.678Zm0-8c-1.249,0-1.8.987-1.8,3.577,0,2.02.386,3.392,1.8,3.392,1.45,0,1.8-1.372,1.8-3.392C510.331,637.662,509.807,636.675,508.528,636.675Z" transform="translate(-470.174 -632.651)"/><path class="if" d="M529.039,636.814h.031a2.6,2.6,0,0,1,2.143-1.172,1.934,1.934,0,0,1,2.113,2.189v6.615h-1.218v-6.276c0-.894-.293-1.5-1.28-1.5a1.741,1.741,0,0,0-1.2.478,1.843,1.843,0,0,0-.555,1.557v5.736h-1.218v-8.573h1.187Z" transform="translate(-482.974 -632.651)"/><path class="if" d="M563.166,637.926a2.156,2.156,0,0,0-.833,1.681h4.888v1.156h-6.214a6.755,6.755,0,0,1,.463-2.5,4.011,4.011,0,0,1,.909-1.157l2.2-2.128a2.958,2.958,0,0,0,1.2-2.591c0-1.172-.4-2.035-1.711-2.035-1.589,0-1.727,1.558-1.7,2.776H561.1v-.709a3.644,3.644,0,0,1,.74-2.313,2.944,2.944,0,0,1,2.3-.91c1.974,0,2.976,1.311,2.976,3.223a4.362,4.362,0,0,1-1.866,3.608Z" transform="translate(-501.926 -628.967)"/></g></svg>