<svg xmlns="http://www.w3.org/2000/svg" width="78.6" height="69.146" viewBox="0 0 78.6 69.146"><defs><style>.a,.b{fill:none;stroke-linecap:round;}.b{stroke:#918f8f;stroke-width:4px;}.c,.e{fill:#918f8f;}.d,.e{stroke:none;}</style></defs><g class="a" transform="translate(-5.2 -6.854)"><path class="d" d="M38.459,10.317a7,7,0,0,1,12.081,0L82.83,65.463A7,7,0,0,1,76.79,76H12.21A7,7,0,0,1,6.17,65.463Z"/><path class="e" d="M 44.49999618530273 10.8536376953125 C 43.98288345336914 10.8536376953125 42.69546890258789 10.99825286865234 41.91114044189453 12.33779144287109 L 9.621498107910156 67.48415374755859 C 8.828811645507812 68.83795166015625 9.3477783203125 70.03866577148438 9.607711791992188 70.49205017089844 C 9.867622375488281 70.94544982910156 10.64155578613281 71.99999237060547 12.21035003662109 71.99999237060547 L 76.78964233398438 71.99999237060547 C 78.35843658447266 71.99999237060547 79.13236999511719 70.94544982910156 79.39229583740234 70.49205017089844 C 79.65220642089844 70.03866577148438 80.17119598388672 68.83795166015625 79.37850952148438 67.48415374755859 L 47.0888671875 12.33779144287109 C 46.30452346801758 10.99825286865234 45.01710891723633 10.8536376953125 44.49999618530273 10.8536376953125 M 44.49999618530273 6.8536376953125 C 46.84444046020508 6.8536376953125 49.18888092041016 8.007980346679688 50.54068374633789 10.31666564941406 L 82.830322265625 65.46302032470703 C 85.56269836425781 70.12956237792969 82.19728088378906 75.99999237060547 76.78964233398438 75.99999237060547 L 12.21035003662109 75.99999237060547 C 6.802726745605469 75.99999237060547 3.437294006347656 70.12956237792969 6.169685363769531 65.46302032470703 L 38.45932388305664 10.31666564941406 C 39.81111907958984 8.007980346679688 42.15555572509766 6.8536376953125 44.49999618530273 6.8536376953125 Z"/></g><line class="b" y2="29" transform="translate(39.3 19.646)"/><circle class="c" cx="2.5" cy="2.5" r="2.5" transform="translate(36.8 54.146)"/></svg>