<svg xmlns="http://www.w3.org/2000/svg" width="26" height="26" viewBox="0 0 26 26"><defs><style>.a{fill:#ffd93b;}.b{fill:#f4c534;}.c{fill:#3e4347;}.d{fill:#e9b02c;}</style></defs><circle class="a" cx="13" cy="13" r="13"/><path class="b" d="M79.84,66.84A13,13,0,0,1,56.72,75,13,13,0,0,0,75,56.72,12.986,12.986,0,0,1,79.84,66.84Z" transform="translate(-53.84 -53.84)"/><g transform="translate(5.562 13.265)"><path class="c" d="M187.346,372.149a.673.673,0,0,1-.677.677h-6.408a.677.677,0,1,1,0-1.354h6.408A.677.677,0,0,1,187.346,372.149Z" transform="translate(-176.026 -365.874)"/><path class="c" d="M109.63,261.249c.318-.187,1.258.821,2.734.876,1.528.057,2.416-1.063,2.734-.876.4.136-.144,2.719-2.734,2.729C109.774,263.968,109.234,261.384,109.63,261.249Z" transform="translate(-109.513 -261.225)"/></g><path class="d" d="M91.293,181.091a.542.542,0,0,1,.172-1.069c3.045.489,3.971-1.686,3.98-1.708a.542.542,0,1,1,1,.409C95.837,180.219,93.918,181.513,91.293,181.091Z" transform="translate(-86.225 -168.939)"/><path class="c" d="M295.8,261.249c-.318-.187-1.258.821-2.734.876-1.528.057-2.416-1.063-2.734-.876-.4.136.144,2.719,2.734,2.729C295.656,263.968,296.2,261.384,295.8,261.249Z" transform="translate(-275.479 -247.96)"/><path class="d" d="M309.921,178.7a.542.542,0,0,1,1-.411c.041.1.971,2.195,3.98,1.711a.542.542,0,0,1,.172,1.069C312.47,181.493,310.537,180.215,309.921,178.7Z" transform="translate(-294.145 -168.921)"/></svg>