<svg xmlns="http://www.w3.org/2000/svg" xmlns:xlink="http://www.w3.org/1999/xlink" width="286.695" height="114.68" viewBox="0 0 286.695 114.68"><defs><style>.a{fill:url(#a);}.b{fill:#b79c30;}.c{fill:#53294f;}</style><radialGradient id="a" cx="0.503" cy="0.506" r="1.142" gradientTransform="matrix(0.4, 0, 0, 0.417, 0.375, 0.305)" gradientUnits="objectBoundingBox"><stop offset="0.287" stop-color="#fff"/><stop offset="0.38" stop-color="#fff" stop-opacity="0.804"/><stop offset="0.507" stop-color="#fff" stop-opacity="0.561"/><stop offset="0.628" stop-color="#fff" stop-opacity="0.361"/><stop offset="0.742" stop-color="#fff" stop-opacity="0.204"/><stop offset="0.845" stop-color="#fff" stop-opacity="0.094"/><stop offset="0.934" stop-color="#fff" stop-opacity="0.024"/><stop offset="1" stop-color="#fff" stop-opacity="0"/></radialGradient></defs><g transform="translate(0 10)"><path class="a" d="M34.145,298.248c0,20.074-69.511,53.221-144.239,53.221S-252.55,318.322-252.55,298.248s67.724-61.459,142.456-61.459S34.145,278.172,34.145,298.248Z" transform="translate(252.55 -246.789)"/><g transform="translate(67.737 19.436)"><path class="b" d="M273.132,646.8H121.958l.047-1.294H273.179Z" transform="translate(-121.958 -591.02)"/><g transform="translate(52.907 0)"><g transform="translate(22.854 18.483)"><path class="b" d="M552.173,448.978c-2.55.32-3.34,2.739-5.8,4.725a15.91,15.91,0,0,1-5.545,2.743s4.177.576,11.826-3.14c5.162-2.511,5.4-6.87,5.4-6.87s-1.52,1.983-5.879,2.541" transform="translate(-540.831 -446.437)"/></g><g transform="translate(6.644 18.809)"><path class="b" d="M451.206,448.24a12.133,12.133,0,0,0,4.52,6.859,11.391,11.391,0,0,0,7.619,2.826C459.678,450.371,454.877,448.964,451.206,448.24Z" transform="translate(-451.206 -448.24)"/></g><g transform="translate(7.912 15.065)"><path class="b" d="M459.357,430.354c.845,1.774,1.951,1.1,3.732,2.25a3.2,3.2,0,0,1,.888.892s.041-.831-1.618-3.318a7.1,7.1,0,0,0-4.14-2.637,20.478,20.478,0,0,0,1.137,2.813" transform="translate(-458.22 -427.54)"/></g><g transform="translate(0 18.45)"><path class="b" d="M418.683,452.431C422.852,455.2,430,456.254,430,456.254s-4.514-1.111-6.324-3.19-2.068-3.767-4.263-4.22c-3.752-.772-4.944-2.592-4.944-2.592s.043,3.41,4.21,6.178" transform="translate(-414.473 -446.253)"/></g><g transform="translate(12.075)"><path class="b" d="M491,344.656c-7.09,4.367-10.217,10.028-9.716,13.837.853,6.479,6.332,12.2,8.072,14.246-2.656-10.9,4.557-12.489,4.557-20.338,0-2.5-1.86-6.832-2.393-8.156-.257.2-.392.3-.52.411" transform="translate(-481.232 -344.245)"/></g><g transform="translate(20.283)"><path class="b" d="M529.164,344.245a30.652,30.652,0,0,1,3.265,2.324,5.6,5.6,0,0,1,2.205,3.529,1.618,1.618,0,0,0,.871,1.234c.415.221.813.456,1.222.678.205.114.41.212.614.343.79.488.822.721.24,1.436a2.241,2.241,0,0,0-.252.363.544.544,0,0,0,.216.817c.249.186.5.365.731.534-.146.46-.737.47-.772,1,.252.073.51.145.983.272a1.819,1.819,0,0,0-.395.294c-.435.583-.4.775.155,1.207.117.092.242.168.351.27.41.392.4.725-.076,1.039a3.618,3.618,0,0,1-.861.393,9.265,9.265,0,0,1-1.292.339,5.419,5.419,0,0,0-2.515,1.153c-5.144,4.224-6.809,10.7-6.609,11.3-2.978-9.254,5.609-14.307,5.04-20.234A20.676,20.676,0,0,0,529.164,344.245Z" transform="translate(-526.616 -344.245)"/></g><g transform="translate(21.898 15.681)"><path class="b" d="M539.576,435.622a18.883,18.883,0,0,0-4.034,8.134c5.472-1.847,11.105-7.12,11.105-12.813a14.967,14.967,0,0,0-7.072,4.679" transform="translate(-535.542 -430.943)"/></g></g><g transform="translate(2.636 26.018)"><path class="c" d="M146.13,512.528a7.325,7.325,0,0,0,1.919-.258,5.626,5.626,0,0,0,1.7-.747,3.991,3.991,0,0,0,1.207-1.22,3.065,3.065,0,0,0,.456-1.677,3.469,3.469,0,0,0-.624-2.036,7.229,7.229,0,0,0-1.632-1.629,16.561,16.561,0,0,0-2.306-1.4c-.864-.436-1.743-.874-2.644-1.311s-1.775-.9-2.639-1.379a12.736,12.736,0,0,1-2.3-1.614,7.718,7.718,0,0,1-1.635-1.987,5.043,5.043,0,0,1-.621-2.521,6.235,6.235,0,0,1,.561-2.646A5.92,5.92,0,0,1,139.225,490a7.976,7.976,0,0,1,2.679-1.4,12.155,12.155,0,0,1,3.652-.508,13.418,13.418,0,0,1,3.323.376,8.429,8.429,0,0,1,2.572,1.107,7.334,7.334,0,0,1,1.884,1.8,9.36,9.36,0,0,1,1.245,2.476l-2.255.975a9.822,9.822,0,0,0-1.009-2.092,6.719,6.719,0,0,0-1.466-1.62,6.283,6.283,0,0,0-1.968-1.042,8.086,8.086,0,0,0-2.522-.365,6.47,6.47,0,0,0-2.177.329,4.779,4.779,0,0,0-1.554.86,3.5,3.5,0,0,0-.929,1.2,3.2,3.2,0,0,0-.3,1.357,2.851,2.851,0,0,0,.63,1.794,7.464,7.464,0,0,0,1.683,1.537,20.644,20.644,0,0,0,2.384,1.4c.891.449,1.8.908,2.72,1.367s1.831.943,2.722,1.445a15.1,15.1,0,0,1,2.383,1.638,7.876,7.876,0,0,1,1.682,1.954,4.519,4.519,0,0,1,.635,2.37,6.656,6.656,0,0,1-.594,2.786,6.283,6.283,0,0,1-1.781,2.268,8.829,8.829,0,0,1-2.949,1.528,14.979,14.979,0,0,1-7.481.17,8.963,8.963,0,0,1-2.623-1.142,7.834,7.834,0,0,1-1.947-1.83,9.644,9.644,0,0,1-1.327-2.464l2.357-.923a7.993,7.993,0,0,0,1.117,2.176,7.172,7.172,0,0,0,3.7,2.643A8.094,8.094,0,0,0,146.13,512.528Z" transform="translate(-136.532 -488.093)"/><path class="c" d="M250.9,516.763l9.84,20.728h-3.58l-3.188-7.072h-8.973l-3.3,7.072h-1.766l10.076-20.728Zm-5.288,12.373h7.717l-3.8-7.847Z" transform="translate(-221.23 -511.577)"/><path class="c" d="M366.269,516.722h1.973l13.7,14.494h.158V516.722h1.546v20.736h-.822l-14.841-16.566h-.126v16.566h-1.594Z" transform="translate(-324.717 -511.544)"/><path class="c" d="M492.335,516.763v1.281H484.76v19.447h-3.515V518.044h-7.573v-1.281Z" transform="translate(-412.694 -511.577)"/><path class="c" d="M581.483,537.491a12.413,12.413,0,0,1-4.533-.823,11.549,11.549,0,0,1-3.659-2.249,10.569,10.569,0,0,1-2.445-3.333,9.51,9.51,0,0,1-.889-4.074,9.288,9.288,0,0,1,.4-2.737,9.634,9.634,0,0,1,1.143-2.449,10.274,10.274,0,0,1,1.79-2.07,11.685,11.685,0,0,1,2.325-1.6,12.454,12.454,0,0,1,2.762-1.027,13.367,13.367,0,0,1,6.212,0,12.592,12.592,0,0,1,2.772,1.027,11.378,11.378,0,0,1,2.326,1.6,10.7,10.7,0,0,1,1.79,2.07,9.478,9.478,0,0,1,1.149,2.449,9.282,9.282,0,0,1,.4,2.737,9.544,9.544,0,0,1-.4,2.774,9.876,9.876,0,0,1-1.149,2.5,10.962,10.962,0,0,1-1.79,2.12,11.414,11.414,0,0,1-2.326,1.648,12.3,12.3,0,0,1-2.772,1.059A12.677,12.677,0,0,1,581.483,537.491Zm0-.989a6.889,6.889,0,0,0,3.182-.709,6.664,6.664,0,0,0,2.323-1.98,9.066,9.066,0,0,0,1.43-3,14.256,14.256,0,0,0,.482-3.8,13.883,13.883,0,0,0-.482-3.751,8.707,8.707,0,0,0-1.43-2.937,6.538,6.538,0,0,0-2.323-1.911,7.833,7.833,0,0,0-6.388,0,6.454,6.454,0,0,0-2.323,1.911,8.624,8.624,0,0,0-1.409,2.937,14,14,0,0,0-.474,3.751,14.378,14.378,0,0,0,.474,3.8,8.981,8.981,0,0,0,1.409,3,6.577,6.577,0,0,0,2.323,1.98A6.922,6.922,0,0,0,581.483,536.5Z" transform="translate(-491.564 -511.577)"/><path class="c" d="M720.687,537.491a12.437,12.437,0,0,1-4.539-.823,11.529,11.529,0,0,1-3.655-2.249,10.654,10.654,0,0,1-2.445-3.333,9.522,9.522,0,0,1-.892-4.074,9.3,9.3,0,0,1,.406-2.737,9.715,9.715,0,0,1,1.137-2.449,10.291,10.291,0,0,1,1.793-2.07,11.449,11.449,0,0,1,2.328-1.6,12.352,12.352,0,0,1,2.758-1.027,13.375,13.375,0,0,1,6.214,0,12.566,12.566,0,0,1,2.768,1.027,11.319,11.319,0,0,1,2.328,1.6,10.688,10.688,0,0,1,1.79,2.07,9.3,9.3,0,0,1,1.55,5.185,9.666,9.666,0,0,1-.4,2.774,9.793,9.793,0,0,1-1.152,2.5,10.947,10.947,0,0,1-1.79,2.12,11.354,11.354,0,0,1-2.328,1.648,12.273,12.273,0,0,1-2.768,1.059A12.7,12.7,0,0,1,720.687,537.491Zm0-.989a6.863,6.863,0,0,0,3.177-.709,6.7,6.7,0,0,0,2.328-1.98,8.979,8.979,0,0,0,1.427-3,14.226,14.226,0,0,0,.48-3.8,13.855,13.855,0,0,0-.48-3.751,8.624,8.624,0,0,0-1.427-2.937,6.573,6.573,0,0,0-2.328-1.911,7.109,7.109,0,0,0-3.177-.681,7.2,7.2,0,0,0-3.211.681,6.487,6.487,0,0,0-2.317,1.911,8.658,8.658,0,0,0-1.415,2.937,13.977,13.977,0,0,0-.474,3.751,14.351,14.351,0,0,0,.474,3.8,9.016,9.016,0,0,0,1.415,3,6.612,6.612,0,0,0,2.317,1.98A6.95,6.95,0,0,0,720.687,536.5Z" transform="translate(-605.586 -511.577)"/><path class="c" d="M848.045,517H855.3a12.738,12.738,0,0,1,3.3.381,7.127,7.127,0,0,1,2.366,1.068,4.621,4.621,0,0,1,1.428,1.637,4.569,4.569,0,0,1,.479,2.07,4.082,4.082,0,0,1-.371,1.734,4.888,4.888,0,0,1-1.038,1.457,6.563,6.563,0,0,1-1.618,1.123,9.746,9.746,0,0,1-2.079.738l7.617,10.478h-4.089l-7.269-10.179h-2.46v10.179h-3.521Zm3.521,9.507H853.6a7.539,7.539,0,0,0,2.184-.3,5.58,5.58,0,0,0,1.737-.844,3.893,3.893,0,0,0,1.141-1.323,3.652,3.652,0,0,0,.409-1.747,4.1,4.1,0,0,0-.321-1.646,3.692,3.692,0,0,0-.916-1.277,4.266,4.266,0,0,0-1.406-.829,5.047,5.047,0,0,0-1.773-.3h-3.088Z" transform="translate(-719.355 -511.77)"/></g></g></g></svg>