<svg xmlns="http://www.w3.org/2000/svg" xmlns:xlink="http://www.w3.org/1999/xlink" width="612.102" height="244.845" viewBox="0 0 612.102 244.845"><defs><style>.a{fill:url(#a);}.b{fill:#b79c30;}.c{fill:#53294f;}</style><radialGradient id="a" cx="0.503" cy="0.506" r="1.142" gradientTransform="matrix(0.4, 0, 0, 0.417, 0.375, 0.305)" gradientUnits="objectBoundingBox"><stop offset="0.287" stop-color="#fff"/><stop offset="0.38" stop-color="#fff" stop-opacity="0.804"/><stop offset="0.507" stop-color="#fff" stop-opacity="0.561"/><stop offset="0.628" stop-color="#fff" stop-opacity="0.361"/><stop offset="0.742" stop-color="#fff" stop-opacity="0.204"/><stop offset="0.845" stop-color="#fff" stop-opacity="0.094"/><stop offset="0.934" stop-color="#fff" stop-opacity="0.024"/><stop offset="1" stop-color="#fff" stop-opacity="0"/></radialGradient></defs><path class="a" d="M359.552,368.006c0,42.859-148.407,113.628-307.955,113.628S-252.55,410.865-252.55,368.006-107.958,236.789,51.6,236.789,359.552,325.142,359.552,368.006Z" transform="translate(252.55 -236.789)"/><g transform="translate(144.62 41.496)"><path class="b" d="M444.718,648.272H121.958l.1-2.763H444.82Z" transform="translate(-121.958 -529.173)"/><g transform="translate(112.958 0)"><g transform="translate(48.794 39.462)"><path class="b" d="M565.047,451.863c-5.445.684-7.131,5.847-12.377,10.089a33.966,33.966,0,0,1-11.839,5.857s8.918,1.23,25.248-6.7c11.021-5.361,11.519-14.668,11.519-14.668s-3.246,4.233-12.551,5.426" transform="translate(-540.831 -446.437)"/></g><g transform="translate(14.185 40.159)"><path class="b" d="M451.206,448.24c1.418,6.11,4.824,10.774,9.65,14.643,3.872,3.1,8.4,5.944,16.267,6.033C469.293,452.79,459.044,449.785,451.206,448.24Z" transform="translate(-451.206 -448.24)"/></g><g transform="translate(16.893 32.165)"><path class="b" d="M460.647,433.547c1.8,3.788,4.166,2.339,7.968,4.8a6.837,6.837,0,0,1,1.9,1.9s.088-1.774-3.453-7.084c-2.982-4.5-8.839-5.63-8.839-5.63a43.72,43.72,0,0,0,2.427,6.007" transform="translate(-458.22 -427.54)"/></g><g transform="translate(0 39.391)"><path class="b" d="M423.461,459.443c8.9,5.9,24.171,8.163,24.171,8.163s-9.637-2.373-13.5-6.81c-3.881-4.432-4.415-8.043-9.1-9.009-8.011-1.648-10.556-5.534-10.556-5.534s.091,7.28,8.988,13.19" transform="translate(-414.473 -446.253)"/></g><g transform="translate(25.78)"><path class="b" d="M502.087,345.123c-15.136,9.323-21.814,21.41-20.745,29.542,1.822,13.832,13.519,26.053,17.234,30.415-5.671-23.264,9.729-26.665,9.729-43.421,0-5.346-3.972-14.587-5.109-17.413-.548.434-.837.643-1.11.878" transform="translate(-481.232 -344.245)"/></g><g transform="translate(43.305)"><path class="b" d="M532.055,344.245a65.435,65.435,0,0,1,6.97,4.962,11.964,11.964,0,0,1,4.708,7.534,3.454,3.454,0,0,0,1.86,2.635c.887.471,1.737.974,2.61,1.448.438.244.875.453,1.311.731,1.687,1.042,1.755,1.539.513,3.065a4.789,4.789,0,0,0-.537.775,1.162,1.162,0,0,0,.462,1.745c.531.4,1.062.778,1.561,1.14-.312.982-1.573,1-1.649,2.131.538.157,1.088.31,2.1.581a3.889,3.889,0,0,0-.843.628c-.93,1.245-.863,1.654.331,2.576.249.2.517.358.749.576.875.837.849,1.547-.162,2.218a7.734,7.734,0,0,1-1.838.84,19.783,19.783,0,0,1-2.759.724,11.57,11.57,0,0,0-5.37,2.461c-10.984,9.017-14.537,22.836-14.111,24.13-6.358-19.758,11.976-30.546,10.759-43.2C537.839,352.8,532.055,344.245,532.055,344.245Z" transform="translate(-526.616 -344.245)"/></g><g transform="translate(46.752 33.479)"><path class="b" d="M544.154,440.932c-3.8,4.649-7.668,11.374-8.612,17.366,11.684-3.943,23.711-15.2,23.711-27.355a31.955,31.955,0,0,0-15.1,9.989" transform="translate(-535.542 -430.943)"/></g></g><g transform="translate(5.628 55.548)"><path class="c" d="M157.024,540.263a15.633,15.633,0,0,0,4.1-.55,12.01,12.01,0,0,0,3.637-1.6,8.52,8.52,0,0,0,2.577-2.6,6.545,6.545,0,0,0,.974-3.581,7.406,7.406,0,0,0-1.333-4.347,15.436,15.436,0,0,0-3.485-3.478,35.365,35.365,0,0,0-4.924-2.985c-1.845-.931-3.722-1.867-5.646-2.8s-3.789-1.914-5.634-2.944a27.194,27.194,0,0,1-4.918-3.445,16.48,16.48,0,0,1-3.492-4.243,10.767,10.767,0,0,1-1.326-5.383,13.313,13.313,0,0,1,1.2-5.648,12.64,12.64,0,0,1,3.531-4.5,17.028,17.028,0,0,1,5.72-2.987,25.949,25.949,0,0,1,7.8-1.084,28.652,28.652,0,0,1,7.095.8,18,18,0,0,1,5.492,2.364,15.661,15.661,0,0,1,4.023,3.839,19.988,19.988,0,0,1,2.657,5.287l-4.814,2.083A20.972,20.972,0,0,0,168.1,498a14.346,14.346,0,0,0-3.131-3.458,13.413,13.413,0,0,0-4.2-2.224,17.262,17.262,0,0,0-5.385-.78,13.812,13.812,0,0,0-4.649.7,10.2,10.2,0,0,0-3.319,1.835,7.483,7.483,0,0,0-1.983,2.563,6.83,6.83,0,0,0-.65,2.9,6.088,6.088,0,0,0,1.346,3.83,15.931,15.931,0,0,0,3.594,3.282,44.048,44.048,0,0,0,5.089,2.985c1.9.958,3.838,1.938,5.808,2.919s3.91,2.014,5.811,3.085a32.229,32.229,0,0,1,5.087,3.5,16.815,16.815,0,0,1,3.592,4.171,9.65,9.65,0,0,1,1.356,5.059,14.21,14.21,0,0,1-1.267,5.948,13.413,13.413,0,0,1-3.8,4.842,18.854,18.854,0,0,1-6.3,3.263,31.98,31.98,0,0,1-15.971.363,19.132,19.132,0,0,1-5.6-2.439,16.726,16.726,0,0,1-4.157-3.906,20.591,20.591,0,0,1-2.834-5.26l5.032-1.971a17.066,17.066,0,0,0,2.384,4.647,15.313,15.313,0,0,0,7.9,5.644A17.281,17.281,0,0,0,157.024,540.263Z" transform="translate(-136.532 -488.093)"/><path class="c" d="M263.34,516.763l21.009,44.256h-7.643l-6.806-15.1H250.741l-7.039,15.1h-3.77l21.512-44.256Zm-11.291,26.418h16.477L260.4,526.427Z" transform="translate(-200.003 -505.692)"/><path class="c" d="M366.269,516.722h4.213l29.26,30.945h.337V516.722h3.3v44.272h-1.754L369.94,525.624h-.268v35.369h-3.4Z" transform="translate(-277.554 -505.667)"/><path class="c" d="M513.519,516.763V519.5H497.345v41.521h-7.5V519.5H473.672v-2.735Z" transform="translate(-343.482 -505.692)"/><path class="c" d="M594.566,561.019a26.5,26.5,0,0,1-9.678-1.756,24.658,24.658,0,0,1-7.812-4.8,22.561,22.561,0,0,1-5.22-7.115,20.306,20.306,0,0,1-1.9-8.7,19.831,19.831,0,0,1,.855-5.843,20.574,20.574,0,0,1,2.441-5.229,21.94,21.94,0,0,1,3.822-4.418,24.953,24.953,0,0,1,4.964-3.422,26.594,26.594,0,0,1,5.9-2.192,28.542,28.542,0,0,1,13.264,0,26.885,26.885,0,0,1,5.919,2.192,24.3,24.3,0,0,1,4.966,3.422,22.852,22.852,0,0,1,3.821,4.418,20.24,20.24,0,0,1,2.453,5.229,19.822,19.822,0,0,1,.861,5.843,20.38,20.38,0,0,1-.861,5.922,21.091,21.091,0,0,1-2.453,5.343,23.407,23.407,0,0,1-3.821,4.527,24.37,24.37,0,0,1-4.966,3.518,26.261,26.261,0,0,1-5.919,2.261A27.071,27.071,0,0,1,594.566,561.019Zm0-2.111a14.706,14.706,0,0,0,6.794-1.514,14.228,14.228,0,0,0,4.959-4.228,19.358,19.358,0,0,0,3.053-6.413,30.438,30.438,0,0,0,1.03-8.106,29.645,29.645,0,0,0-1.03-8.009,18.592,18.592,0,0,0-3.053-6.27,13.959,13.959,0,0,0-4.959-4.079,16.723,16.723,0,0,0-13.638,0,13.779,13.779,0,0,0-4.959,4.079,18.409,18.409,0,0,0-3.009,6.27,29.888,29.888,0,0,0-1.011,8.009,30.688,30.688,0,0,0,1.011,8.106,19.171,19.171,0,0,0,3.009,6.413,14.043,14.043,0,0,0,4.959,4.228A14.777,14.777,0,0,0,594.566,558.908Z" transform="translate(-402.586 -505.692)"/><path class="c" d="M733.776,561.019a26.554,26.554,0,0,1-9.692-1.756,24.616,24.616,0,0,1-7.8-4.8,22.749,22.749,0,0,1-5.22-7.115,20.33,20.33,0,0,1-1.9-8.7,19.852,19.852,0,0,1,.868-5.843,20.739,20.739,0,0,1,2.429-5.229,21.97,21.97,0,0,1,3.828-4.418,24.448,24.448,0,0,1,4.97-3.422,26.368,26.368,0,0,1,5.889-2.192,28.557,28.557,0,0,1,13.268,0,26.829,26.829,0,0,1,5.909,2.192,24.182,24.182,0,0,1,4.97,3.422,22.825,22.825,0,0,1,3.822,4.418,19.849,19.849,0,0,1,3.31,11.071,20.632,20.632,0,0,1-.85,5.922,20.907,20.907,0,0,1-2.46,5.343,23.379,23.379,0,0,1-3.822,4.527,24.254,24.254,0,0,1-4.97,3.518,26.208,26.208,0,0,1-5.909,2.261A27.11,27.11,0,0,1,733.776,561.019Zm0-2.111a14.652,14.652,0,0,0,6.782-1.514,14.305,14.305,0,0,0,4.97-4.228,19.167,19.167,0,0,0,3.048-6.413,30.377,30.377,0,0,0,1.024-8.106,29.586,29.586,0,0,0-1.024-8.009,18.409,18.409,0,0,0-3.048-6.27,14.036,14.036,0,0,0-4.97-4.079,15.178,15.178,0,0,0-6.782-1.453,15.37,15.37,0,0,0-6.855,1.453,13.85,13.85,0,0,0-4.946,4.079,18.482,18.482,0,0,0-3.021,6.27,29.842,29.842,0,0,0-1.013,8.009,30.64,30.64,0,0,0,1.013,8.106,19.247,19.247,0,0,0,3.021,6.413,14.118,14.118,0,0,0,4.946,4.228A14.837,14.837,0,0,0,733.776,558.908Z" transform="translate(-488.031 -505.692)"/><path class="c" d="M848.045,517h15.492a27.194,27.194,0,0,1,7.045.815,15.214,15.214,0,0,1,5.051,2.279,9.866,9.866,0,0,1,3.049,3.5,9.755,9.755,0,0,1,1.023,4.42,8.71,8.71,0,0,1-.793,3.7,10.437,10.437,0,0,1-2.216,3.111,14.011,14.011,0,0,1-3.454,2.4,20.809,20.809,0,0,1-4.44,1.575l16.262,22.371h-8.731l-15.519-21.732h-5.251v21.732h-7.518Zm7.518,20.3H859.9a16.1,16.1,0,0,0,4.663-.643,11.913,11.913,0,0,0,3.709-1.8,8.314,8.314,0,0,0,2.436-2.826,7.8,7.8,0,0,0,.873-3.731,8.762,8.762,0,0,0-.686-3.514,7.885,7.885,0,0,0-1.955-2.726,9.1,9.1,0,0,0-3-1.771,10.771,10.771,0,0,0-3.786-.643h-6.594Z" transform="translate(-573.287 -505.836)"/></g></g></svg>