<svg xmlns="http://www.w3.org/2000/svg" xmlns:xlink="http://www.w3.org/1999/xlink" width="274.009" height="109.606" viewBox="0 0 274.009 109.606"><defs><style>.a{fill:#b79c30;}.b{fill:url(#a);}.c{fill:#53294f;}</style><radialGradient id="a" cx="0.503" cy="0.506" r="1.142" gradientTransform="matrix(0.4, 0, 0, 0.417, 0.336, 0.23)" gradientUnits="objectBoundingBox"><stop offset="0.287" stop-color="#fff"/><stop offset="0.38" stop-color="#fff" stop-opacity="0.804"/><stop offset="0.507" stop-color="#fff" stop-opacity="0.561"/><stop offset="0.628" stop-color="#fff" stop-opacity="0.361"/><stop offset="0.742" stop-color="#fff" stop-opacity="0.204"/><stop offset="0.845" stop-color="#fff" stop-opacity="0.094"/><stop offset="0.934" stop-color="#fff" stop-opacity="0.024"/><stop offset="1" stop-color="#fff" stop-opacity="0"/></radialGradient></defs><path class="a" d="M1155.035,264H1010.55l.045-1.237H1155.08Z" transform="translate(-945.811 -192.108)"/><g transform="translate(-66.735 3)"><path class="b" d="M910.052-87.219c0,19.186-66.435,50.866-137.857,50.866S636.043-68.034,636.043-87.219s64.727-58.74,136.152-58.74S910.052-106.407,910.052-87.219Z" transform="translate(-569.308 142.959)"/><g transform="translate(182.04 15.575)"><g transform="translate(21.843 17.665)"><path class="a" d="M1440.264,66.118c-2.437.306-3.192,2.618-5.541,4.516a15.206,15.206,0,0,1-5.3,2.622s3.992.55,11.3-3c4.934-2.4,5.157-6.566,5.157-6.566s-1.453,1.9-5.619,2.429" transform="translate(-1429.424 -63.689)"/></g><g transform="translate(6.35 17.977)"><path class="a" d="M1339.8,65.492a11.593,11.593,0,0,0,4.32,6.555,10.886,10.886,0,0,0,7.282,2.7C1347.9,67.529,1343.308,66.184,1339.8,65.492Z" transform="translate(-1339.799 -65.492)"/></g><g transform="translate(7.562 14.399)"><path class="a" d="M1347.9,47.481c.808,1.7,1.865,1.047,3.567,2.15a3.06,3.06,0,0,1,.849.853s.04-.794-1.546-3.171a6.784,6.784,0,0,0-3.956-2.52,19.6,19.6,0,0,0,1.086,2.689" transform="translate(-1346.813 -44.792)"/></g><g transform="translate(0 17.634)"><path class="a" d="M1307.09,69.409c3.985,2.642,10.82,3.654,10.82,3.654s-4.314-1.062-6.044-3.048-1.976-3.6-4.074-4.033c-3.586-.738-4.725-2.477-4.725-2.477s.04,3.259,4.023,5.9" transform="translate(-1303.066 -63.505)"/></g><g transform="translate(11.54 0)"><path class="a" d="M1379.16-38.11c-6.776,4.173-9.765,9.584-9.286,13.225.816,6.192,6.052,11.663,7.715,13.615-2.538-10.414,4.355-11.937,4.355-19.438,0-2.393-1.778-6.53-2.286-7.8-.245.194-.375.288-.5.393" transform="translate(-1369.824 38.503)"/></g><g transform="translate(19.386)"><path class="a" d="M1417.644-38.5a29.311,29.311,0,0,1,3.12,2.221,5.357,5.357,0,0,1,2.108,3.373,1.545,1.545,0,0,0,.833,1.179c.4.211.777.436,1.168.649.2.109.392.2.587.327.755.467.785.689.229,1.372a2.148,2.148,0,0,0-.24.347c-.174.347-.123.541.207.781.238.178.475.348.7.51-.14.44-.7.45-.738.954.241.07.487.139.94.26a1.75,1.75,0,0,0-.378.281c-.416.557-.386.741.148,1.153.111.088.232.16.335.258.391.375.38.692-.073.993a3.456,3.456,0,0,1-.823.376,8.848,8.848,0,0,1-1.235.324,5.176,5.176,0,0,0-2.4,1.1c-4.917,4.037-6.508,10.223-6.317,10.8-2.846-8.845,5.361-13.674,4.817-19.338A19.76,19.76,0,0,0,1417.644-38.5Z" transform="translate(-1415.209 38.503)"/></g><g transform="translate(20.928 14.987)"><path class="a" d="M1427.989,52.667a18.047,18.047,0,0,0-3.855,7.774c5.23-1.765,10.614-6.806,10.614-12.246a14.3,14.3,0,0,0-6.759,4.472" transform="translate(-1424.134 -48.195)"/></g></g></g><g transform="translate(67.259 43.442)"><path class="c" d="M1034.3,128.7a7.006,7.006,0,0,0,1.834-.246,5.384,5.384,0,0,0,1.628-.714,3.816,3.816,0,0,0,1.153-1.165,2.931,2.931,0,0,0,.436-1.6,3.318,3.318,0,0,0-.6-1.946,6.913,6.913,0,0,0-1.56-1.557,15.862,15.862,0,0,0-2.2-1.336c-.826-.417-1.666-.836-2.527-1.253s-1.7-.857-2.522-1.318a12.176,12.176,0,0,1-2.2-1.542,7.371,7.371,0,0,1-1.563-1.9,4.819,4.819,0,0,1-.594-2.41,5.963,5.963,0,0,1,.536-2.529,5.659,5.659,0,0,1,1.581-2.013,7.62,7.62,0,0,1,2.561-1.337,11.611,11.611,0,0,1,3.491-.485,12.825,12.825,0,0,1,3.176.359,8.058,8.058,0,0,1,2.459,1.058,7.02,7.02,0,0,1,1.8,1.719,8.952,8.952,0,0,1,1.189,2.367l-2.155.932a9.389,9.389,0,0,0-.964-2,6.427,6.427,0,0,0-1.4-1.548,6.011,6.011,0,0,0-1.881-1,7.733,7.733,0,0,0-2.411-.349,6.182,6.182,0,0,0-2.081.315,4.563,4.563,0,0,0-1.486.822,3.354,3.354,0,0,0-.888,1.147,3.054,3.054,0,0,0-.291,1.3,2.725,2.725,0,0,0,.6,1.715,7.12,7.12,0,0,0,1.609,1.469,19.679,19.679,0,0,0,2.278,1.336c.851.429,1.718.868,2.6,1.307s1.75.9,2.6,1.381a14.448,14.448,0,0,1,2.278,1.565,7.53,7.53,0,0,1,1.608,1.867,4.32,4.32,0,0,1,.607,2.265,6.362,6.362,0,0,1-.567,2.662,6,6,0,0,1-1.7,2.167,8.435,8.435,0,0,1-2.819,1.461,14.316,14.316,0,0,1-7.149.163,8.561,8.561,0,0,1-2.506-1.092,7.487,7.487,0,0,1-1.861-1.749,9.223,9.223,0,0,1-1.269-2.355l2.253-.882a7.636,7.636,0,0,0,1.067,2.08,6.852,6.852,0,0,0,3.538,2.526A7.736,7.736,0,0,0,1034.3,128.7Z" transform="translate(-1025.124 -105.345)"/><path class="c" d="M1139,134.016l9.4,19.811h-3.421l-3.047-6.759h-8.576l-3.151,6.759h-1.688l9.63-19.811Zm-5.055,11.826h7.376l-3.635-7.5Z" transform="translate(-1110.651 -129.06)"/><path class="c" d="M1254.862,133.974h1.885l13.1,13.852H1270V133.974h1.477v19.818h-.785L1256.5,137.959h-.12v15.833h-1.523Z" transform="translate(-1215.148 -129.025)"/><path class="c" d="M1380.1,134.016v1.224h-7.24v18.587h-3.36V135.24h-7.238v-1.224Z" transform="translate(-1303.985 -129.06)"/><path class="c" d="M1469.566,153.827a11.862,11.862,0,0,1-4.332-.786,11.038,11.038,0,0,1-3.5-2.149,10.1,10.1,0,0,1-2.337-3.185,9.091,9.091,0,0,1-.85-3.894,8.881,8.881,0,0,1,.383-2.616,9.225,9.225,0,0,1,1.093-2.341,9.831,9.831,0,0,1,1.711-1.978,11.177,11.177,0,0,1,2.222-1.532,11.9,11.9,0,0,1,2.64-.981,12.781,12.781,0,0,1,5.937,0,12.027,12.027,0,0,1,2.65.981,10.874,10.874,0,0,1,2.223,1.532,10.25,10.25,0,0,1,1.711,1.978,9.069,9.069,0,0,1,1.1,2.341,8.875,8.875,0,0,1,.385,2.616,9.125,9.125,0,0,1-.385,2.651,9.45,9.45,0,0,1-1.1,2.392,10.5,10.5,0,0,1-1.711,2.027,10.9,10.9,0,0,1-2.223,1.575,11.745,11.745,0,0,1-2.65,1.012A12.114,12.114,0,0,1,1469.566,153.827Zm0-.945a6.584,6.584,0,0,0,3.042-.678,6.369,6.369,0,0,0,2.22-1.893,8.665,8.665,0,0,0,1.367-2.871,13.632,13.632,0,0,0,.461-3.628,13.277,13.277,0,0,0-.461-3.585,8.321,8.321,0,0,0-1.367-2.807,6.249,6.249,0,0,0-2.22-1.826,7.486,7.486,0,0,0-6.105,0,6.164,6.164,0,0,0-2.22,1.826,8.238,8.238,0,0,0-1.347,2.807,13.373,13.373,0,0,0-.453,3.585,13.73,13.73,0,0,0,.453,3.628,8.579,8.579,0,0,0,1.347,2.871,6.282,6.282,0,0,0,2.22,1.893A6.613,6.613,0,0,0,1469.566,152.882Z" transform="translate(-1383.626 -129.06)"/><path class="c" d="M1608.769,153.827a11.887,11.887,0,0,1-4.339-.786,11.02,11.02,0,0,1-3.494-2.149,10.18,10.18,0,0,1-2.337-3.185,9.1,9.1,0,0,1-.853-3.894,8.885,8.885,0,0,1,.388-2.616,9.28,9.28,0,0,1,1.087-2.341,9.843,9.843,0,0,1,1.714-1.978,10.948,10.948,0,0,1,2.225-1.532,11.8,11.8,0,0,1,2.636-.981,12.791,12.791,0,0,1,5.939,0,12.014,12.014,0,0,1,2.645.981,10.82,10.82,0,0,1,2.225,1.532,10.229,10.229,0,0,1,1.711,1.978,8.886,8.886,0,0,1,1.482,4.956,9.23,9.23,0,0,1-.38,2.651,9.367,9.367,0,0,1-1.1,2.392,10.475,10.475,0,0,1-1.711,2.027,10.843,10.843,0,0,1-2.225,1.575,11.732,11.732,0,0,1-2.645,1.012A12.131,12.131,0,0,1,1608.769,153.827Zm0-.945a6.559,6.559,0,0,0,3.036-.678,6.4,6.4,0,0,0,2.225-1.893,8.581,8.581,0,0,0,1.365-2.871,13.61,13.61,0,0,0,.458-3.628,13.256,13.256,0,0,0-.458-3.585,8.242,8.242,0,0,0-1.365-2.807,6.282,6.282,0,0,0-2.225-1.826,6.8,6.8,0,0,0-3.036-.651,6.883,6.883,0,0,0-3.069.651,6.2,6.2,0,0,0-2.214,1.826,8.271,8.271,0,0,0-1.353,2.807,13.363,13.363,0,0,0-.453,3.585,13.72,13.72,0,0,0,.453,3.628,8.614,8.614,0,0,0,1.353,2.871,6.317,6.317,0,0,0,2.214,1.893A6.644,6.644,0,0,0,1608.769,152.882Z" transform="translate(-1498.761 -129.06)"/><path class="c" d="M1736.637,134.25h6.935a12.175,12.175,0,0,1,3.153.365,6.811,6.811,0,0,1,2.261,1.02,4.42,4.42,0,0,1,1.365,1.565,4.367,4.367,0,0,1,.458,1.979,3.9,3.9,0,0,1-.355,1.657,4.672,4.672,0,0,1-.992,1.392,6.267,6.267,0,0,1-1.546,1.073,9.313,9.313,0,0,1-1.988.705l7.28,10.014H1749.3l-6.947-9.728H1740v9.728h-3.365Zm3.365,9.087h1.944a7.206,7.206,0,0,0,2.087-.288,5.338,5.338,0,0,0,1.661-.807,3.72,3.72,0,0,0,1.09-1.265,3.491,3.491,0,0,0,.391-1.67,3.923,3.923,0,0,0-.307-1.573,3.529,3.529,0,0,0-.875-1.22,4.08,4.08,0,0,0-1.344-.793,4.829,4.829,0,0,0-1.695-.288H1740Z" transform="translate(-1613.641 -129.253)"/></g></svg>