<svg xmlns="http://www.w3.org/2000/svg" width="47.031" height="40.836" viewBox="0 0 47.031 40.836"><defs><style>.a{fill:#fff;}</style></defs><path class="a" d="M-1154.876-301.766h4.255q7.876,0,15.751,0a.29.29,0,0,0,.332-.236q2.533-7.541,5.078-15.078c.023-.068.049-.134.077-.208.084.056.083.147.108.22q2.541,7.527,5.073,15.057a.3.3,0,0,0,.347.246q7.876-.009,15.751,0h.248l.012.043c-.342.258-.683.518-1.026.775l-11.714,8.783c-.279.209-.279.208-.182.53q2.261,7.469,4.519,14.939a.4.4,0,0,1,.042.247c-.289-.2-.571-.4-.853-.593q-6.061-4.235-12.119-8.475a.286.286,0,0,0-.392.008q-6.394,4.475-12.794,8.943c-.053.037-.107.071-.166.109-.037-.1.019-.175.042-.251q2.264-7.5,4.54-15a.319.319,0,0,0-.144-.417q-5.861-4.386-11.715-8.78l-1.085-.816Z" transform="translate(1154.876 317.283)"/></svg>