<svg xmlns="http://www.w3.org/2000/svg" xmlns:xlink="http://www.w3.org/1999/xlink" width="1926.083" height="4295.236" viewBox="0 0 1926.083 4295.236"><defs><style>.a{fill:none;stroke:#707070;}.b{fill:url(#a);}.c{clip-path:url(#c);}.d{fill:url(#d);}.e{fill:url(#e);}</style><radialGradient id="a" cx="0.5" cy="0.387" r="0.799" gradientTransform="translate(0.413 0.263) scale(0.563 0.734)" gradientUnits="objectBoundingBox"><stop offset="0" stop-color="#f9c877"/><stop offset="1" stop-color="#ff9f00"/></radialGradient><clipPath id="c"><path class="a" d="M75.538,6903.766l68.029,6.784H254.712l66.049-5.418,111.959-14.356,97.989-18.739,116.008-24.908,137.091-32.675,128.821-30.245,85.54-17.409,129.718-20.47,150.782-20.832,68.347-6.6,120.185-8.981,81.864-3.316h276.879l71.684,3.316h28.037v260.707l-1.286,1226.766-52.681-3.213-158.071-3.353h-83.345l-109.661,4.162-131.346,6.807-124.453,11.559-155.264,21.909-92.056,15.137-130.062,26.5-79.31,18.494-85.542,19.895-70.912,16.636-102.124,23.84L467.2,8372.334l-115.445,15.26s-119.029,9.643-121.075,9.643H153.645L78,8392.026l-60.964-9.806L3.616,8377.6l-3.952-5.269L.546,6890.775l30.931,7.421Z" transform="translate(0.336 -6706.596)"/></clipPath><linearGradient id="d" x1="0.469" y1="0.5" x2="0.904" y2="0.323" gradientUnits="objectBoundingBox"><stop offset="0" stop-color="#fcd39d"/><stop offset="1" stop-color="#f7c147"/></linearGradient><radialGradient id="e" cx="0.5" cy="0.5" r="3.593" gradientTransform="translate(0.451) scale(0.099 1)" gradientUnits="objectBoundingBox"><stop offset="0" stop-color="#fff"/><stop offset="0.962" stop-color="#ae7f1e"/><stop offset="1" stop-color="#ae7f1e"/></radialGradient></defs><rect class="b" width="1923" height="1584" transform="translate(3)"/><rect class="b" width="1921" height="1242" transform="translate(1924.083 2810) rotate(180)"/><g class="c" transform="translate(0 2604.596)"><path class="d" d="M0,0H1925.468V1959.732H0Z" transform="translate(0.337 -124.54)"/></g><g transform="translate(5 2605)"><path class="e" d="M-2926.6-3041.4c-71.466,0-137.925-6.717-200.725-20.187l.754-4.092c107.862,23.136,226.635,26.272,363.106,9.584,121.6-14.867,245.129-43.659,364.594-71.5,50.047-11.665,101.8-23.727,152.473-34.535a3821.985,3821.985,0,0,1,1040.156-76.573l-.227,4.165a3818.51,3818.51,0,0,0-1039.18,76.5c-50.639,10.8-102.374,22.859-152.406,34.52-119.558,27.865-243.186,56.679-364.974,71.57C-2820.505-3044.922-2874.865-3041.4-2926.6-3041.4Z" transform="translate(3127.324 3246.4)"/></g></svg>