<svg xmlns="http://www.w3.org/2000/svg" width="69.001" height="69" viewBox="0 0 69.001 69"><defs><style>.a,.b{fill:#e86b25;}.b{stroke:#e86b25;}</style></defs><path class="a" d="M-5873.5-222a34.284,34.284,0,0,1-13.429-2.711,34.38,34.38,0,0,1-10.966-7.393,34.373,34.373,0,0,1-7.394-10.966A34.277,34.277,0,0,1-5908-256.5a34.275,34.275,0,0,1,2.711-13.429A34.381,34.381,0,0,1-5897.9-280.9a34.38,34.38,0,0,1,10.966-7.394A34.285,34.285,0,0,1-5873.5-291a34.279,34.279,0,0,1,13.429,2.711A34.376,34.376,0,0,1-5849.1-280.9a34.375,34.375,0,0,1,7.394,10.966A34.275,34.275,0,0,1-5839-256.5a34.277,34.277,0,0,1-2.711,13.429,34.38,34.38,0,0,1-7.394,10.966,34.377,34.377,0,0,1-10.966,7.393A34.282,34.282,0,0,1-5873.5-222Zm0-65a30.535,30.535,0,0,0-30.5,30.5,30.535,30.535,0,0,0,30.5,30.5,30.535,30.535,0,0,0,30.5-30.5A30.534,30.534,0,0,0-5873.5-287Z" transform="translate(5908 291)"/><path class="b" d="M3.51,3.971l1-1a1.082,1.082,0,0,1,1.534,0l8.8,8.793a1.082,1.082,0,0,1,0,1.534l-8.8,8.8a1.082,1.082,0,0,1-1.534,0l-1-1a1.087,1.087,0,0,1,.018-1.552l5.453-5.195-22.234.041a1.083,1.083,0,0,1-1.086-1.086V11.845a1.083,1.083,0,0,1,1.086-1.086l9.842-.018,12.392-.023L3.528,5.523A1.079,1.079,0,0,1,3.51,3.971Z" transform="translate(22.224 34.935) rotate(-90)"/></svg>