<svg xmlns="http://www.w3.org/2000/svg" width="107.951" height="59.787" viewBox="0 0 107.951 59.787"><defs><style>.a,.b{fill:#231f20;}.a{opacity:0.1;}.b{opacity:0.2;}</style></defs><path class="a" d="M27.941,129.414a22.614,22.614,0,1,0-5.327,44.592H47.257V160.568H36.029v-.144L53.763,141.9h.213V114.219a29.882,29.882,0,0,0-26.034,15.2Z" transform="translate(0 -114.219)"/><path class="b" d="M287.361,128.777a22.654,22.654,0,0,0-5.327.637A29.882,29.882,0,0,0,256,114.219V141.9h.213l17.734,18.52v.144H262.719v13.438h24.642a22.614,22.614,0,1,0,0-45.228Z" transform="translate(-202.024 -114.219)"/></svg>