<svg xmlns="http://www.w3.org/2000/svg" width="20" height="20" viewBox="0 0 20 20"><defs><style>.a{fill:#fff;}</style></defs><path class="a" d="M849.872,419.531a4.861,4.861,0,0,1,.5-.055c.217,0,.344,0,.492,0,.228,0,.357.011.585.011.114,0,.24.007.308.011.1,0,.3.035.4.052s.166.039.28.061c.175.034.35.066.524.1q.506.111,1,.261a10.492,10.492,0,0,1,2.283,1,9.078,9.078,0,0,1,1.869,1.466,9.557,9.557,0,0,1,1.451,1.937,12,12,0,0,1,1.026,2.4,18.6,18.6,0,0,1,.409,2.143v1c-.066.433-.117.869-.2,1.3a9.926,9.926,0,0,1-13.447,7.388,3.537,3.537,0,0,0-2.536-.128c-1.2.377-2.431.673-3.649,1H841a3.991,3.991,0,0,1,.068-.4c.369-1.361.721-2.727,1.127-4.077a1.5,1.5,0,0,0-.121-1.208,9.873,9.873,0,0,1,6.071-13.858c.3-.088.61-.161.918-.23l.472-.1C849.644,419.571,849.758,419.546,849.872,419.531Zm-6.5,17.575c.951-.249,1.8-.459,2.644-.7a1.023,1.023,0,0,1,.863.1,7.949,7.949,0,0,0,5.306,1.029,8.211,8.211,0,1,0-8.231-3.872,1.049,1.049,0,0,1,.123.928C843.831,435.393,843.623,436.207,843.374,437.107Z" transform="translate(-841 -419.475)"/><path class="a" d="M1080,660Z" transform="translate(-1060 -640)"/><path class="a" d="M908.66,491.285a10.589,10.589,0,0,1-3.687-.894,11.133,11.133,0,0,1-4.772-3.665,1.931,1.931,0,0,1,.473-2.929,2.151,2.151,0,0,1,1.695-.288.794.794,0,0,1,.391.33,13.86,13.86,0,0,1,.879,1.54c.079.174-.076.406-.145.608-.021.062-.112.112-.173.166-.664.587-.658.584-.027,1.212a7.982,7.982,0,0,0,3.421,1.937.712.712,0,0,0,.793-.146c.232-.223.506-.424.724-.653a.648.648,0,0,1,.75-.148c.761.257,1.527.508,2.274.785a.445.445,0,0,1,.275.322,1.4,1.4,0,0,1-.869,1.359A4.017,4.017,0,0,1,908.66,491.285Z" transform="translate(-895.643 -477.353)"/></svg>